<svg xmlns="http://www.w3.org/2000/svg" version="1.1" xmlns:xlink="http://www.w3.org/1999/xlink" xmlns:svgjs="http://svgjs.dev/svgjs" width="1440" height="560" preserveAspectRatio="none" viewBox="0 0 1440 560"><g mask="url(&quot;#SvgjsMask1264&quot;)" fill="none"><rect width="1440" height="560" x="0" y="0" fill="url(&quot;#SvgjsLinearGradient1265&quot;)"></rect><path d="M1440 0L1338.5 0L1440 57.39z" fill="rgba(255, 255, 255, .1)"></path><path d="M1338.5 0L1440 57.39L1440 256.21L1202.5 0z" fill="rgba(255, 255, 255, .075)"></path><path d="M1202.5 0L1440 256.21L1440 277.38L887.9300000000001 0z" fill="rgba(255, 255, 255, .05)"></path><path d="M887.9300000000001 0L1440 277.38L1440 408.9L759.2800000000001 0z" fill="rgba(255, 255, 255, .025)"></path><path d="M0 560L491.66 560L0 351.73z" fill="rgba(0, 0, 0, .1)"></path><path d="M0 351.73L491.66 560L532.6800000000001 560L0 248.95000000000002z" fill="rgba(0, 0, 0, .075)"></path><path d="M0 248.95L532.6800000000001 560L618.48 560L0 148.17z" fill="rgba(0, 0, 0, .05)"></path><path d="M0 148.16999999999996L618.48 560L627 560L0 67.33999999999996z" fill="rgba(0, 0, 0, .025)"></path></g><defs><mask id="SvgjsMask1264"><rect width="1440" height="560" fill="#ffffff"></rect></mask><linearGradient x1="50%" y1="100%" x2="50%" y2="0%" gradientUnits="userSpaceOnUse" id="SvgjsLinearGradient1265"><stop stop-color="rgba(71, 22, 14, 0.81)" offset="0"></stop><stop stop-color="rgba(172, 71, 59, 1)" offset="1"></stop></linearGradient></defs></svg>