<svg xmlns="http://www.w3.org/2000/svg" version="1.1" xmlns:xlink="http://www.w3.org/1999/xlink" xmlns:svgjs="http://svgjs.dev/svgjs" width="1440" height="560" preserveAspectRatio="none" viewBox="0 0 1440 560"><g mask="url(&quot;#SvgjsMask1156&quot;)" fill="none"><rect width="1440" height="560" x="0" y="0" fill="rgba(45, 36, 75, 0.35)"></rect><g transform="translate(0, 0)" stroke-linecap="round" stroke="url(&quot;#SvgjsLinearGradient1157&quot;)"><path d="M258 237.44 L258 322.56" stroke-width="33"></path><path d="M302 175.03 L302 384.98" stroke-width="33"></path><path d="M346 216.32 L346 343.68" stroke-width="33"></path><path d="M390 113.44 L390 446.56" stroke-width="33"></path><path d="M434 185.14 L434 374.86" stroke-width="33"></path><path d="M478 178.7 L478 381.3" stroke-width="33"></path><path d="M522 184.28 L522 375.73" stroke-width="33"></path><path d="M566 256.6 L566 303.4" stroke-width="33"></path><path d="M610 169.74 L610 390.26" stroke-width="33"></path><path d="M654 142.35 L654 417.64" stroke-width="33"></path><path d="M698 197.13 L698 362.87" stroke-width="33"></path><path d="M742 181.26 L742 378.74" stroke-width="33"></path><path d="M786 199.49 L786 360.51" stroke-width="33"></path><path d="M830 210.04 L830 349.96" stroke-width="33"></path><path d="M874 250.09 L874 309.9" stroke-width="33"></path><path d="M918 227.61 L918 332.39" stroke-width="33"></path><path d="M962 124.12 L962 435.88" stroke-width="33"></path><path d="M1006 178.44 L1006 381.56" stroke-width="33"></path><path d="M1050 112.38 L1050 447.62" stroke-width="33"></path><path d="M1094 239.72 L1094 320.27" stroke-width="33"></path><path d="M1138 205.69 L1138 354.31" stroke-width="33"></path><path d="M1182 239.28 L1182 320.73" stroke-width="33"></path></g></g><defs><mask id="SvgjsMask1156"><rect width="1440" height="560" fill="#ffffff"></rect></mask><linearGradient x1="230.39999999999998" y1="280" x2="1209.6" y2="280" gradientUnits="userSpaceOnUse" id="SvgjsLinearGradient1157"><stop stop-color="rgba(195, 101, 58, 1)" offset="0"></stop><stop stop-color="rgba(221, 208, 17, 1)" offset="1"></stop></linearGradient></defs></svg>