<svg xmlns="http://www.w3.org/2000/svg" version="1.1" xmlns:xlink="http://www.w3.org/1999/xlink" xmlns:svgjs="http://svgjs.dev/svgjs" width="1440" height="560" preserveAspectRatio="none" viewBox="0 0 1440 560"><g mask="url(&quot;#SvgjsMask1002&quot;)" fill="none"><path d="M820.61 353.59L820.61 357.32L849.99 357.32L849.99 353.59zM843.39 355.46 a6.6 6.6 0 1 0 13.2 0 a6.6 6.6 0 1 0 -13.2 0zM815.9 380.97L814.48 384.42L845.15 397.12L846.58 393.68zM839.26 395.4 a6.6 6.6 0 1 0 13.2 0 a6.6 6.6 0 1 0 -13.2 0zM801.08 404.46L798.44 407.1L809.19 417.85L811.83 415.21zM803.91 416.53 a6.6 6.6 0 1 0 13.2 0 a6.6 6.6 0 1 0 -13.2 0zM778.4 420.5L774.95 421.92L782.63 440.46L786.07 439.03zM777.75 439.74 a6.6 6.6 0 1 0 13.2 0 a6.6 6.6 0 1 0 -13.2 0zM751.3 426.63L747.57 426.63L747.57 458.72L751.3 458.72zM742.84 458.72 a6.6 6.6 0 1 0 13.2 0 a6.6 6.6 0 1 0 -13.2 0zM723.92 421.92L720.48 420.5L716.38 430.4L719.82 431.83zM711.5 431.11 a6.6 6.6 0 1 0 13.2 0 a6.6 6.6 0 1 0 -13.2 0zM700.43 407.1L697.8 404.46L673.52 428.74L676.16 431.38zM668.24 430.06 a6.6 6.6 0 1 0 13.2 0 a6.6 6.6 0 1 0 -13.2 0zM684.4 384.42L682.97 380.97L662.28 389.54L663.7 392.99zM656.39 391.27 a6.6 6.6 0 1 0 13.2 0 a6.6 6.6 0 1 0 -13.2 0zM678.27 357.32L678.27 353.59L643.4 353.59L643.4 357.32zM636.8 355.46 a6.6 6.6 0 1 0 13.2 0 a6.6 6.6 0 1 0 -13.2 0zM682.97 329.94L684.4 326.5L673.08 321.81L671.66 325.26zM665.77 323.53 a6.6 6.6 0 1 0 13.2 0 a6.6 6.6 0 1 0 -13.2 0zM697.8 306.45L700.43 303.82L675.75 279.13L673.11 281.77zM667.83 280.45 a6.6 6.6 0 1 0 13.2 0 a6.6 6.6 0 1 0 -13.2 0zM720.48 290.42L723.92 288.99L718.67 276.32L715.23 277.74zM710.35 277.03 a6.6 6.6 0 1 0 13.2 0 a6.6 6.6 0 1 0 -13.2 0zM747.57 284.29L751.3 284.29L751.3 253.94L747.57 253.94zM742.84 253.94 a6.6 6.6 0 1 0 13.2 0 a6.6 6.6 0 1 0 -13.2 0zM774.95 288.99L778.4 290.42L790.61 260.92L787.17 259.49zM782.29 260.21 a6.6 6.6 0 1 0 13.2 0 a6.6 6.6 0 1 0 -13.2 0zM798.44 303.82L801.08 306.45L807.58 299.95L804.94 297.32zM799.66 298.64 a6.6 6.6 0 1 0 13.2 0 a6.6 6.6 0 1 0 -13.2 0zM814.48 326.5L815.9 329.94L826.02 325.75L824.59 322.31zM818.71 324.03 a6.6 6.6 0 1 0 13.2 0 a6.6 6.6 0 1 0 -13.2 0zM678.25 355.46 a71.19 71.19 0 1 0 142.38 0 a71.19 71.19 0 1 0 -142.38 0z" fill="rgba(217, 82, 82, 0.88)"></path><path d="M760.62 285.15 A70.1936 70.1936 0 0 1 804.83 400.18M804.83 400.18 A142.3872 142.3872 0 0 0 760.62 285.15" fill="rgba(196, 43, 43, 0.88)" fill-rule="nonzero"></path><path d="M745.22 390.55 a14.24 14.24 0 1 0 28.48 0 a14.24 14.24 0 1 0 -28.48 0zM717.14 359.22 a13.53 13.53 0 1 0 27.06 0 a13.53 13.53 0 1 0 -27.06 0zM697.37 401.09 a5.7 5.7 0 1 0 11.4 0 a5.7 5.7 0 1 0 -11.4 0zM683.01 333.48 a9.26 9.26 0 1 0 18.52 0 a9.26 9.26 0 1 0 -18.52 0zM764.98 355.06 a9.97 9.97 0 1 0 19.94 0 a9.97 9.97 0 1 0 -19.94 0zM687.67 364.04 a6.41 6.41 0 1 0 12.82 0 a6.41 6.41 0 1 0 -12.82 0zM711.75 313.04 a14.24 14.24 0 1 0 28.48 0 a14.24 14.24 0 1 0 -28.48 0zM730.71 418.69 a6.41 6.41 0 1 0 12.82 0 a6.41 6.41 0 1 0 -12.82 0zM766.96 293.36 a4.98 4.98 0 1 0 9.96 0 a4.98 4.98 0 1 0 -9.96 0zM723.27 396.43 a3.56 3.56 0 1 0 7.12 0 a3.56 3.56 0 1 0 -7.12 0z" fill="rgba(196, 43, 43, 0.88)" fill-rule="nonzero"></path><path d="M365.97 123.29L365.97 127.01L392.6 127.01L392.6 123.29zM386 125.15 a6.6 6.6 0 1 0 13.2 0 a6.6 6.6 0 1 0 -13.2 0zM361.26 150.66L359.84 154.11L378.19 161.71L379.62 158.27zM372.31 159.99 a6.6 6.6 0 1 0 13.2 0 a6.6 6.6 0 1 0 -13.2 0zM346.44 174.16L343.81 176.79L361.82 194.81L364.46 192.17zM356.54 193.49 a6.6 6.6 0 1 0 13.2 0 a6.6 6.6 0 1 0 -13.2 0zM323.76 190.19L320.31 191.62L325.97 205.28L329.42 203.85zM321.09 204.57 a6.6 6.6 0 1 0 13.2 0 a6.6 6.6 0 1 0 -13.2 0zM296.66 196.32L292.94 196.32L292.94 219.39L296.66 219.39zM288.2 219.39 a6.6 6.6 0 1 0 13.2 0 a6.6 6.6 0 1 0 -13.2 0zM269.29 191.62L265.84 190.19L261.03 201.81L264.47 203.24zM256.15 202.52 a6.6 6.6 0 1 0 13.2 0 a6.6 6.6 0 1 0 -13.2 0zM245.79 176.79L243.16 174.16L234.51 182.8L237.14 185.44zM229.23 184.12 a6.6 6.6 0 1 0 13.2 0 a6.6 6.6 0 1 0 -13.2 0zM229.76 154.11L228.33 150.66L220.08 154.08L221.51 157.53zM214.2 155.8 a6.6 6.6 0 1 0 13.2 0 a6.6 6.6 0 1 0 -13.2 0zM223.63 127.01L223.63 123.29L206.49 123.29L206.49 127.01zM199.89 125.15 a6.6 6.6 0 1 0 13.2 0 a6.6 6.6 0 1 0 -13.2 0zM228.33 99.64L229.76 96.19L211.17 88.49L209.75 91.94zM203.86 90.22 a6.6 6.6 0 1 0 13.2 0 a6.6 6.6 0 1 0 -13.2 0zM243.16 76.14L245.79 73.51L235.96 63.67L233.32 66.31zM228.04 64.99 a6.6 6.6 0 1 0 13.2 0 a6.6 6.6 0 1 0 -13.2 0zM265.84 60.11L269.29 58.69L265.3 49.07L261.86 50.49zM256.98 49.78 a6.6 6.6 0 1 0 13.2 0 a6.6 6.6 0 1 0 -13.2 0zM292.94 53.98L296.66 53.98L296.66 22.61L292.94 22.61zM288.2 22.61 a6.6 6.6 0 1 0 13.2 0 a6.6 6.6 0 1 0 -13.2 0zM320.31 58.69L323.76 60.11L333.23 37.24L329.79 35.81zM324.91 36.52 a6.6 6.6 0 1 0 13.2 0 a6.6 6.6 0 1 0 -13.2 0zM343.81 73.51L346.44 76.14L366.11 56.47L363.48 53.84zM358.19 55.15 a6.6 6.6 0 1 0 13.2 0 a6.6 6.6 0 1 0 -13.2 0zM359.84 96.19L361.26 99.64L393.72 86.19L392.29 82.75zM386.41 84.47 a6.6 6.6 0 1 0 13.2 0 a6.6 6.6 0 1 0 -13.2 0zM223.61 125.15 a71.19 71.19 0 1 0 142.38 0 a71.19 71.19 0 1 0 -142.38 0z" fill="rgba(217, 82, 82, 0.88)"></path><path d="M364.11 108.89 A70.1936 70.1936 0 0 1 274.36 193.35M274.36 193.35 A142.3872 142.3872 0 0 0 364.11 108.89" fill="rgba(196, 43, 43, 0.88)" fill-rule="nonzero"></path><path d="M305.91 96.36 a14.24 14.24 0 1 0 28.48 0 a14.24 14.24 0 1 0 -28.48 0zM265.14 82.24 a14.24 14.24 0 1 0 28.48 0 a14.24 14.24 0 1 0 -28.48 0zM224.11 132.89 a4.27 4.27 0 1 0 8.54 0 a4.27 4.27 0 1 0 -8.54 0zM272 123.73 a12.81 12.81 0 1 0 25.62 0 a12.81 12.81 0 1 0 -25.62 0zM324.47 131.74 a8.54 8.54 0 1 0 17.08 0 a8.54 8.54 0 1 0 -17.08 0zM348.36 150.43 a2.85 2.85 0 1 0 5.7 0 a2.85 2.85 0 1 0 -5.7 0zM256.8 154.86 a9.26 9.26 0 1 0 18.52 0 a9.26 9.26 0 1 0 -18.52 0zM236.51 100.2 a9.26 9.26 0 1 0 18.52 0 a9.26 9.26 0 1 0 -18.52 0zM347.32 86.53 a2.85 2.85 0 1 0 5.7 0 a2.85 2.85 0 1 0 -5.7 0zM302.45 188.22 a6.41 6.41 0 1 0 12.82 0 a6.41 6.41 0 1 0 -12.82 0z" fill="rgba(196, 43, 43, 0.88)" fill-rule="nonzero"></path><path d="M1198.09 81.96L1198.09 84.28L1215.33 84.28L1215.33 81.96zM1211.2 83.12 a4.13 4.13 0 1 0 8.26 0 a4.13 4.13 0 1 0 -8.26 0zM1195.15 99.07L1194.26 101.22L1207.08 106.53L1207.97 104.37zM1203.39 105.45 a4.13 4.13 0 1 0 8.26 0 a4.13 4.13 0 1 0 -8.26 0zM1185.89 113.75L1184.24 115.4L1190.14 121.29L1191.79 119.65zM1186.83 120.47 a4.13 4.13 0 1 0 8.26 0 a4.13 4.13 0 1 0 -8.26 0zM1171.71 123.77L1169.56 124.66L1176.6 141.65L1178.75 140.76zM1173.54 141.21 a4.13 4.13 0 1 0 8.26 0 a4.13 4.13 0 1 0 -8.26 0zM1154.78 127.6L1152.45 127.6L1152.45 148.14L1154.78 148.14zM1149.48 148.14 a4.13 4.13 0 1 0 8.26 0 a4.13 4.13 0 1 0 -8.26 0zM1137.67 124.66L1135.52 123.77L1129 139.5L1131.15 140.39zM1125.94 139.95 a4.13 4.13 0 1 0 8.26 0 a4.13 4.13 0 1 0 -8.26 0zM1122.98 115.4L1121.34 113.75L1107.27 127.81L1108.92 129.46zM1103.97 128.64 a4.13 4.13 0 1 0 8.26 0 a4.13 4.13 0 1 0 -8.26 0zM1112.96 101.22L1112.07 99.07L1097.62 105.05L1098.51 107.2zM1093.94 106.13 a4.13 4.13 0 1 0 8.26 0 a4.13 4.13 0 1 0 -8.26 0zM1109.13 84.28L1109.13 81.96L1088.81 81.96L1088.81 84.28zM1084.68 83.12 a4.13 4.13 0 1 0 8.26 0 a4.13 4.13 0 1 0 -8.26 0zM1112.07 67.17L1112.96 65.02L1099.69 59.52L1098.8 61.67zM1095.11 60.6 a4.13 4.13 0 1 0 8.26 0 a4.13 4.13 0 1 0 -8.26 0zM1121.34 52.49L1122.98 50.84L1109.44 37.3L1107.8 38.95zM1104.49 38.13 a4.13 4.13 0 1 0 8.26 0 a4.13 4.13 0 1 0 -8.26 0zM1135.52 42.47L1137.67 41.58L1130.63 24.59L1128.48 25.48zM1125.42 25.04 a4.13 4.13 0 1 0 8.26 0 a4.13 4.13 0 1 0 -8.26 0zM1152.45 38.64L1154.78 38.64L1154.78 25.82L1152.45 25.82zM1149.48 25.82 a4.13 4.13 0 1 0 8.26 0 a4.13 4.13 0 1 0 -8.26 0zM1169.56 41.58L1171.71 42.47L1175.31 33.78L1173.16 32.89zM1170.11 33.33 a4.13 4.13 0 1 0 8.26 0 a4.13 4.13 0 1 0 -8.26 0zM1184.24 50.84L1185.89 52.49L1192.15 46.23L1190.51 44.58zM1187.2 45.4 a4.13 4.13 0 1 0 8.26 0 a4.13 4.13 0 1 0 -8.26 0zM1194.26 65.02L1195.15 67.17L1211.48 60.41L1210.59 58.26zM1206.9 59.34 a4.13 4.13 0 1 0 8.26 0 a4.13 4.13 0 1 0 -8.26 0zM1109.11 83.12 a44.5 44.5 0 1 0 89 0 a44.5 44.5 0 1 0 -89 0z" fill="rgba(217, 82, 82, 0.88)"></path><path d="M1177.48 45.56 A43.496 43.496 0 0 1 1174.29 122.52M1174.29 122.52 A88.992 88.992 0 0 0 1177.48 45.56" fill="rgba(196, 43, 43, 0.88)" fill-rule="nonzero"></path><path d="M1124 112.08 a8.45 8.45 0 1 0 16.9 0 a8.45 8.45 0 1 0 -16.9 0zM1158.95 62.17 a8.9 8.9 0 1 0 17.8 0 a8.9 8.9 0 1 0 -17.8 0zM1119.41 78.02 a8.9 8.9 0 1 0 17.8 0 a8.9 8.9 0 1 0 -17.8 0zM1171.54 116.05 a4.45 4.45 0 1 0 8.9 0 a4.45 4.45 0 1 0 -8.9 0zM1152.14 81.54 a4.45 4.45 0 1 0 8.9 0 a4.45 4.45 0 1 0 -8.9 0zM1193.41 80.94 a2.22 2.22 0 1 0 4.44 0 a2.22 2.22 0 1 0 -4.44 0zM1140.52 50.12 a6.23 6.23 0 1 0 12.46 0 a6.23 6.23 0 1 0 -12.46 0zM1141.47 94.34 a3.56 3.56 0 1 0 7.12 0 a3.56 3.56 0 1 0 -7.12 0zM1160.42 96.8 a3.11 3.11 0 1 0 6.22 0 a3.11 3.11 0 1 0 -6.22 0zM1175.76 96.25 a2.22 2.22 0 1 0 4.44 0 a2.22 2.22 0 1 0 -4.44 0z" fill="rgba(196, 43, 43, 0.88)" fill-rule="nonzero"></path><path d="M147.52 387.82L147.52 390.61L160.76 390.61L160.76 387.82zM155.81 389.22 a4.95 4.95 0 1 0 9.9 0 a4.95 4.95 0 1 0 -9.9 0zM143.99 408.35L142.92 410.93L154.67 415.8L155.74 413.22zM150.25 414.51 a4.95 4.95 0 1 0 9.9 0 a4.95 4.95 0 1 0 -9.9 0zM132.88 425.97L130.9 427.95L143.34 440.39L145.32 438.41zM139.38 439.4 a4.95 4.95 0 1 0 9.9 0 a4.95 4.95 0 1 0 -9.9 0zM115.86 438L113.28 439.07L121.71 459.41L124.29 458.34zM118.05 458.87 a4.95 4.95 0 1 0 9.9 0 a4.95 4.95 0 1 0 -9.9 0zM95.54 442.59L92.75 442.59L92.75 452.1L95.54 452.1zM89.2 452.1 a4.95 4.95 0 1 0 9.9 0 a4.95 4.95 0 1 0 -9.9 0zM75.01 439.07L72.43 438L65.26 455.3L67.84 456.37zM61.6 455.83 a4.95 4.95 0 1 0 9.9 0 a4.95 4.95 0 1 0 -9.9 0zM57.39 427.95L55.41 425.97L43.87 437.52L45.84 439.5zM39.91 438.51 a4.95 4.95 0 1 0 9.9 0 a4.95 4.95 0 1 0 -9.9 0zM45.37 410.93L44.3 408.35L26.88 415.57L27.95 418.15zM22.47 416.86 a4.95 4.95 0 1 0 9.9 0 a4.95 4.95 0 1 0 -9.9 0zM40.77 390.61L40.77 387.82L28 387.82L28 390.61zM23.05 389.22 a4.95 4.95 0 1 0 9.9 0 a4.95 4.95 0 1 0 -9.9 0zM44.3 370.08L45.37 367.5L24.37 358.8L23.3 361.38zM18.88 360.09 a4.95 4.95 0 1 0 9.9 0 a4.95 4.95 0 1 0 -9.9 0zM55.41 352.46L57.39 350.49L49.48 342.57L47.5 344.55zM43.54 343.56 a4.95 4.95 0 1 0 9.9 0 a4.95 4.95 0 1 0 -9.9 0zM72.43 340.44L75.01 339.37L67.92 322.25L65.34 323.32zM61.68 322.78 a4.95 4.95 0 1 0 9.9 0 a4.95 4.95 0 1 0 -9.9 0zM92.75 335.84L95.54 335.84L95.54 322.24L92.75 322.24zM89.2 322.24 a4.95 4.95 0 1 0 9.9 0 a4.95 4.95 0 1 0 -9.9 0zM113.28 339.37L115.86 340.44L125.19 317.91L122.61 316.84zM118.95 317.38 a4.95 4.95 0 1 0 9.9 0 a4.95 4.95 0 1 0 -9.9 0zM130.9 350.49L132.88 352.46L141.91 343.42L139.94 341.45zM135.98 342.44 a4.95 4.95 0 1 0 9.9 0 a4.95 4.95 0 1 0 -9.9 0zM142.92 367.5L143.99 370.08L152.03 366.75L150.96 364.17zM146.55 365.46 a4.95 4.95 0 1 0 9.9 0 a4.95 4.95 0 1 0 -9.9 0zM40.75 389.22 a53.4 53.4 0 1 0 106.8 0 a53.4 53.4 0 1 0 -106.8 0z" fill="rgba(217, 82, 82, 0.88)"></path><path d="M74.95 439.04 A52.3952 52.3952 0 0 1 60.51 347.75M60.51 347.75 A106.7904 106.7904 0 0 0 74.95 439.04" fill="rgba(196, 43, 43, 0.88)" fill-rule="nonzero"></path><path d="M44.2 400.07 a10.68 10.68 0 1 0 21.36 0 a10.68 10.68 0 1 0 -21.36 0zM110.12 367.41 a10.68 10.68 0 1 0 21.36 0 a10.68 10.68 0 1 0 -21.36 0zM77.27 388.4 a10.68 10.68 0 1 0 21.36 0 a10.68 10.68 0 1 0 -21.36 0zM61.4 370.05 a5.87 5.87 0 1 0 11.74 0 a5.87 5.87 0 1 0 -11.74 0zM75.62 423.57 a10.68 10.68 0 1 0 21.36 0 a10.68 10.68 0 1 0 -21.36 0zM42.97 374.43 a2.14 2.14 0 1 0 4.28 0 a2.14 2.14 0 1 0 -4.28 0zM107.48 417.74 a2.67 2.67 0 1 0 5.34 0 a2.67 2.67 0 1 0 -5.34 0zM112.84 391.95 a3.2 3.2 0 1 0 6.4 0 a3.2 3.2 0 1 0 -6.4 0zM81.92 351.45 a10.68 10.68 0 1 0 21.36 0 a10.68 10.68 0 1 0 -21.36 0zM109.66 433.27 a2.14 2.14 0 1 0 4.28 0 a2.14 2.14 0 1 0 -4.28 0z" fill="rgba(196, 43, 43, 0.88)" fill-rule="nonzero"></path><path d="M377.44 404.27L377.44 406.59L385.5 406.59L385.5 404.27zM381.37 405.43 a4.13 4.13 0 1 0 8.26 0 a4.13 4.13 0 1 0 -8.26 0zM374.5 421.38L373.61 423.53L393.54 431.78L394.43 429.63zM389.85 430.71 a4.13 4.13 0 1 0 8.26 0 a4.13 4.13 0 1 0 -8.26 0zM365.24 436.06L363.59 437.71L374.56 448.68L376.21 447.03zM371.26 447.86 a4.13 4.13 0 1 0 8.26 0 a4.13 4.13 0 1 0 -8.26 0zM351.06 446.08L348.91 446.97L354.79 461.18L356.94 460.29zM351.74 460.73 a4.13 4.13 0 1 0 8.26 0 a4.13 4.13 0 1 0 -8.26 0zM334.12 449.91L331.79 449.91L331.79 468.09L334.12 468.09zM328.83 468.09 a4.13 4.13 0 1 0 8.26 0 a4.13 4.13 0 1 0 -8.26 0zM317.01 446.97L314.86 446.08L306.73 465.71L308.88 466.6zM303.68 466.16 a4.13 4.13 0 1 0 8.26 0 a4.13 4.13 0 1 0 -8.26 0zM302.33 437.71L300.68 436.06L294.86 441.88L296.51 443.53zM291.56 442.7 a4.13 4.13 0 1 0 8.26 0 a4.13 4.13 0 1 0 -8.26 0zM292.31 423.53L291.42 421.38L277.95 426.96L278.84 429.11zM274.26 428.03 a4.13 4.13 0 1 0 8.26 0 a4.13 4.13 0 1 0 -8.26 0zM288.48 406.59L288.48 404.27L268.96 404.27L268.96 406.59zM264.83 405.43 a4.13 4.13 0 1 0 8.26 0 a4.13 4.13 0 1 0 -8.26 0zM291.42 389.48L292.31 387.33L273.67 379.61L272.78 381.76zM269.09 380.69 a4.13 4.13 0 1 0 8.26 0 a4.13 4.13 0 1 0 -8.26 0zM300.68 374.8L302.33 373.15L293.5 364.32L291.85 365.97zM288.55 365.15 a4.13 4.13 0 1 0 8.26 0 a4.13 4.13 0 1 0 -8.26 0zM314.86 364.78L317.01 363.89L312.95 354.09L310.8 354.98zM307.75 354.53 a4.13 4.13 0 1 0 8.26 0 a4.13 4.13 0 1 0 -8.26 0zM331.79 360.95L334.12 360.95L334.12 354.28L331.79 354.28zM328.83 354.28 a4.13 4.13 0 1 0 8.26 0 a4.13 4.13 0 1 0 -8.26 0zM348.91 363.89L351.06 364.78L354.13 357.35L351.98 356.46zM348.93 356.91 a4.13 4.13 0 1 0 8.26 0 a4.13 4.13 0 1 0 -8.26 0zM363.59 373.15L365.24 374.8L380.08 359.96L378.43 358.31zM375.12 359.14 a4.13 4.13 0 1 0 8.26 0 a4.13 4.13 0 1 0 -8.26 0zM373.61 387.33L374.5 389.48L394.79 381.08L393.9 378.93zM390.21 380 a4.13 4.13 0 1 0 8.26 0 a4.13 4.13 0 1 0 -8.26 0zM288.46 405.43 a44.5 44.5 0 1 0 89 0 a44.5 44.5 0 1 0 -89 0z" fill="rgba(217, 82, 82, 0.88)"></path><path d="M354.89 444.15 A43.496 43.496 0 0 1 288.46 405.16M288.46 405.16 A88.992 88.992 0 0 0 354.89 444.15" fill="rgba(196, 43, 43, 0.88)" fill-rule="nonzero"></path><path d="M312.16 434.25 a8.9 8.9 0 1 0 17.8 0 a8.9 8.9 0 1 0 -17.8 0zM324.87 410.63 a8.9 8.9 0 1 0 17.8 0 a8.9 8.9 0 1 0 -17.8 0zM328.55 365.38 a4 4 0 1 0 8 0 a4 4 0 1 0 -8 0zM356.93 407.02 a8.9 8.9 0 1 0 17.8 0 a8.9 8.9 0 1 0 -17.8 0zM313.98 366.96 a2.22 2.22 0 1 0 4.44 0 a2.22 2.22 0 1 0 -4.44 0zM326.7 383.21 a4.89 4.89 0 1 0 9.78 0 a4.89 4.89 0 1 0 -9.78 0zM294.53 411.89 a8.9 8.9 0 1 0 17.8 0 a8.9 8.9 0 1 0 -17.8 0zM343.97 373.69 a7.56 7.56 0 1 0 15.12 0 a7.56 7.56 0 1 0 -15.12 0zM311.03 380.07 a2.22 2.22 0 1 0 4.44 0 a2.22 2.22 0 1 0 -4.44 0zM339.17 429.15 a1.78 1.78 0 1 0 3.56 0 a1.78 1.78 0 1 0 -3.56 0z" fill="rgba(196, 43, 43, 0.88)" fill-rule="nonzero"></path><path d="M660.58 95.45L660.58 98.25L678.1 98.25L678.1 95.45zM673.15 96.85 a4.95 4.95 0 1 0 9.9 0 a4.95 4.95 0 1 0 -9.9 0zM657.05 115.98L655.98 118.57L674.12 126.08L675.19 123.5zM669.7 124.79 a4.95 4.95 0 1 0 9.9 0 a4.95 4.95 0 1 0 -9.9 0zM645.94 133.6L643.96 135.58L650.62 142.24L652.6 140.26zM646.66 141.25 a4.95 4.95 0 1 0 9.9 0 a4.95 4.95 0 1 0 -9.9 0zM628.92 145.63L626.34 146.7L635.7 169.3L638.29 168.23zM632.05 168.77 a4.95 4.95 0 1 0 9.9 0 a4.95 4.95 0 1 0 -9.9 0zM608.6 150.23L605.81 150.23L605.81 164.66L608.6 164.66zM602.25 164.66 a4.95 4.95 0 1 0 9.9 0 a4.95 4.95 0 1 0 -9.9 0zM588.07 146.7L585.49 145.63L582.81 152.09L585.39 153.16zM579.15 152.63 a4.95 4.95 0 1 0 9.9 0 a4.95 4.95 0 1 0 -9.9 0zM570.45 135.58L568.47 133.6L553.64 148.44L555.61 150.41zM549.68 149.43 a4.95 4.95 0 1 0 9.9 0 a4.95 4.95 0 1 0 -9.9 0zM558.43 118.57L557.36 115.98L544.71 121.22L545.78 123.8zM540.29 122.51 a4.95 4.95 0 1 0 9.9 0 a4.95 4.95 0 1 0 -9.9 0zM553.83 98.25L553.83 95.45L541.08 95.45L541.08 98.25zM536.13 96.85 a4.95 4.95 0 1 0 9.9 0 a4.95 4.95 0 1 0 -9.9 0zM557.36 77.71L558.43 75.13L535.15 65.49L534.08 68.07zM529.67 66.78 a4.95 4.95 0 1 0 9.9 0 a4.95 4.95 0 1 0 -9.9 0zM568.47 60.09L570.45 58.12L563.58 51.25L561.61 53.23zM557.65 52.24 a4.95 4.95 0 1 0 9.9 0 a4.95 4.95 0 1 0 -9.9 0zM585.49 48.07L588.07 47L581.1 30.18L578.52 31.25zM574.86 30.71 a4.95 4.95 0 1 0 9.9 0 a4.95 4.95 0 1 0 -9.9 0zM605.81 43.47L608.6 43.47L608.6 20.31L605.81 20.31zM602.25 20.31 a4.95 4.95 0 1 0 9.9 0 a4.95 4.95 0 1 0 -9.9 0zM626.34 47L628.92 48.07L634.88 33.68L632.3 32.61zM628.64 33.15 a4.95 4.95 0 1 0 9.9 0 a4.95 4.95 0 1 0 -9.9 0zM643.96 58.12L645.94 60.09L662.55 43.48L660.57 41.51zM656.61 42.5 a4.95 4.95 0 1 0 9.9 0 a4.95 4.95 0 1 0 -9.9 0zM655.98 75.13L657.05 77.71L678.2 68.95L677.13 66.37zM672.72 67.66 a4.95 4.95 0 1 0 9.9 0 a4.95 4.95 0 1 0 -9.9 0zM553.8 96.85 a53.4 53.4 0 1 0 106.8 0 a53.4 53.4 0 1 0 -106.8 0z" fill="rgba(217, 82, 82, 0.88)"></path><path d="M606.2 150.23 A52.3952 52.3952 0 0 1 561.42 69.38M561.42 69.38 A106.7904 106.7904 0 0 0 606.2 150.23" fill="rgba(196, 43, 43, 0.88)" fill-rule="nonzero"></path><path d="M622.06 102.11 a10.68 10.68 0 1 0 21.36 0 a10.68 10.68 0 1 0 -21.36 0zM595.14 144.42 a4.81 4.81 0 1 0 9.62 0 a4.81 4.81 0 1 0 -9.62 0zM652.08 77.68 a2.14 2.14 0 1 0 4.28 0 a2.14 2.14 0 1 0 -4.28 0zM579.26 64.71 a10.68 10.68 0 1 0 21.36 0 a10.68 10.68 0 1 0 -21.36 0zM589.95 114.19 a10.68 10.68 0 1 0 21.36 0 a10.68 10.68 0 1 0 -21.36 0zM568.14 84.7 a4.81 4.81 0 1 0 9.62 0 a4.81 4.81 0 1 0 -9.62 0zM637.99 63.88 a4.81 4.81 0 1 0 9.62 0 a4.81 4.81 0 1 0 -9.62 0zM627.77 138.01 a4.81 4.81 0 1 0 9.62 0 a4.81 4.81 0 1 0 -9.62 0zM607.65 88.71 a3.74 3.74 0 1 0 7.48 0 a3.74 3.74 0 1 0 -7.48 0zM569.35 132.22 a4.81 4.81 0 1 0 9.62 0 a4.81 4.81 0 1 0 -9.62 0z" fill="rgba(196, 43, 43, 0.88)" fill-rule="nonzero"></path><path d="M1291.46 464.5L1291.46 467.29L1305.36 467.29L1305.36 464.5zM1300.41 465.9 a4.95 4.95 0 1 0 9.9 0 a4.95 4.95 0 1 0 -9.9 0zM1287.93 485.03L1286.86 487.61L1309.68 497.07L1310.75 494.48zM1305.26 495.77 a4.95 4.95 0 1 0 9.9 0 a4.95 4.95 0 1 0 -9.9 0zM1276.81 502.65L1274.83 504.63L1284.19 513.98L1286.16 512.01zM1280.23 512.99 a4.95 4.95 0 1 0 9.9 0 a4.95 4.95 0 1 0 -9.9 0zM1259.8 514.67L1257.21 515.74L1266.78 538.84L1269.36 537.77zM1263.12 538.31 a4.95 4.95 0 1 0 9.9 0 a4.95 4.95 0 1 0 -9.9 0zM1239.48 519.27L1236.68 519.27L1236.68 534.33L1239.48 534.33zM1233.13 534.33 a4.95 4.95 0 1 0 9.9 0 a4.95 4.95 0 1 0 -9.9 0zM1218.94 515.74L1216.36 514.67L1212.49 524.01L1215.07 525.08zM1208.83 524.55 a4.95 4.95 0 1 0 9.9 0 a4.95 4.95 0 1 0 -9.9 0zM1201.32 504.63L1199.35 502.65L1190.76 511.23L1192.74 513.21zM1186.8 512.22 a4.95 4.95 0 1 0 9.9 0 a4.95 4.95 0 1 0 -9.9 0zM1189.3 487.61L1188.23 485.03L1174.95 490.53L1176.02 493.11zM1170.54 491.82 a4.95 4.95 0 1 0 9.9 0 a4.95 4.95 0 1 0 -9.9 0zM1184.7 467.29L1184.7 464.5L1175.57 464.5L1175.57 467.29zM1170.62 465.9 a4.95 4.95 0 1 0 9.9 0 a4.95 4.95 0 1 0 -9.9 0zM1188.23 446.76L1189.3 444.18L1167.25 435.04L1166.18 437.63zM1161.76 436.33 a4.95 4.95 0 1 0 9.9 0 a4.95 4.95 0 1 0 -9.9 0zM1199.35 429.14L1201.32 427.16L1191.32 417.17L1189.35 419.14zM1185.39 418.15 a4.95 4.95 0 1 0 9.9 0 a4.95 4.95 0 1 0 -9.9 0zM1216.36 417.12L1218.94 416.05L1210.15 394.82L1207.57 395.89zM1203.91 395.35 a4.95 4.95 0 1 0 9.9 0 a4.95 4.95 0 1 0 -9.9 0zM1236.68 412.52L1239.48 412.52L1239.48 392.71L1236.68 392.71zM1233.13 392.71 a4.95 4.95 0 1 0 9.9 0 a4.95 4.95 0 1 0 -9.9 0zM1257.21 416.05L1259.8 417.12L1269.37 393.99L1266.79 392.92zM1263.13 393.46 a4.95 4.95 0 1 0 9.9 0 a4.95 4.95 0 1 0 -9.9 0zM1274.83 427.16L1276.81 429.14L1283.61 422.35L1281.63 420.37zM1277.67 421.36 a4.95 4.95 0 1 0 9.9 0 a4.95 4.95 0 1 0 -9.9 0zM1286.86 444.18L1287.93 446.76L1304.31 439.98L1303.24 437.39zM1298.82 438.68 a4.95 4.95 0 1 0 9.9 0 a4.95 4.95 0 1 0 -9.9 0zM1184.68 465.9 a53.4 53.4 0 1 0 106.8 0 a53.4 53.4 0 1 0 -106.8 0z" fill="rgba(217, 82, 82, 0.88)"></path><path d="M1253.1 517.13 A52.3952 52.3952 0 0 1 1186.17 453.39M1186.17 453.39 A106.7904 106.7904 0 0 0 1253.1 517.13" fill="rgba(196, 43, 43, 0.88)" fill-rule="nonzero"></path><path d="M1228.93 444.72 a10.68 10.68 0 1 0 21.36 0 a10.68 10.68 0 1 0 -21.36 0zM1259.4 469.35 a10.68 10.68 0 1 0 21.36 0 a10.68 10.68 0 1 0 -21.36 0zM1207.43 443.31 a5.34 5.34 0 1 0 10.68 0 a5.34 5.34 0 1 0 -10.68 0zM1259.42 435.06 a8.54 8.54 0 1 0 17.08 0 a8.54 8.54 0 1 0 -17.08 0zM1204.64 502.38 a9.08 9.08 0 1 0 18.16 0 a9.08 9.08 0 1 0 -18.16 0zM1211.66 466.16 a7.48 7.48 0 1 0 14.96 0 a7.48 7.48 0 1 0 -14.96 0zM1226.9 484.75 a3.2 3.2 0 1 0 6.4 0 a3.2 3.2 0 1 0 -6.4 0zM1245 491.1 a6.94 6.94 0 1 0 13.88 0 a6.94 6.94 0 1 0 -13.88 0zM1185.07 468.7 a5.34 5.34 0 1 0 10.68 0 a5.34 5.34 0 1 0 -10.68 0zM1244.99 421.68 a2.67 2.67 0 1 0 5.34 0 a2.67 2.67 0 1 0 -5.34 0z" fill="rgba(196, 43, 43, 0.88)" fill-rule="nonzero"></path><path d="M1402.27 252.38L1402.27 254.7L1418.96 254.7L1418.96 252.38zM1414.83 253.54 a4.13 4.13 0 1 0 8.26 0 a4.13 4.13 0 1 0 -8.26 0zM1399.32 269.49L1398.43 271.64L1403.53 273.75L1404.42 271.6zM1399.85 272.67 a4.13 4.13 0 1 0 8.26 0 a4.13 4.13 0 1 0 -8.26 0zM1390.06 284.17L1388.41 285.82L1392.75 290.15L1394.4 288.5zM1389.44 289.33 a4.13 4.13 0 1 0 8.26 0 a4.13 4.13 0 1 0 -8.26 0zM1375.88 294.19L1373.73 295.08L1381.32 313.41L1383.47 312.52zM1378.27 312.96 a4.13 4.13 0 1 0 8.26 0 a4.13 4.13 0 1 0 -8.26 0zM1358.95 298.02L1356.62 298.02L1356.62 303.99L1358.95 303.99zM1353.65 303.99 a4.13 4.13 0 1 0 8.26 0 a4.13 4.13 0 1 0 -8.26 0zM1341.84 295.08L1339.69 294.19L1332.53 311.47L1334.68 312.36zM1329.48 311.91 a4.13 4.13 0 1 0 8.26 0 a4.13 4.13 0 1 0 -8.26 0zM1327.16 285.82L1325.51 284.17L1312.55 297.13L1314.19 298.78zM1309.24 297.95 a4.13 4.13 0 1 0 8.26 0 a4.13 4.13 0 1 0 -8.26 0zM1317.14 271.64L1316.24 269.49L1303.07 274.94L1303.96 277.1zM1299.38 276.02 a4.13 4.13 0 1 0 8.26 0 a4.13 4.13 0 1 0 -8.26 0zM1313.3 254.7L1313.3 252.38L1307.7 252.38L1307.7 254.7zM1303.57 253.54 a4.13 4.13 0 1 0 8.26 0 a4.13 4.13 0 1 0 -8.26 0zM1316.24 237.59L1317.14 235.44L1309.34 232.21L1308.45 234.36zM1304.76 233.29 a4.13 4.13 0 1 0 8.26 0 a4.13 4.13 0 1 0 -8.26 0zM1325.51 222.91L1327.16 221.26L1319.47 213.58L1317.82 215.22zM1314.52 214.4 a4.13 4.13 0 1 0 8.26 0 a4.13 4.13 0 1 0 -8.26 0zM1339.69 212.89L1341.84 212L1335.03 195.56L1332.88 196.45zM1329.82 196.01 a4.13 4.13 0 1 0 8.26 0 a4.13 4.13 0 1 0 -8.26 0zM1356.62 209.06L1358.95 209.06L1358.95 187.44L1356.62 187.44zM1353.65 187.44 a4.13 4.13 0 1 0 8.26 0 a4.13 4.13 0 1 0 -8.26 0zM1373.73 212L1375.88 212.89L1383.21 195.21L1381.05 194.32zM1378 194.76 a4.13 4.13 0 1 0 8.26 0 a4.13 4.13 0 1 0 -8.26 0zM1388.41 221.26L1390.06 222.91L1398.88 214.09L1397.23 212.45zM1393.92 213.27 a4.13 4.13 0 1 0 8.26 0 a4.13 4.13 0 1 0 -8.26 0zM1398.43 235.44L1399.32 237.59L1416.09 230.65L1415.2 228.5zM1411.52 229.57 a4.13 4.13 0 1 0 8.26 0 a4.13 4.13 0 1 0 -8.26 0zM1313.28 253.54 a44.5 44.5 0 1 0 89 0 a44.5 44.5 0 1 0 -89 0z" fill="rgba(217, 82, 82, 0.88)"></path><path d="M1319.7 276.54 A43.496 43.496 0 0 1 1356.81 209.05M1356.81 209.05 A88.992 88.992 0 0 0 1319.7 276.54" fill="rgba(196, 43, 43, 0.88)" fill-rule="nonzero"></path><path d="M1354.52 236.51 a8.9 8.9 0 1 0 17.8 0 a8.9 8.9 0 1 0 -17.8 0zM1328.83 263.91 a8.9 8.9 0 1 0 17.8 0 a8.9 8.9 0 1 0 -17.8 0zM1314.98 243.13 a5.78 5.78 0 1 0 11.56 0 a5.78 5.78 0 1 0 -11.56 0zM1381.09 250.97 a8.9 8.9 0 1 0 17.8 0 a8.9 8.9 0 1 0 -17.8 0zM1329.29 220.8 a2.67 2.67 0 1 0 5.34 0 a2.67 2.67 0 1 0 -5.34 0zM1339.12 234.49 a3.11 3.11 0 1 0 6.22 0 a3.11 3.11 0 1 0 -6.22 0zM1377.67 223.64 a5.34 5.34 0 1 0 10.68 0 a5.34 5.34 0 1 0 -10.68 0zM1338.61 286.57 a5.78 5.78 0 1 0 11.56 0 a5.78 5.78 0 1 0 -11.56 0zM1364.04 259.73 a4.89 4.89 0 1 0 9.78 0 a4.89 4.89 0 1 0 -9.78 0zM1357.49 216.7 a2.22 2.22 0 1 0 4.44 0 a2.22 2.22 0 1 0 -4.44 0z" fill="rgba(196, 43, 43, 0.88)" fill-rule="nonzero"></path><path d="M953.95 176.44L953.95 178.3L968.89 178.3L968.89 176.44zM965.59 177.37 a3.3 3.3 0 1 0 6.6 0 a3.3 3.3 0 1 0 -6.6 0zM951.6 190.13L950.88 191.85L964.74 197.59L965.45 195.87zM961.8 196.73 a3.3 3.3 0 1 0 6.6 0 a3.3 3.3 0 1 0 -6.6 0zM944.18 201.88L942.87 203.19L949.58 209.91L950.9 208.59zM946.94 209.25 a3.3 3.3 0 1 0 6.6 0 a3.3 3.3 0 1 0 -6.6 0zM932.84 209.89L931.12 210.6L937.17 225.21L938.89 224.5zM934.73 224.85 a3.3 3.3 0 1 0 6.6 0 a3.3 3.3 0 1 0 -6.6 0zM919.29 212.96L917.43 212.96L917.43 221.28L919.29 221.28zM915.06 221.28 a3.3 3.3 0 1 0 6.6 0 a3.3 3.3 0 1 0 -6.6 0zM905.61 210.6L903.88 209.89L898.79 222.18L900.52 222.89zM896.36 222.54 a3.3 3.3 0 1 0 6.6 0 a3.3 3.3 0 1 0 -6.6 0zM893.86 203.19L892.54 201.88L882.76 211.65L884.08 212.97zM880.12 212.31 a3.3 3.3 0 1 0 6.6 0 a3.3 3.3 0 1 0 -6.6 0zM885.84 191.85L885.13 190.13L875.53 194.1L876.24 195.83zM872.59 194.97 a3.3 3.3 0 1 0 6.6 0 a3.3 3.3 0 1 0 -6.6 0zM882.78 178.3L882.78 176.44L873.87 176.44L873.87 178.3zM870.57 177.37 a3.3 3.3 0 1 0 6.6 0 a3.3 3.3 0 1 0 -6.6 0zM885.13 164.62L885.84 162.89L874.58 158.23L873.87 159.95zM870.92 159.09 a3.3 3.3 0 1 0 6.6 0 a3.3 3.3 0 1 0 -6.6 0zM892.54 152.87L893.86 151.55L888.57 146.26L887.25 147.58zM884.61 146.92 a3.3 3.3 0 1 0 6.6 0 a3.3 3.3 0 1 0 -6.6 0zM903.88 144.85L905.61 144.14L900.87 132.71L899.15 133.42zM896.71 133.07 a3.3 3.3 0 1 0 6.6 0 a3.3 3.3 0 1 0 -6.6 0zM917.43 141.79L919.29 141.79L919.29 130.64L917.43 130.64zM915.06 130.64 a3.3 3.3 0 1 0 6.6 0 a3.3 3.3 0 1 0 -6.6 0zM931.12 144.14L932.84 144.85L935.77 137.78L934.05 137.07zM931.61 137.43 a3.3 3.3 0 1 0 6.6 0 a3.3 3.3 0 1 0 -6.6 0zM942.87 151.55L944.18 152.87L956.2 140.85L954.88 139.54zM952.24 140.2 a3.3 3.3 0 1 0 6.6 0 a3.3 3.3 0 1 0 -6.6 0zM950.88 162.89L951.6 164.62L955.98 162.8L955.27 161.08zM952.33 161.94 a3.3 3.3 0 1 0 6.6 0 a3.3 3.3 0 1 0 -6.6 0zM882.76 177.37 a35.6 35.6 0 1 0 71.2 0 a35.6 35.6 0 1 0 -71.2 0z" fill="rgba(217, 82, 82, 0.88)"></path><path d="M907.71 211.34 A34.5968 34.5968 0 0 1 894.22 151.22M894.22 151.22 A71.1936 71.1936 0 0 0 907.71 211.34" fill="rgba(196, 43, 43, 0.88)" fill-rule="nonzero"></path><path d="M919.72 170.45 a7.12 7.12 0 1 0 14.24 0 a7.12 7.12 0 1 0 -14.24 0zM889.46 179.47 a7.12 7.12 0 1 0 14.24 0 a7.12 7.12 0 1 0 -14.24 0zM898.99 201.76 a7.12 7.12 0 1 0 14.24 0 a7.12 7.12 0 1 0 -14.24 0zM920.82 207.62 a4.27 4.27 0 1 0 8.54 0 a4.27 4.27 0 1 0 -8.54 0zM920.98 186.21 a1.78 1.78 0 1 0 3.56 0 a1.78 1.78 0 1 0 -3.56 0zM901.15 156.66 a7.12 7.12 0 1 0 14.24 0 a7.12 7.12 0 1 0 -14.24 0zM936.05 183.04 a2.85 2.85 0 1 0 5.7 0 a2.85 2.85 0 1 0 -5.7 0zM921.21 149.34 a4.27 4.27 0 1 0 8.54 0 a4.27 4.27 0 1 0 -8.54 0zM937.34 153.86 a3.2 3.2 0 1 0 6.4 0 a3.2 3.2 0 1 0 -6.4 0zM944.36 193.77 a2.49 2.49 0 1 0 4.98 0 a2.49 2.49 0 1 0 -4.98 0z" fill="rgba(196, 43, 43, 0.88)" fill-rule="nonzero"></path><path d="M1047.42 479.91L1047.42 481.78L1054.47 481.78L1054.47 479.91zM1051.17 480.85 a3.3 3.3 0 1 0 6.6 0 a3.3 3.3 0 1 0 -6.6 0zM1045.06 493.6L1044.35 495.32L1052.88 498.86L1053.59 497.14zM1049.93 498 a3.3 3.3 0 1 0 6.6 0 a3.3 3.3 0 1 0 -6.6 0zM1037.65 505.35L1036.33 506.67L1044.21 514.54L1045.53 513.23zM1041.57 513.89 a3.3 3.3 0 1 0 6.6 0 a3.3 3.3 0 1 0 -6.6 0zM1026.31 513.37L1024.59 514.08L1027.57 521.28L1029.29 520.56zM1025.13 520.92 a3.3 3.3 0 1 0 6.6 0 a3.3 3.3 0 1 0 -6.6 0zM1012.76 516.43L1010.9 516.43L1010.9 529.22L1012.76 529.22zM1008.53 529.22 a3.3 3.3 0 1 0 6.6 0 a3.3 3.3 0 1 0 -6.6 0zM999.07 514.08L997.35 513.37L994.63 519.94L996.35 520.66zM992.19 520.3 a3.3 3.3 0 1 0 6.6 0 a3.3 3.3 0 1 0 -6.6 0zM987.33 506.67L986.01 505.35L982.74 508.62L984.05 509.94zM980.09 509.28 a3.3 3.3 0 1 0 6.6 0 a3.3 3.3 0 1 0 -6.6 0zM979.31 495.32L978.6 493.6L969.18 497.5L969.9 499.22zM966.24 498.36 a3.3 3.3 0 1 0 6.6 0 a3.3 3.3 0 1 0 -6.6 0zM976.25 481.78L976.25 479.91L964.08 479.91L964.08 481.78zM960.78 480.85 a3.3 3.3 0 1 0 6.6 0 a3.3 3.3 0 1 0 -6.6 0zM978.6 468.09L979.31 466.37L965.09 460.48L964.38 462.2zM961.44 461.34 a3.3 3.3 0 1 0 6.6 0 a3.3 3.3 0 1 0 -6.6 0zM986.01 456.34L987.33 455.03L979.75 447.44L978.43 448.76zM975.79 448.1 a3.3 3.3 0 1 0 6.6 0 a3.3 3.3 0 1 0 -6.6 0zM997.35 448.33L999.07 447.61L993.68 434.59L991.96 435.3zM989.52 434.94 a3.3 3.3 0 1 0 6.6 0 a3.3 3.3 0 1 0 -6.6 0zM1010.9 445.26L1012.76 445.26L1012.76 440.12L1010.9 440.12zM1008.53 440.12 a3.3 3.3 0 1 0 6.6 0 a3.3 3.3 0 1 0 -6.6 0zM1024.59 447.61L1026.31 448.33L1032.07 434.41L1030.35 433.7zM1027.91 434.06 a3.3 3.3 0 1 0 6.6 0 a3.3 3.3 0 1 0 -6.6 0zM1036.33 455.03L1037.65 456.34L1047.85 446.15L1046.53 444.83zM1043.89 445.49 a3.3 3.3 0 1 0 6.6 0 a3.3 3.3 0 1 0 -6.6 0zM1044.35 466.37L1045.06 468.09L1059.31 462.19L1058.6 460.47zM1055.65 461.33 a3.3 3.3 0 1 0 6.6 0 a3.3 3.3 0 1 0 -6.6 0zM976.23 480.85 a35.6 35.6 0 1 0 71.2 0 a35.6 35.6 0 1 0 -71.2 0z" fill="rgba(217, 82, 82, 0.88)"></path><path d="M1021.71 515.04 A34.5968 34.5968 0 0 1 977.26 472.38M977.26 472.38 A71.1936 71.1936 0 0 0 1021.71 515.04" fill="rgba(196, 43, 43, 0.88)" fill-rule="nonzero"></path><path d="M1021.77 456.98 a6.41 6.41 0 1 0 12.82 0 a6.41 6.41 0 1 0 -12.82 0zM987.4 469.9 a7.12 7.12 0 1 0 14.24 0 a7.12 7.12 0 1 0 -14.24 0zM1007.37 507.79 a7.12 7.12 0 1 0 14.24 0 a7.12 7.12 0 1 0 -14.24 0zM987.26 503.81 a5.7 5.7 0 1 0 11.4 0 a5.7 5.7 0 1 0 -11.4 0zM1025.84 484.25 a7.12 7.12 0 1 0 14.24 0 a7.12 7.12 0 1 0 -14.24 0zM991.98 487.75 a3.2 3.2 0 1 0 6.4 0 a3.2 3.2 0 1 0 -6.4 0zM1008.38 473.91 a3.56 3.56 0 1 0 7.12 0 a3.56 3.56 0 1 0 -7.12 0zM1038.33 468.64 a3.2 3.2 0 1 0 6.4 0 a3.2 3.2 0 1 0 -6.4 0zM979.55 484.53 a2.85 2.85 0 1 0 5.7 0 a2.85 2.85 0 1 0 -5.7 0zM1003.9 449.7 a3.92 3.92 0 1 0 7.84 0 a3.92 3.92 0 1 0 -7.84 0z" fill="rgba(196, 43, 43, 0.88)" fill-rule="nonzero"></path></g><defs><mask id="SvgjsMask1002"><rect width="1440" height="560" fill="#ffffff"></rect></mask></defs></svg>