<svg xmlns="http://www.w3.org/2000/svg" version="1.1" xmlns:xlink="http://www.w3.org/1999/xlink" xmlns:svgjs="http://svgjs.dev/svgjs" width="1084" height="322" preserveAspectRatio="none" viewBox="0 0 1084 322"><g mask="url(&quot;#SvgjsMask1495&quot;)" fill="none"><g mask="url(&quot;#SvgjsMask1496&quot;)"><path d="M1050 126L954 30L954 6" stroke-width="2" stroke="rgba(255, 0, 0, 0.65)"></path><path d="M1047 126 a3 3 0 1 0 6 0 a3 3 0 1 0 -6 0zM951 6 a3 3 0 1 0 6 0 a3 3 0 1 0 -6 0z" fill="rgba(255, 0, 0, 0.65)"></path><path d="M18 306L42 282L42 210L6 174L6 126L54 78" stroke-width="2" stroke="rgba(255, 0, 0, 0.65)"></path><path d="M15 306 a3 3 0 1 0 6 0 a3 3 0 1 0 -6 0zM51 78 a3 3 0 1 0 6 0 a3 3 0 1 0 -6 0z" fill="rgba(255, 0, 0, 0.65)"></path><path d="M810 78L798 66L798 42L774 18L654 18L606 66" stroke-width="2" stroke="rgba(255, 0, 0, 0.65)"></path><path d="M807 78 a3 3 0 1 0 6 0 a3 3 0 1 0 -6 0zM603 66 a3 3 0 1 0 6 0 a3 3 0 1 0 -6 0z" fill="rgba(255, 0, 0, 0.65)"></path><path d="M402 198L402 6" stroke-width="2" stroke="rgba(255, 0, 0, 0.65)"></path><path d="M399 198 a3 3 0 1 0 6 0 a3 3 0 1 0 -6 0zM399 6 a3 3 0 1 0 6 0 a3 3 0 1 0 -6 0z" fill="rgba(255, 0, 0, 0.65)"></path><path d="M594 114L594 6" stroke-width="2" stroke="rgba(255, 0, 0, 0.65)"></path><path d="M591 114 a3 3 0 1 0 6 0 a3 3 0 1 0 -6 0zM591 6 a3 3 0 1 0 6 0 a3 3 0 1 0 -6 0z" fill="rgba(255, 0, 0, 0.65)"></path><path d="M198 102L198 258L138 318L126 318" stroke-width="2" stroke="rgba(255, 0, 0, 0.65)"></path><path d="M195 102 a3 3 0 1 0 6 0 a3 3 0 1 0 -6 0zM123 318 a3 3 0 1 0 6 0 a3 3 0 1 0 -6 0z" fill="rgba(255, 0, 0, 0.65)"></path><path d="M894 6L930 42L954 42L978 66L978 78L990 90L1002 90L1086 174L1086 198" stroke-width="2" stroke="rgba(255, 0, 0, 0.65)"></path><path d="M891 6 a3 3 0 1 0 6 0 a3 3 0 1 0 -6 0zM1083 198 a3 3 0 1 0 6 0 a3 3 0 1 0 -6 0z" fill="rgba(255, 0, 0, 0.65)"></path><path d="M630 138L858 138" stroke-width="2" stroke="rgba(255, 0, 0, 0.65)"></path><path d="M627 138 a3 3 0 1 0 6 0 a3 3 0 1 0 -6 0zM855 138 a3 3 0 1 0 6 0 a3 3 0 1 0 -6 0z" fill="rgba(255, 0, 0, 0.65)"></path><path d="M930 54L846 54L798 6L702 6" stroke-width="2" stroke="rgba(255, 0, 0, 0.65)"></path><path d="M927 54 a3 3 0 1 0 6 0 a3 3 0 1 0 -6 0zM699 6 a3 3 0 1 0 6 0 a3 3 0 1 0 -6 0z" fill="rgba(255, 0, 0, 0.65)"></path><path d="M474 102L474 78L510 42L582 42" stroke-width="2" stroke="rgba(255, 0, 0, 0.65)"></path><path d="M471 102 a3 3 0 1 0 6 0 a3 3 0 1 0 -6 0zM579 42 a3 3 0 1 0 6 0 a3 3 0 1 0 -6 0z" fill="rgba(255, 0, 0, 0.65)"></path><path d="M6 114L114 6L234 6" stroke-width="2" stroke="rgba(255, 0, 0, 0.65)"></path><path d="M3 114 a3 3 0 1 0 6 0 a3 3 0 1 0 -6 0zM231 6 a3 3 0 1 0 6 0 a3 3 0 1 0 -6 0z" fill="rgba(255, 0, 0, 0.65)"></path><path d="M1014 150L1014 114L1002 102L822 102" stroke-width="2" stroke="rgba(255, 0, 0, 0.65)"></path><path d="M1011 150 a3 3 0 1 0 6 0 a3 3 0 1 0 -6 0zM819 102 a3 3 0 1 0 6 0 a3 3 0 1 0 -6 0z" fill="rgba(255, 0, 0, 0.65)"></path><path d="M78 126L18 126" stroke-width="2" stroke="rgba(255, 0, 0, 0.65)"></path><path d="M75 126 a3 3 0 1 0 6 0 a3 3 0 1 0 -6 0zM15 126 a3 3 0 1 0 6 0 a3 3 0 1 0 -6 0z" fill="rgba(255, 0, 0, 0.65)"></path><path d="M186 186L126 186L66 246L54 246" stroke-width="2" stroke="rgba(255, 0, 0, 0.65)"></path><path d="M183 186 a3 3 0 1 0 6 0 a3 3 0 1 0 -6 0zM51 246 a3 3 0 1 0 6 0 a3 3 0 1 0 -6 0z" fill="rgba(255, 0, 0, 0.65)"></path><path d="M846 258L1026 258L1050 234L1074 234" stroke-width="2" stroke="rgba(255, 0, 0, 0.65)"></path><path d="M843 258 a3 3 0 1 0 6 0 a3 3 0 1 0 -6 0zM1071 234 a3 3 0 1 0 6 0 a3 3 0 1 0 -6 0z" fill="rgba(255, 0, 0, 0.65)"></path><path d="M762 258L822 258L846 234L846 150" stroke-width="2" stroke="rgba(255, 0, 0, 0.65)"></path><path d="M759 258 a3 3 0 1 0 6 0 a3 3 0 1 0 -6 0zM843 150 a3 3 0 1 0 6 0 a3 3 0 1 0 -6 0z" fill="rgba(255, 0, 0, 0.65)"></path><path d="M810 42L786 18" stroke-width="2" stroke="rgba(255, 0, 0, 0.65)"></path><path d="M807 42 a3 3 0 1 0 6 0 a3 3 0 1 0 -6 0zM783 18 a3 3 0 1 0 6 0 a3 3 0 1 0 -6 0z" fill="rgba(255, 0, 0, 0.65)"></path><path d="M246 150L414 318L474 318" stroke-width="2" stroke="rgba(255, 0, 0, 0.65)"></path><path d="M243 150 a3 3 0 1 0 6 0 a3 3 0 1 0 -6 0zM471 318 a3 3 0 1 0 6 0 a3 3 0 1 0 -6 0z" fill="rgba(255, 0, 0, 0.65)"></path><path d="M294 186L126 18L114 18L66 66" stroke-width="2" stroke="rgba(255, 0, 0, 0.65)"></path><path d="M291 186 a3 3 0 1 0 6 0 a3 3 0 1 0 -6 0zM63 66 a3 3 0 1 0 6 0 a3 3 0 1 0 -6 0z" fill="rgba(255, 0, 0, 0.65)"></path><path d="M1014 174L966 126L786 126" stroke-width="2" stroke="rgba(255, 0, 0, 0.65)"></path><path d="M1011 174 a3 3 0 1 0 6 0 a3 3 0 1 0 -6 0zM783 126 a3 3 0 1 0 6 0 a3 3 0 1 0 -6 0z" fill="rgba(255, 0, 0, 0.65)"></path><path d="M198 42L330 174L390 174" stroke-width="2" stroke="rgba(255, 0, 0, 0.65)"></path><path d="M195 42 a3 3 0 1 0 6 0 a3 3 0 1 0 -6 0zM387 174 a3 3 0 1 0 6 0 a3 3 0 1 0 -6 0z" fill="rgba(255, 0, 0, 0.65)"></path><path d="M786 270L738 270L690 318L558 318" stroke-width="2" stroke="rgba(255, 0, 0, 0.65)"></path><path d="M783 270 a3 3 0 1 0 6 0 a3 3 0 1 0 -6 0zM555 318 a3 3 0 1 0 6 0 a3 3 0 1 0 -6 0z" fill="rgba(255, 0, 0, 0.65)"></path><path d="M1062 210L1086 234L1086 282L1050 318L930 318" stroke-width="2" stroke="rgba(255, 0, 0, 0.65)"></path><path d="M1059 210 a3 3 0 1 0 6 0 a3 3 0 1 0 -6 0zM927 318 a3 3 0 1 0 6 0 a3 3 0 1 0 -6 0z" fill="rgba(255, 0, 0, 0.65)"></path><path d="M498 114L438 114L426 102L426 6" stroke-width="2" stroke="rgba(255, 0, 0, 0.65)"></path><path d="M495 114 a3 3 0 1 0 6 0 a3 3 0 1 0 -6 0zM423 6 a3 3 0 1 0 6 0 a3 3 0 1 0 -6 0z" fill="rgba(255, 0, 0, 0.65)"></path><path d="M330 126L330 138L354 162L366 162L390 138L390 102L294 6L270 6" stroke-width="2" stroke="rgba(255, 0, 0, 0.65)"></path><path d="M327 126 a3 3 0 1 0 6 0 a3 3 0 1 0 -6 0zM267 6 a3 3 0 1 0 6 0 a3 3 0 1 0 -6 0z" fill="rgba(255, 0, 0, 0.65)"></path><path d="M66 138L66 234" stroke-width="2" stroke="rgba(255, 0, 0, 0.65)"></path><path d="M63 138 a3 3 0 1 0 6 0 a3 3 0 1 0 -6 0zM63 234 a3 3 0 1 0 6 0 a3 3 0 1 0 -6 0z" fill="rgba(255, 0, 0, 0.65)"></path><path d="M342 186L342 234L414 306L522 306" stroke-width="2" stroke="rgba(255, 0, 0, 0.65)"></path><path d="M339 186 a3 3 0 1 0 6 0 a3 3 0 1 0 -6 0zM519 306 a3 3 0 1 0 6 0 a3 3 0 1 0 -6 0z" fill="rgba(255, 0, 0, 0.65)"></path><path d="M882 306L870 318L762 318L738 294L726 294L714 306L714 318" stroke-width="2" stroke="rgba(255, 0, 0, 0.65)"></path><path d="M879 306 a3 3 0 1 0 6 0 a3 3 0 1 0 -6 0zM711 318 a3 3 0 1 0 6 0 a3 3 0 1 0 -6 0z" fill="rgba(255, 0, 0, 0.65)"></path><path d="M750 54L774 30" stroke-width="2" stroke="rgba(255, 0, 0, 0.65)"></path><path d="M747 54 a3 3 0 1 0 6 0 a3 3 0 1 0 -6 0zM771 30 a3 3 0 1 0 6 0 a3 3 0 1 0 -6 0z" fill="rgba(255, 0, 0, 0.65)"></path><path d="M318 126L246 54L222 54L186 18L138 18" stroke-width="2" stroke="rgba(255, 0, 0, 0.65)"></path><path d="M315 126 a3 3 0 1 0 6 0 a3 3 0 1 0 -6 0zM135 18 a3 3 0 1 0 6 0 a3 3 0 1 0 -6 0z" fill="rgba(255, 0, 0, 0.65)"></path><path d="M810 66L810 54L822 42" stroke-width="2" stroke="rgba(255, 0, 0, 0.65)"></path><path d="M807 66 a3 3 0 1 0 6 0 a3 3 0 1 0 -6 0zM819 42 a3 3 0 1 0 6 0 a3 3 0 1 0 -6 0z" fill="rgba(255, 0, 0, 0.65)"></path><path d="M630 246L630 222L702 150L834 150" stroke-width="2" stroke="rgba(255, 0, 0, 0.65)"></path><path d="M627 246 a3 3 0 1 0 6 0 a3 3 0 1 0 -6 0zM831 150 a3 3 0 1 0 6 0 a3 3 0 1 0 -6 0z" fill="rgba(255, 0, 0, 0.65)"></path><path d="M930 210L942 210L954 198L954 138" stroke-width="2" stroke="rgba(255, 0, 0, 0.65)"></path><path d="M927 210 a3 3 0 1 0 6 0 a3 3 0 1 0 -6 0zM951 138 a3 3 0 1 0 6 0 a3 3 0 1 0 -6 0z" fill="rgba(255, 0, 0, 0.65)"></path><path d="M870 186L942 186" stroke-width="2" stroke="rgba(255, 0, 0, 0.65)"></path><path d="M867 186 a3 3 0 1 0 6 0 a3 3 0 1 0 -6 0zM939 186 a3 3 0 1 0 6 0 a3 3 0 1 0 -6 0z" fill="rgba(255, 0, 0, 0.65)"></path><path d="M18 270L6 282L6 318" stroke-width="2" stroke="rgba(255, 0, 0, 0.65)"></path><path d="M15 270 a3 3 0 1 0 6 0 a3 3 0 1 0 -6 0zM3 318 a3 3 0 1 0 6 0 a3 3 0 1 0 -6 0z" fill="rgba(255, 0, 0, 0.65)"></path><path d="M42 114L162 114L186 138L186 174" stroke-width="2" stroke="rgba(255, 0, 0, 0.65)"></path><path d="M39 114 a3 3 0 1 0 6 0 a3 3 0 1 0 -6 0zM183 174 a3 3 0 1 0 6 0 a3 3 0 1 0 -6 0z" fill="rgba(255, 0, 0, 0.65)"></path><path d="M186 30L150 30" stroke-width="2" stroke="rgba(255, 0, 0, 0.65)"></path><path d="M183 30 a3 3 0 1 0 6 0 a3 3 0 1 0 -6 0zM147 30 a3 3 0 1 0 6 0 a3 3 0 1 0 -6 0z" fill="rgba(255, 0, 0, 0.65)"></path><path d="M558 150L582 126L774 126L786 114" stroke-width="2" stroke="rgba(255, 0, 0, 0.65)"></path><path d="M555 150 a3 3 0 1 0 6 0 a3 3 0 1 0 -6 0zM783 114 a3 3 0 1 0 6 0 a3 3 0 1 0 -6 0z" fill="rgba(255, 0, 0, 0.65)"></path><path d="M150 318L270 198L270 186L234 150L234 138L222 126L210 126" stroke-width="2" stroke="rgba(255, 0, 0, 0.65)"></path><path d="M147 318 a3 3 0 1 0 6 0 a3 3 0 1 0 -6 0zM207 126 a3 3 0 1 0 6 0 a3 3 0 1 0 -6 0z" fill="rgba(255, 0, 0, 0.65)"></path><path d="M510 138L498 126L414 126" stroke-width="2" stroke="rgba(255, 0, 0, 0.65)"></path><path d="M507 138 a3 3 0 1 0 6 0 a3 3 0 1 0 -6 0zM411 126 a3 3 0 1 0 6 0 a3 3 0 1 0 -6 0z" fill="rgba(255, 0, 0, 0.65)"></path><path d="M882 282L858 306L822 306L798 282L738 282" stroke-width="2" stroke="rgba(255, 0, 0, 0.65)"></path><path d="M879 282 a3 3 0 1 0 6 0 a3 3 0 1 0 -6 0zM735 282 a3 3 0 1 0 6 0 a3 3 0 1 0 -6 0z" fill="rgba(255, 0, 0, 0.65)"></path><path d="M942 282L894 282L882 294" stroke-width="2" stroke="rgba(255, 0, 0, 0.65)"></path><path d="M939 282 a3 3 0 1 0 6 0 a3 3 0 1 0 -6 0zM879 294 a3 3 0 1 0 6 0 a3 3 0 1 0 -6 0z" fill="rgba(255, 0, 0, 0.65)"></path><path d="M762 186L774 174L774 162" stroke-width="2" stroke="rgba(255, 0, 0, 0.65)"></path><path d="M759 186 a3 3 0 1 0 6 0 a3 3 0 1 0 -6 0zM771 162 a3 3 0 1 0 6 0 a3 3 0 1 0 -6 0z" fill="rgba(255, 0, 0, 0.65)"></path><path d="M870 222L882 210L882 198" stroke-width="2" stroke="rgba(255, 0, 0, 0.65)"></path><path d="M867 222 a3 3 0 1 0 6 0 a3 3 0 1 0 -6 0zM879 198 a3 3 0 1 0 6 0 a3 3 0 1 0 -6 0z" fill="rgba(255, 0, 0, 0.65)"></path><path d="M618 282L738 162L762 162" stroke-width="2" stroke="rgba(255, 0, 0, 0.65)"></path><path d="M615 282 a3 3 0 1 0 6 0 a3 3 0 1 0 -6 0zM759 162 a3 3 0 1 0 6 0 a3 3 0 1 0 -6 0z" fill="rgba(255, 0, 0, 0.65)"></path><path d="M534 126L486 78" stroke-width="2" stroke="rgba(255, 0, 0, 0.65)"></path><path d="M531 126 a3 3 0 1 0 6 0 a3 3 0 1 0 -6 0zM483 78 a3 3 0 1 0 6 0 a3 3 0 1 0 -6 0z" fill="rgba(255, 0, 0, 0.65)"></path><path d="M330 78L330 114L366 150" stroke-width="2" stroke="rgba(255, 0, 0, 0.65)"></path><path d="M327 78 a3 3 0 1 0 6 0 a3 3 0 1 0 -6 0zM363 150 a3 3 0 1 0 6 0 a3 3 0 1 0 -6 0z" fill="rgba(255, 0, 0, 0.65)"></path><path d="M786 174L798 162L834 162" stroke-width="2" stroke="rgba(255, 0, 0, 0.65)"></path><path d="M783 174 a3 3 0 1 0 6 0 a3 3 0 1 0 -6 0zM831 162 a3 3 0 1 0 6 0 a3 3 0 1 0 -6 0z" fill="rgba(255, 0, 0, 0.65)"></path><path d="M342 270L342 258L282 198" stroke-width="2" stroke="rgba(255, 0, 0, 0.65)"></path><path d="M339 270 a3 3 0 1 0 6 0 a3 3 0 1 0 -6 0zM279 198 a3 3 0 1 0 6 0 a3 3 0 1 0 -6 0z" fill="rgba(255, 0, 0, 0.65)"></path><path d="M930 66L822 66" stroke-width="2" stroke="rgba(255, 0, 0, 0.65)"></path><path d="M927 66 a3 3 0 1 0 6 0 a3 3 0 1 0 -6 0zM819 66 a3 3 0 1 0 6 0 a3 3 0 1 0 -6 0z" fill="rgba(255, 0, 0, 0.65)"></path><path d="M978 162L966 174L966 222L990 246L1014 246L1038 222L1062 222" stroke-width="2" stroke="rgba(255, 0, 0, 0.65)"></path><path d="M975 162 a3 3 0 1 0 6 0 a3 3 0 1 0 -6 0zM1059 222 a3 3 0 1 0 6 0 a3 3 0 1 0 -6 0z" fill="rgba(255, 0, 0, 0.65)"></path><path d="M30 258L30 246L6 222L6 210" stroke-width="2" stroke="rgba(255, 0, 0, 0.65)"></path><path d="M27 258 a3 3 0 1 0 6 0 a3 3 0 1 0 -6 0zM3 210 a3 3 0 1 0 6 0 a3 3 0 1 0 -6 0z" fill="rgba(255, 0, 0, 0.65)"></path><path d="M798 198L702 294L642 294L630 282" stroke-width="2" stroke="rgba(255, 0, 0, 0.65)"></path><path d="M795 198 a3 3 0 1 0 6 0 a3 3 0 1 0 -6 0zM627 282 a3 3 0 1 0 6 0 a3 3 0 1 0 -6 0z" fill="rgba(255, 0, 0, 0.65)"></path><path d="M546 282L570 306L690 306" stroke-width="2" stroke="rgba(255, 0, 0, 0.65)"></path><path d="M543 282 a3 3 0 1 0 6 0 a3 3 0 1 0 -6 0zM687 306 a3 3 0 1 0 6 0 a3 3 0 1 0 -6 0z" fill="rgba(255, 0, 0, 0.65)"></path><path d="M546 126L546 78L570 54L582 54" stroke-width="2" stroke="rgba(255, 0, 0, 0.65)"></path><path d="M543 126 a3 3 0 1 0 6 0 a3 3 0 1 0 -6 0zM579 54 a3 3 0 1 0 6 0 a3 3 0 1 0 -6 0z" fill="rgba(255, 0, 0, 0.65)"></path><path d="M606 222L654 174L654 150" stroke-width="2" stroke="rgba(255, 0, 0, 0.65)"></path><path d="M603 222 a3 3 0 1 0 6 0 a3 3 0 1 0 -6 0zM651 150 a3 3 0 1 0 6 0 a3 3 0 1 0 -6 0z" fill="rgba(255, 0, 0, 0.65)"></path><path d="M270 222L258 222L162 318" stroke-width="2" stroke="rgba(255, 0, 0, 0.65)"></path><path d="M267 222 a3 3 0 1 0 6 0 a3 3 0 1 0 -6 0zM159 318 a3 3 0 1 0 6 0 a3 3 0 1 0 -6 0z" fill="rgba(255, 0, 0, 0.65)"></path><path d="M126 126L90 126L78 138L78 186L90 198L102 198L162 138L174 138" stroke-width="2" stroke="rgba(255, 0, 0, 0.65)"></path><path d="M123 126 a3 3 0 1 0 6 0 a3 3 0 1 0 -6 0zM171 138 a3 3 0 1 0 6 0 a3 3 0 1 0 -6 0z" fill="rgba(255, 0, 0, 0.65)"></path><path d="M6 18L6 102" stroke-width="2" stroke="rgba(255, 0, 0, 0.65)"></path><path d="M3 18 a3 3 0 1 0 6 0 a3 3 0 1 0 -6 0zM3 102 a3 3 0 1 0 6 0 a3 3 0 1 0 -6 0z" fill="rgba(255, 0, 0, 0.65)"></path><path d="M210 90L162 42" stroke-width="2" stroke="rgba(255, 0, 0, 0.65)"></path><path d="M207 90 a3 3 0 1 0 6 0 a3 3 0 1 0 -6 0zM159 42 a3 3 0 1 0 6 0 a3 3 0 1 0 -6 0z" fill="rgba(255, 0, 0, 0.65)"></path><path d="M174 222L126 222L30 318L18 318" stroke-width="2" stroke="rgba(255, 0, 0, 0.65)"></path><path d="M171 222 a3 3 0 1 0 6 0 a3 3 0 1 0 -6 0zM15 318 a3 3 0 1 0 6 0 a3 3 0 1 0 -6 0z" fill="rgba(255, 0, 0, 0.65)"></path><path d="M990 18L1074 18L1086 30L1086 162" stroke-width="2" stroke="rgba(255, 0, 0, 0.65)"></path><path d="M987 18 a3 3 0 1 0 6 0 a3 3 0 1 0 -6 0zM1083 162 a3 3 0 1 0 6 0 a3 3 0 1 0 -6 0z" fill="rgba(255, 0, 0, 0.65)"></path><path d="M498 198L510 186L510 150L522 138L558 138L582 114L582 66" stroke-width="2" stroke="rgba(255, 0, 0, 0.65)"></path><path d="M495 198 a3 3 0 1 0 6 0 a3 3 0 1 0 -6 0zM579 66 a3 3 0 1 0 6 0 a3 3 0 1 0 -6 0z" fill="rgba(255, 0, 0, 0.65)"></path><path d="M654 78L630 54" stroke-width="2" stroke="rgba(255, 0, 0, 0.65)"></path><path d="M651 78 a3 3 0 1 0 6 0 a3 3 0 1 0 -6 0zM627 54 a3 3 0 1 0 6 0 a3 3 0 1 0 -6 0z" fill="rgba(255, 0, 0, 0.65)"></path><path d="M318 258L378 318L402 318" stroke-width="2" stroke="rgba(255, 0, 0, 0.65)"></path><path d="M315 258 a3 3 0 1 0 6 0 a3 3 0 1 0 -6 0zM399 318 a3 3 0 1 0 6 0 a3 3 0 1 0 -6 0z" fill="rgba(255, 0, 0, 0.65)"></path><path d="M606 78L618 66L630 66L666 102L666 114" stroke-width="2" stroke="rgba(255, 0, 0, 0.65)"></path><path d="M603 78 a3 3 0 1 0 6 0 a3 3 0 1 0 -6 0zM663 114 a3 3 0 1 0 6 0 a3 3 0 1 0 -6 0z" fill="rgba(255, 0, 0, 0.65)"></path><path d="M126 246L126 306L114 318L42 318" stroke-width="2" stroke="rgba(255, 0, 0, 0.65)"></path><path d="M123 246 a3 3 0 1 0 6 0 a3 3 0 1 0 -6 0zM39 318 a3 3 0 1 0 6 0 a3 3 0 1 0 -6 0z" fill="rgba(255, 0, 0, 0.65)"></path><path d="M258 294L246 306L186 306L174 318" stroke-width="2" stroke="rgba(255, 0, 0, 0.65)"></path><path d="M255 294 a3 3 0 1 0 6 0 a3 3 0 1 0 -6 0zM171 318 a3 3 0 1 0 6 0 a3 3 0 1 0 -6 0z" fill="rgba(255, 0, 0, 0.65)"></path><path d="M282 282L210 282L198 294" stroke-width="2" stroke="rgba(255, 0, 0, 0.65)"></path><path d="M279 282 a3 3 0 1 0 6 0 a3 3 0 1 0 -6 0zM195 294 a3 3 0 1 0 6 0 a3 3 0 1 0 -6 0z" fill="rgba(255, 0, 0, 0.65)"></path><path d="M678 198L678 210L642 246" stroke-width="2" stroke="rgba(255, 0, 0, 0.65)"></path><path d="M675 198 a3 3 0 1 0 6 0 a3 3 0 1 0 -6 0zM639 246 a3 3 0 1 0 6 0 a3 3 0 1 0 -6 0z" fill="rgba(255, 0, 0, 0.65)"></path><path d="M318 42L306 54L258 54L246 42L246 18L258 6" stroke-width="2" stroke="rgba(255, 0, 0, 0.65)"></path><path d="M315 42 a3 3 0 1 0 6 0 a3 3 0 1 0 -6 0zM255 6 a3 3 0 1 0 6 0 a3 3 0 1 0 -6 0z" fill="rgba(255, 0, 0, 0.65)"></path><path d="M582 258L630 258" stroke-width="2" stroke="rgba(255, 0, 0, 0.65)"></path><path d="M579 258 a3 3 0 1 0 6 0 a3 3 0 1 0 -6 0zM627 258 a3 3 0 1 0 6 0 a3 3 0 1 0 -6 0z" fill="rgba(255, 0, 0, 0.65)"></path><path d="M66 42L18 42" stroke-width="2" stroke="rgba(255, 0, 0, 0.65)"></path><path d="M63 42 a3 3 0 1 0 6 0 a3 3 0 1 0 -6 0zM15 42 a3 3 0 1 0 6 0 a3 3 0 1 0 -6 0z" fill="rgba(255, 0, 0, 0.65)"></path><path d="M498 210L450 258L378 258L354 234L354 186" stroke-width="2" stroke="rgba(255, 0, 0, 0.65)"></path><path d="M495 210 a3 3 0 1 0 6 0 a3 3 0 1 0 -6 0zM351 186 a3 3 0 1 0 6 0 a3 3 0 1 0 -6 0z" fill="rgba(255, 0, 0, 0.65)"></path><path d="M966 90L762 90L738 66" stroke-width="2" stroke="rgba(255, 0, 0, 0.65)"></path><path d="M963 90 a3 3 0 1 0 6 0 a3 3 0 1 0 -6 0zM735 66 a3 3 0 1 0 6 0 a3 3 0 1 0 -6 0z" fill="rgba(255, 0, 0, 0.65)"></path><path d="M522 270L510 282L510 294" stroke-width="2" stroke="rgba(255, 0, 0, 0.65)"></path><path d="M519 270 a3 3 0 1 0 6 0 a3 3 0 1 0 -6 0zM507 294 a3 3 0 1 0 6 0 a3 3 0 1 0 -6 0z" fill="rgba(255, 0, 0, 0.65)"></path><path d="M366 102L378 114L378 138" stroke-width="2" stroke="rgba(255, 0, 0, 0.65)"></path><path d="M363 102 a3 3 0 1 0 6 0 a3 3 0 1 0 -6 0zM375 138 a3 3 0 1 0 6 0 a3 3 0 1 0 -6 0z" fill="rgba(255, 0, 0, 0.65)"></path><path d="M414 66L414 6" stroke-width="2" stroke="rgba(255, 0, 0, 0.65)"></path><path d="M411 66 a3 3 0 1 0 6 0 a3 3 0 1 0 -6 0zM411 6 a3 3 0 1 0 6 0 a3 3 0 1 0 -6 0z" fill="rgba(255, 0, 0, 0.65)"></path><path d="M210 210L210 246" stroke-width="2" stroke="rgba(255, 0, 0, 0.65)"></path><path d="M207 210 a3 3 0 1 0 6 0 a3 3 0 1 0 -6 0zM207 246 a3 3 0 1 0 6 0 a3 3 0 1 0 -6 0z" fill="rgba(255, 0, 0, 0.65)"></path><path d="M1062 78L1074 66L1074 30" stroke-width="2" stroke="rgba(255, 0, 0, 0.65)"></path><path d="M1059 78 a3 3 0 1 0 6 0 a3 3 0 1 0 -6 0zM1071 30 a3 3 0 1 0 6 0 a3 3 0 1 0 -6 0z" fill="rgba(255, 0, 0, 0.65)"></path><path d="M486 294L546 234L546 150" stroke-width="2" stroke="rgba(255, 0, 0, 0.65)"></path><path d="M483 294 a3 3 0 1 0 6 0 a3 3 0 1 0 -6 0zM543 150 a3 3 0 1 0 6 0 a3 3 0 1 0 -6 0z" fill="rgba(255, 0, 0, 0.65)"></path><path d="M342 66L270 66" stroke-width="2" stroke="rgba(255, 0, 0, 0.65)"></path><path d="M339 66 a3 3 0 1 0 6 0 a3 3 0 1 0 -6 0zM267 66 a3 3 0 1 0 6 0 a3 3 0 1 0 -6 0z" fill="rgba(255, 0, 0, 0.65)"></path><path d="M822 6L870 6L906 42L918 42" stroke-width="2" stroke="rgba(255, 0, 0, 0.65)"></path><path d="M819 6 a3 3 0 1 0 6 0 a3 3 0 1 0 -6 0zM915 42 a3 3 0 1 0 6 0 a3 3 0 1 0 -6 0z" fill="rgba(255, 0, 0, 0.65)"></path><path d="M1062 42L1050 42L1038 30L966 30" stroke-width="2" stroke="rgba(255, 0, 0, 0.65)"></path><path d="M1059 42 a3 3 0 1 0 6 0 a3 3 0 1 0 -6 0zM963 30 a3 3 0 1 0 6 0 a3 3 0 1 0 -6 0z" fill="rgba(255, 0, 0, 0.65)"></path><path d="M726 78L726 30" stroke-width="2" stroke="rgba(255, 0, 0, 0.65)"></path><path d="M723 78 a3 3 0 1 0 6 0 a3 3 0 1 0 -6 0zM723 30 a3 3 0 1 0 6 0 a3 3 0 1 0 -6 0z" fill="rgba(255, 0, 0, 0.65)"></path><path d="M450 294L474 294L510 258L510 198L534 174L534 150" stroke-width="2" stroke="rgba(255, 0, 0, 0.65)"></path><path d="M447 294 a3 3 0 1 0 6 0 a3 3 0 1 0 -6 0zM531 150 a3 3 0 1 0 6 0 a3 3 0 1 0 -6 0z" fill="rgba(255, 0, 0, 0.65)"></path><path d="M294 222L294 294L318 318L366 318" stroke-width="2" stroke="rgba(255, 0, 0, 0.65)"></path><path d="M291 222 a3 3 0 1 0 6 0 a3 3 0 1 0 -6 0zM363 318 a3 3 0 1 0 6 0 a3 3 0 1 0 -6 0z" fill="rgba(255, 0, 0, 0.65)"></path><path d="M978 18L990 6L1086 6" stroke-width="2" stroke="rgba(255, 0, 0, 0.65)"></path><path d="M975 18 a3 3 0 1 0 6 0 a3 3 0 1 0 -6 0zM1083 6 a3 3 0 1 0 6 0 a3 3 0 1 0 -6 0z" fill="rgba(255, 0, 0, 0.65)"></path><path d="M918 114L798 114L786 102L726 102L714 114L690 114" stroke-width="2" stroke="rgba(255, 0, 0, 0.65)"></path><path d="M915 114 a3 3 0 1 0 6 0 a3 3 0 1 0 -6 0zM687 114 a3 3 0 1 0 6 0 a3 3 0 1 0 -6 0z" fill="rgba(255, 0, 0, 0.65)"></path><path d="M138 258L162 282" stroke-width="2" stroke="rgba(255, 0, 0, 0.65)"></path><path d="M135 258 a3 3 0 1 0 6 0 a3 3 0 1 0 -6 0zM159 282 a3 3 0 1 0 6 0 a3 3 0 1 0 -6 0z" fill="rgba(255, 0, 0, 0.65)"></path><path d="M978 210L990 198L1062 198L1074 186L1074 174L1026 126" stroke-width="2" stroke="rgba(255, 0, 0, 0.65)"></path><path d="M975 210 a3 3 0 1 0 6 0 a3 3 0 1 0 -6 0zM1023 126 a3 3 0 1 0 6 0 a3 3 0 1 0 -6 0z" fill="rgba(255, 0, 0, 0.65)"></path><path d="M438 246L498 186L498 138" stroke-width="2" stroke="rgba(255, 0, 0, 0.65)"></path><path d="M435 246 a3 3 0 1 0 6 0 a3 3 0 1 0 -6 0zM495 138 a3 3 0 1 0 6 0 a3 3 0 1 0 -6 0z" fill="rgba(255, 0, 0, 0.65)"></path><path d="M162 198L150 210L114 210L90 234L90 246L66 270L54 270" stroke-width="2" stroke="rgba(255, 0, 0, 0.65)"></path><path d="M159 198 a3 3 0 1 0 6 0 a3 3 0 1 0 -6 0zM51 270 a3 3 0 1 0 6 0 a3 3 0 1 0 -6 0z" fill="rgba(255, 0, 0, 0.65)"></path><path d="M78 78L78 66L90 54L150 54L186 90L186 126" stroke-width="2" stroke="rgba(255, 0, 0, 0.65)"></path><path d="M75 78 a3 3 0 1 0 6 0 a3 3 0 1 0 -6 0zM183 126 a3 3 0 1 0 6 0 a3 3 0 1 0 -6 0z" fill="rgba(255, 0, 0, 0.65)"></path><path d="M618 162L558 222L558 282L570 294L630 294" stroke-width="2" stroke="rgba(255, 0, 0, 0.65)"></path><path d="M615 162 a3 3 0 1 0 6 0 a3 3 0 1 0 -6 0zM627 294 a3 3 0 1 0 6 0 a3 3 0 1 0 -6 0z" fill="rgba(255, 0, 0, 0.65)"></path><path d="M1050 174L1026 174L1014 186L978 186" stroke-width="2" stroke="rgba(255, 0, 0, 0.65)"></path><path d="M1047 174 a3 3 0 1 0 6 0 a3 3 0 1 0 -6 0zM975 186 a3 3 0 1 0 6 0 a3 3 0 1 0 -6 0z" fill="rgba(255, 0, 0, 0.65)"></path><path d="M534 234L534 186" stroke-width="2" stroke="rgba(255, 0, 0, 0.65)"></path><path d="M531 234 a3 3 0 1 0 6 0 a3 3 0 1 0 -6 0zM531 186 a3 3 0 1 0 6 0 a3 3 0 1 0 -6 0z" fill="rgba(255, 0, 0, 0.65)"></path><path d="M618 246L570 246" stroke-width="2" stroke="rgba(255, 0, 0, 0.65)"></path><path d="M615 246 a3 3 0 1 0 6 0 a3 3 0 1 0 -6 0zM567 246 a3 3 0 1 0 6 0 a3 3 0 1 0 -6 0z" fill="rgba(255, 0, 0, 0.65)"></path><path d="M258 270L282 270" stroke-width="2" stroke="rgba(255, 0, 0, 0.65)"></path><path d="M255 270 a3 3 0 1 0 6 0 a3 3 0 1 0 -6 0zM279 270 a3 3 0 1 0 6 0 a3 3 0 1 0 -6 0z" fill="rgba(255, 0, 0, 0.65)"></path><path d="M834 198L834 234L822 246L762 246" stroke-width="2" stroke="rgba(255, 0, 0, 0.65)"></path><path d="M831 198 a3 3 0 1 0 6 0 a3 3 0 1 0 -6 0zM759 246 a3 3 0 1 0 6 0 a3 3 0 1 0 -6 0z" fill="rgba(255, 0, 0, 0.65)"></path><path d="M546 270L522 294" stroke-width="2" stroke="rgba(255, 0, 0, 0.65)"></path><path d="M543 270 a3 3 0 1 0 6 0 a3 3 0 1 0 -6 0zM519 294 a3 3 0 1 0 6 0 a3 3 0 1 0 -6 0z" fill="rgba(255, 0, 0, 0.65)"></path><path d="M90 294L66 294L54 306" stroke-width="2" stroke="rgba(255, 0, 0, 0.65)"></path><path d="M87 294 a3 3 0 1 0 6 0 a3 3 0 1 0 -6 0zM51 306 a3 3 0 1 0 6 0 a3 3 0 1 0 -6 0z" fill="rgba(255, 0, 0, 0.65)"></path><path d="M846 294L870 270L1026 270L1050 246L1074 246" stroke-width="2" stroke="rgba(255, 0, 0, 0.65)"></path><path d="M843 294 a3 3 0 1 0 6 0 a3 3 0 1 0 -6 0zM1071 246 a3 3 0 1 0 6 0 a3 3 0 1 0 -6 0z" fill="rgba(255, 0, 0, 0.65)"></path><path d="M414 162L438 138L486 138" stroke-width="2" stroke="rgba(255, 0, 0, 0.65)"></path><path d="M411 162 a3 3 0 1 0 6 0 a3 3 0 1 0 -6 0zM483 138 a3 3 0 1 0 6 0 a3 3 0 1 0 -6 0z" fill="rgba(255, 0, 0, 0.65)"></path><path d="M834 282L810 282" stroke-width="2" stroke="rgba(255, 0, 0, 0.65)"></path><path d="M831 282 a3 3 0 1 0 6 0 a3 3 0 1 0 -6 0zM807 282 a3 3 0 1 0 6 0 a3 3 0 1 0 -6 0z" fill="rgba(255, 0, 0, 0.65)"></path><path d="M894 162L870 138" stroke-width="2" stroke="rgba(255, 0, 0, 0.65)"></path><path d="M891 162 a3 3 0 1 0 6 0 a3 3 0 1 0 -6 0zM867 138 a3 3 0 1 0 6 0 a3 3 0 1 0 -6 0z" fill="rgba(255, 0, 0, 0.65)"></path><path d="M618 174L642 150" stroke-width="2" stroke="rgba(255, 0, 0, 0.65)"></path><path d="M615 174 a3 3 0 1 0 6 0 a3 3 0 1 0 -6 0zM639 150 a3 3 0 1 0 6 0 a3 3 0 1 0 -6 0z" fill="rgba(255, 0, 0, 0.65)"></path><path d="M582 174L582 186L558 210" stroke-width="2" stroke="rgba(255, 0, 0, 0.65)"></path><path d="M579 174 a3 3 0 1 0 6 0 a3 3 0 1 0 -6 0zM555 210 a3 3 0 1 0 6 0 a3 3 0 1 0 -6 0z" fill="rgba(255, 0, 0, 0.65)"></path><path d="M234 102L234 90L186 42L174 42" stroke-width="2" stroke="rgba(255, 0, 0, 0.65)"></path><path d="M231 102 a3 3 0 1 0 6 0 a3 3 0 1 0 -6 0zM171 42 a3 3 0 1 0 6 0 a3 3 0 1 0 -6 0z" fill="rgba(255, 0, 0, 0.65)"></path><path d="M234 222L258 198L258 186L210 138" stroke-width="2" stroke="rgba(255, 0, 0, 0.65)"></path><path d="M231 222 a3 3 0 1 0 6 0 a3 3 0 1 0 -6 0zM207 138 a3 3 0 1 0 6 0 a3 3 0 1 0 -6 0z" fill="rgba(255, 0, 0, 0.65)"></path><path d="M606 30L606 6" stroke-width="2" stroke="rgba(255, 0, 0, 0.65)"></path><path d="M603 30 a3 3 0 1 0 6 0 a3 3 0 1 0 -6 0zM603 6 a3 3 0 1 0 6 0 a3 3 0 1 0 -6 0z" fill="rgba(255, 0, 0, 0.65)"></path><path d="M954 294L1014 294L1026 306L1038 306" stroke-width="2" stroke="rgba(255, 0, 0, 0.65)"></path><path d="M951 294 a3 3 0 1 0 6 0 a3 3 0 1 0 -6 0zM1035 306 a3 3 0 1 0 6 0 a3 3 0 1 0 -6 0z" fill="rgba(255, 0, 0, 0.65)"></path><path d="M450 174L474 150L486 150" stroke-width="2" stroke="rgba(255, 0, 0, 0.65)"></path><path d="M447 174 a3 3 0 1 0 6 0 a3 3 0 1 0 -6 0zM483 150 a3 3 0 1 0 6 0 a3 3 0 1 0 -6 0z" fill="rgba(255, 0, 0, 0.65)"></path><path d="M1062 114L1074 102L1074 78" stroke-width="2" stroke="rgba(255, 0, 0, 0.65)"></path><path d="M1059 114 a3 3 0 1 0 6 0 a3 3 0 1 0 -6 0zM1071 78 a3 3 0 1 0 6 0 a3 3 0 1 0 -6 0z" fill="rgba(255, 0, 0, 0.65)"></path><path d="M570 150L570 186L558 198" stroke-width="2" stroke="rgba(255, 0, 0, 0.65)"></path><path d="M567 150 a3 3 0 1 0 6 0 a3 3 0 1 0 -6 0zM555 198 a3 3 0 1 0 6 0 a3 3 0 1 0 -6 0z" fill="rgba(255, 0, 0, 0.65)"></path><path d="M114 162L90 186" stroke-width="2" stroke="rgba(255, 0, 0, 0.65)"></path><path d="M111 162 a3 3 0 1 0 6 0 a3 3 0 1 0 -6 0zM87 186 a3 3 0 1 0 6 0 a3 3 0 1 0 -6 0z" fill="rgba(255, 0, 0, 0.65)"></path><path d="M150 78L174 102L174 114" stroke-width="2" stroke="rgba(255, 0, 0, 0.65)"></path><path d="M147 78 a3 3 0 1 0 6 0 a3 3 0 1 0 -6 0zM171 114 a3 3 0 1 0 6 0 a3 3 0 1 0 -6 0z" fill="rgba(255, 0, 0, 0.65)"></path><path d="M846 30L882 30L894 42" stroke-width="2" stroke="rgba(255, 0, 0, 0.65)"></path><path d="M843 30 a3 3 0 1 0 6 0 a3 3 0 1 0 -6 0zM891 42 a3 3 0 1 0 6 0 a3 3 0 1 0 -6 0z" fill="rgba(255, 0, 0, 0.65)"></path><path d="M762 78L798 78" stroke-width="2" stroke="rgba(255, 0, 0, 0.65)"></path><path d="M759 78 a3 3 0 1 0 6 0 a3 3 0 1 0 -6 0zM795 78 a3 3 0 1 0 6 0 a3 3 0 1 0 -6 0z" fill="rgba(255, 0, 0, 0.65)"></path><path d="M330 150L318 150L246 78" stroke-width="2" stroke="rgba(255, 0, 0, 0.65)"></path><path d="M327 150 a3 3 0 1 0 6 0 a3 3 0 1 0 -6 0zM243 78 a3 3 0 1 0 6 0 a3 3 0 1 0 -6 0z" fill="rgba(255, 0, 0, 0.65)"></path><path d="M702 78L714 90L714 102" stroke-width="2" stroke="rgba(255, 0, 0, 0.65)"></path><path d="M699 78 a3 3 0 1 0 6 0 a3 3 0 1 0 -6 0zM711 102 a3 3 0 1 0 6 0 a3 3 0 1 0 -6 0z" fill="rgba(255, 0, 0, 0.65)"></path><path d="M606 138L618 150L630 150" stroke-width="2" stroke="rgba(255, 0, 0, 0.65)"></path><path d="M603 138 a3 3 0 1 0 6 0 a3 3 0 1 0 -6 0zM627 150 a3 3 0 1 0 6 0 a3 3 0 1 0 -6 0z" fill="rgba(255, 0, 0, 0.65)"></path><path d="M366 54L390 78L390 90" stroke-width="2" stroke="rgba(255, 0, 0, 0.65)"></path><path d="M363 54 a3 3 0 1 0 6 0 a3 3 0 1 0 -6 0zM387 90 a3 3 0 1 0 6 0 a3 3 0 1 0 -6 0z" fill="rgba(255, 0, 0, 0.65)"></path><path d="M294 78L294 90L318 114" stroke-width="2" stroke="rgba(255, 0, 0, 0.65)"></path><path d="M291 78 a3 3 0 1 0 6 0 a3 3 0 1 0 -6 0zM315 114 a3 3 0 1 0 6 0 a3 3 0 1 0 -6 0z" fill="rgba(255, 0, 0, 0.65)"></path><path d="M78 102L42 102" stroke-width="2" stroke="rgba(255, 0, 0, 0.65)"></path><path d="M75 102 a3 3 0 1 0 6 0 a3 3 0 1 0 -6 0zM39 102 a3 3 0 1 0 6 0 a3 3 0 1 0 -6 0z" fill="rgba(255, 0, 0, 0.65)"></path><path d="M642 174L630 174L618 186" stroke-width="2" stroke="rgba(255, 0, 0, 0.65)"></path><path d="M639 174 a3 3 0 1 0 6 0 a3 3 0 1 0 -6 0zM615 186 a3 3 0 1 0 6 0 a3 3 0 1 0 -6 0z" fill="rgba(255, 0, 0, 0.65)"></path><path d="M678 246L678 282" stroke-width="2" stroke="rgba(255, 0, 0, 0.65)"></path><path d="M675 246 a3 3 0 1 0 6 0 a3 3 0 1 0 -6 0zM675 282 a3 3 0 1 0 6 0 a3 3 0 1 0 -6 0z" fill="rgba(255, 0, 0, 0.65)"></path><path d="M66 6L102 6" stroke-width="2" stroke="rgba(255, 0, 0, 0.65)"></path><path d="M63 6 a3 3 0 1 0 6 0 a3 3 0 1 0 -6 0zM99 6 a3 3 0 1 0 6 0 a3 3 0 1 0 -6 0z" fill="rgba(255, 0, 0, 0.65)"></path><path d="M1050 282L1050 258" stroke-width="2" stroke="rgba(255, 0, 0, 0.65)"></path><path d="M1047 282 a3 3 0 1 0 6 0 a3 3 0 1 0 -6 0zM1047 258 a3 3 0 1 0 6 0 a3 3 0 1 0 -6 0z" fill="rgba(255, 0, 0, 0.65)"></path><path d="M90 102L90 66" stroke-width="2" stroke="rgba(255, 0, 0, 0.65)"></path><path d="M87 102 a3 3 0 1 0 6 0 a3 3 0 1 0 -6 0zM87 66 a3 3 0 1 0 6 0 a3 3 0 1 0 -6 0z" fill="rgba(255, 0, 0, 0.65)"></path><path d="M966 162L966 138" stroke-width="2" stroke="rgba(255, 0, 0, 0.65)"></path><path d="M963 162 a3 3 0 1 0 6 0 a3 3 0 1 0 -6 0zM963 138 a3 3 0 1 0 6 0 a3 3 0 1 0 -6 0z" fill="rgba(255, 0, 0, 0.65)"></path><path d="M702 246L702 210L714 198L726 198L750 222L750 234L702 282L690 282" stroke-width="2" stroke="rgba(255, 0, 0, 0.65)"></path><path d="M699 246 a3 3 0 1 0 6 0 a3 3 0 1 0 -6 0zM687 282 a3 3 0 1 0 6 0 a3 3 0 1 0 -6 0z" fill="rgba(255, 0, 0, 0.65)"></path><path d="M342 42L378 6L390 6" stroke-width="2" stroke="rgba(255, 0, 0, 0.65)"></path><path d="M339 42 a3 3 0 1 0 6 0 a3 3 0 1 0 -6 0zM387 6 a3 3 0 1 0 6 0 a3 3 0 1 0 -6 0z" fill="rgba(255, 0, 0, 0.65)"></path><path d="M474 6L582 6" stroke-width="2" stroke="rgba(255, 0, 0, 0.65)"></path><path d="M471 6 a3 3 0 1 0 6 0 a3 3 0 1 0 -6 0zM579 6 a3 3 0 1 0 6 0 a3 3 0 1 0 -6 0z" fill="rgba(255, 0, 0, 0.65)"></path><path d="M354 6L330 30" stroke-width="2" stroke="rgba(255, 0, 0, 0.65)"></path><path d="M351 6 a3 3 0 1 0 6 0 a3 3 0 1 0 -6 0zM327 30 a3 3 0 1 0 6 0 a3 3 0 1 0 -6 0z" fill="rgba(255, 0, 0, 0.65)"></path><path d="M750 198L750 210L762 222" stroke-width="2" stroke="rgba(255, 0, 0, 0.65)"></path><path d="M747 198 a3 3 0 1 0 6 0 a3 3 0 1 0 -6 0zM759 222 a3 3 0 1 0 6 0 a3 3 0 1 0 -6 0z" fill="rgba(255, 0, 0, 0.65)"></path><path d="M678 54L714 54" stroke-width="2" stroke="rgba(255, 0, 0, 0.65)"></path><path d="M675 54 a3 3 0 1 0 6 0 a3 3 0 1 0 -6 0zM711 54 a3 3 0 1 0 6 0 a3 3 0 1 0 -6 0z" fill="rgba(255, 0, 0, 0.65)"></path><path d="M42 6L54 6L78 30" stroke-width="2" stroke="rgba(255, 0, 0, 0.65)"></path><path d="M39 6 a3 3 0 1 0 6 0 a3 3 0 1 0 -6 0zM75 30 a3 3 0 1 0 6 0 a3 3 0 1 0 -6 0z" fill="rgba(255, 0, 0, 0.65)"></path><path d="M378 294L354 270" stroke-width="2" stroke="rgba(255, 0, 0, 0.65)"></path><path d="M375 294 a3 3 0 1 0 6 0 a3 3 0 1 0 -6 0zM351 270 a3 3 0 1 0 6 0 a3 3 0 1 0 -6 0z" fill="rgba(255, 0, 0, 0.65)"></path><path d="M498 30L438 90L438 102" stroke-width="2" stroke="rgba(255, 0, 0, 0.65)"></path><path d="M495 30 a3 3 0 1 0 6 0 a3 3 0 1 0 -6 0zM435 102 a3 3 0 1 0 6 0 a3 3 0 1 0 -6 0z" fill="rgba(255, 0, 0, 0.65)"></path><path d="M438 30L462 6" stroke-width="2" stroke="rgba(255, 0, 0, 0.65)"></path><path d="M435 30 a3 3 0 1 0 6 0 a3 3 0 1 0 -6 0zM459 6 a3 3 0 1 0 6 0 a3 3 0 1 0 -6 0z" fill="rgba(255, 0, 0, 0.65)"></path><path d="M1062 126L1062 138L1074 150" stroke-width="2" stroke="rgba(255, 0, 0, 0.65)"></path><path d="M1059 126 a3 3 0 1 0 6 0 a3 3 0 1 0 -6 0zM1071 150 a3 3 0 1 0 6 0 a3 3 0 1 0 -6 0z" fill="rgba(255, 0, 0, 0.65)"></path><path d="M102 42L138 42" stroke-width="2" stroke="rgba(255, 0, 0, 0.65)"></path><path d="M99 42 a3 3 0 1 0 6 0 a3 3 0 1 0 -6 0zM135 42 a3 3 0 1 0 6 0 a3 3 0 1 0 -6 0z" fill="rgba(255, 0, 0, 0.65)"></path><path d="M474 162L414 222L366 222" stroke-width="2" stroke="rgba(255, 0, 0, 0.65)"></path><path d="M471 162 a3 3 0 1 0 6 0 a3 3 0 1 0 -6 0zM363 222 a3 3 0 1 0 6 0 a3 3 0 1 0 -6 0z" fill="rgba(255, 0, 0, 0.65)"></path><path d="M258 126L246 114L246 102" stroke-width="2" stroke="rgba(255, 0, 0, 0.65)"></path><path d="M255 126 a3 3 0 1 0 6 0 a3 3 0 1 0 -6 0zM243 102 a3 3 0 1 0 6 0 a3 3 0 1 0 -6 0z" fill="rgba(255, 0, 0, 0.65)"></path><path d="M438 42L450 54L450 66L438 78" stroke-width="2" stroke="rgba(255, 0, 0, 0.65)"></path><path d="M435 42 a3 3 0 1 0 6 0 a3 3 0 1 0 -6 0zM435 78 a3 3 0 1 0 6 0 a3 3 0 1 0 -6 0z" fill="rgba(255, 0, 0, 0.65)"></path><path d="M654 114L618 114L606 102L606 90L618 78L630 78L642 90L642 102" stroke-width="2" stroke="rgba(255, 0, 0, 0.65)"></path><path d="M651 114 a3 3 0 1 0 6 0 a3 3 0 1 0 -6 0zM639 102 a3 3 0 1 0 6 0 a3 3 0 1 0 -6 0z" fill="rgba(255, 0, 0, 0.65)"></path><path d="M906 234L930 234L942 246L954 246" stroke-width="2" stroke="rgba(255, 0, 0, 0.65)"></path><path d="M903 234 a3 3 0 1 0 6 0 a3 3 0 1 0 -6 0zM951 246 a3 3 0 1 0 6 0 a3 3 0 1 0 -6 0z" fill="rgba(255, 0, 0, 0.65)"></path><path d="M594 174L582 162L582 138" stroke-width="2" stroke="rgba(255, 0, 0, 0.65)"></path><path d="M591 174 a3 3 0 1 0 6 0 a3 3 0 1 0 -6 0zM579 138 a3 3 0 1 0 6 0 a3 3 0 1 0 -6 0z" fill="rgba(255, 0, 0, 0.65)"></path><path d="M162 270L126 234" stroke-width="2" stroke="rgba(255, 0, 0, 0.65)"></path><path d="M159 270 a3 3 0 1 0 6 0 a3 3 0 1 0 -6 0zM123 234 a3 3 0 1 0 6 0 a3 3 0 1 0 -6 0z" fill="rgba(255, 0, 0, 0.65)"></path><path d="M462 210L438 210L402 246L378 246L366 234" stroke-width="2" stroke="rgba(255, 0, 0, 0.65)"></path><path d="M459 210 a3 3 0 1 0 6 0 a3 3 0 1 0 -6 0zM363 234 a3 3 0 1 0 6 0 a3 3 0 1 0 -6 0z" fill="rgba(255, 0, 0, 0.65)"></path><path d="M1050 66L1050 114" stroke-width="2" stroke="rgba(255, 0, 0, 0.65)"></path><path d="M1047 66 a3 3 0 1 0 6 0 a3 3 0 1 0 -6 0zM1047 114 a3 3 0 1 0 6 0 a3 3 0 1 0 -6 0z" fill="rgba(255, 0, 0, 0.65)"></path><path d="M78 282L90 270L114 270" stroke-width="2" stroke="rgba(255, 0, 0, 0.65)"></path><path d="M75 282 a3 3 0 1 0 6 0 a3 3 0 1 0 -6 0zM111 270 a3 3 0 1 0 6 0 a3 3 0 1 0 -6 0z" fill="rgba(255, 0, 0, 0.65)"></path><path d="M822 222L810 234L774 234" stroke-width="2" stroke="rgba(255, 0, 0, 0.65)"></path><path d="M819 222 a3 3 0 1 0 6 0 a3 3 0 1 0 -6 0zM771 234 a3 3 0 1 0 6 0 a3 3 0 1 0 -6 0z" fill="rgba(255, 0, 0, 0.65)"></path><path d="M1014 54L1038 78L1038 102" stroke-width="2" stroke="rgba(255, 0, 0, 0.65)"></path><path d="M1011 54 a3 3 0 1 0 6 0 a3 3 0 1 0 -6 0zM1035 102 a3 3 0 1 0 6 0 a3 3 0 1 0 -6 0z" fill="rgba(255, 0, 0, 0.65)"></path><path d="M846 18L870 18" stroke-width="2" stroke="rgba(255, 0, 0, 0.65)"></path><path d="M843 18 a3 3 0 1 0 6 0 a3 3 0 1 0 -6 0zM867 18 a3 3 0 1 0 6 0 a3 3 0 1 0 -6 0z" fill="rgba(255, 0, 0, 0.65)"></path><path d="M258 306L270 294L282 294" stroke-width="2" stroke="rgba(255, 0, 0, 0.65)"></path><path d="M255 306 a3 3 0 1 0 6 0 a3 3 0 1 0 -6 0zM279 294 a3 3 0 1 0 6 0 a3 3 0 1 0 -6 0z" fill="rgba(255, 0, 0, 0.65)"></path><path d="M678 6L630 6" stroke-width="2" stroke="rgba(255, 0, 0, 0.65)"></path><path d="M675 6 a3 3 0 1 0 6 0 a3 3 0 1 0 -6 0zM627 6 a3 3 0 1 0 6 0 a3 3 0 1 0 -6 0z" fill="rgba(255, 0, 0, 0.65)"></path><path d="M942 306L906 306L894 318" stroke-width="2" stroke="rgba(255, 0, 0, 0.65)"></path><path d="M939 306 a3 3 0 1 0 6 0 a3 3 0 1 0 -6 0zM891 318 a3 3 0 1 0 6 0 a3 3 0 1 0 -6 0z" fill="rgba(255, 0, 0, 0.65)"></path><path d="M426 198L414 210L366 210" stroke-width="2" stroke="rgba(255, 0, 0, 0.65)"></path><path d="M423 198 a3 3 0 1 0 6 0 a3 3 0 1 0 -6 0zM363 210 a3 3 0 1 0 6 0 a3 3 0 1 0 -6 0z" fill="rgba(255, 0, 0, 0.65)"></path><path d="M234 210L210 186L210 150" stroke-width="2" stroke="rgba(255, 0, 0, 0.65)"></path><path d="M231 210 a3 3 0 1 0 6 0 a3 3 0 1 0 -6 0zM207 150 a3 3 0 1 0 6 0 a3 3 0 1 0 -6 0z" fill="rgba(255, 0, 0, 0.65)"></path><path d="M150 138L126 162" stroke-width="2" stroke="rgba(255, 0, 0, 0.65)"></path><path d="M147 138 a3 3 0 1 0 6 0 a3 3 0 1 0 -6 0zM123 162 a3 3 0 1 0 6 0 a3 3 0 1 0 -6 0z" fill="rgba(255, 0, 0, 0.65)"></path><path d="M870 42L846 42" stroke-width="2" stroke="rgba(255, 0, 0, 0.65)"></path><path d="M867 42 a3 3 0 1 0 6 0 a3 3 0 1 0 -6 0zM843 42 a3 3 0 1 0 6 0 a3 3 0 1 0 -6 0z" fill="rgba(255, 0, 0, 0.65)"></path><path d="M582 270L618 270" stroke-width="2" stroke="rgba(255, 0, 0, 0.65)"></path><path d="M579 270 a3 3 0 1 0 6 0 a3 3 0 1 0 -6 0zM615 270 a3 3 0 1 0 6 0 a3 3 0 1 0 -6 0z" fill="rgba(255, 0, 0, 0.65)"></path><path d="M426 294L402 270L390 270" stroke-width="2" stroke="rgba(255, 0, 0, 0.65)"></path><path d="M423 294 a3 3 0 1 0 6 0 a3 3 0 1 0 -6 0zM387 270 a3 3 0 1 0 6 0 a3 3 0 1 0 -6 0z" fill="rgba(255, 0, 0, 0.65)"></path><path d="M426 186L462 150" stroke-width="2" stroke="rgba(255, 0, 0, 0.65)"></path><path d="M423 186 a3 3 0 1 0 6 0 a3 3 0 1 0 -6 0zM459 150 a3 3 0 1 0 6 0 a3 3 0 1 0 -6 0z" fill="rgba(255, 0, 0, 0.65)"></path><path d="M858 222L882 246L930 246" stroke-width="2" stroke="rgba(255, 0, 0, 0.65)"></path><path d="M855 222 a3 3 0 1 0 6 0 a3 3 0 1 0 -6 0zM927 246 a3 3 0 1 0 6 0 a3 3 0 1 0 -6 0z" fill="rgba(255, 0, 0, 0.65)"></path><path d="M510 18L582 18" stroke-width="2" stroke="rgba(255, 0, 0, 0.65)"></path><path d="M507 18 a3 3 0 1 0 6 0 a3 3 0 1 0 -6 0zM579 18 a3 3 0 1 0 6 0 a3 3 0 1 0 -6 0z" fill="rgba(255, 0, 0, 0.65)"></path><path d="M306 258L306 282" stroke-width="2" stroke="rgba(255, 0, 0, 0.65)"></path><path d="M303 258 a3 3 0 1 0 6 0 a3 3 0 1 0 -6 0zM303 282 a3 3 0 1 0 6 0 a3 3 0 1 0 -6 0z" fill="rgba(255, 0, 0, 0.65)"></path><path d="M558 30L582 30" stroke-width="2" stroke="rgba(255, 0, 0, 0.65)"></path><path d="M555 30 a3 3 0 1 0 6 0 a3 3 0 1 0 -6 0zM579 30 a3 3 0 1 0 6 0 a3 3 0 1 0 -6 0z" fill="rgba(255, 0, 0, 0.65)"></path><path d="M990 114L990 138" stroke-width="2" stroke="rgba(255, 0, 0, 0.65)"></path><path d="M987 114 a3 3 0 1 0 6 0 a3 3 0 1 0 -6 0zM987 138 a3 3 0 1 0 6 0 a3 3 0 1 0 -6 0z" fill="rgba(255, 0, 0, 0.65)"></path><path d="M246 258L234 270L222 270" stroke-width="2" stroke="rgba(255, 0, 0, 0.65)"></path><path d="M243 258 a3 3 0 1 0 6 0 a3 3 0 1 0 -6 0zM219 270 a3 3 0 1 0 6 0 a3 3 0 1 0 -6 0z" fill="rgba(255, 0, 0, 0.65)"></path><path d="M822 198L810 198L786 222" stroke-width="2" stroke="rgba(255, 0, 0, 0.65)"></path><path d="M819 198 a3 3 0 1 0 6 0 a3 3 0 1 0 -6 0zM783 222 a3 3 0 1 0 6 0 a3 3 0 1 0 -6 0z" fill="rgba(255, 0, 0, 0.65)"></path><path d="M450 150L438 162L426 162" stroke-width="2" stroke="rgba(255, 0, 0, 0.65)"></path><path d="M447 150 a3 3 0 1 0 6 0 a3 3 0 1 0 -6 0zM423 162 a3 3 0 1 0 6 0 a3 3 0 1 0 -6 0z" fill="rgba(255, 0, 0, 0.65)"></path><path d="M534 270L546 258L546 246" stroke-width="2" stroke="rgba(255, 0, 0, 0.65)"></path><path d="M531 270 a3 3 0 1 0 6 0 a3 3 0 1 0 -6 0zM543 246 a3 3 0 1 0 6 0 a3 3 0 1 0 -6 0z" fill="rgba(255, 0, 0, 0.65)"></path><path d="M906 78L966 78" stroke-width="2" stroke="rgba(255, 0, 0, 0.65)"></path><path d="M903 78 a3 3 0 1 0 6 0 a3 3 0 1 0 -6 0zM963 78 a3 3 0 1 0 6 0 a3 3 0 1 0 -6 0z" fill="rgba(255, 0, 0, 0.65)"></path><path d="M1026 222L1014 210L990 210" stroke-width="2" stroke="rgba(255, 0, 0, 0.65)"></path><path d="M1023 222 a3 3 0 1 0 6 0 a3 3 0 1 0 -6 0zM987 210 a3 3 0 1 0 6 0 a3 3 0 1 0 -6 0z" fill="rgba(255, 0, 0, 0.65)"></path><path d="M858 210L858 186L882 162" stroke-width="2" stroke="rgba(255, 0, 0, 0.65)"></path><path d="M855 210 a3 3 0 1 0 6 0 a3 3 0 1 0 -6 0zM879 162 a3 3 0 1 0 6 0 a3 3 0 1 0 -6 0z" fill="rgba(255, 0, 0, 0.65)"></path><path d="M474 18L498 18" stroke-width="2" stroke="rgba(255, 0, 0, 0.65)"></path><path d="M471 18 a3 3 0 1 0 6 0 a3 3 0 1 0 -6 0zM495 18 a3 3 0 1 0 6 0 a3 3 0 1 0 -6 0z" fill="rgba(255, 0, 0, 0.65)"></path><path d="M138 306L138 282" stroke-width="2" stroke="rgba(255, 0, 0, 0.65)"></path><path d="M135 306 a3 3 0 1 0 6 0 a3 3 0 1 0 -6 0zM135 282 a3 3 0 1 0 6 0 a3 3 0 1 0 -6 0z" fill="rgba(255, 0, 0, 0.65)"></path><path d="M270 234L258 234L246 246" stroke-width="2" stroke="rgba(255, 0, 0, 0.65)"></path><path d="M267 234 a3 3 0 1 0 6 0 a3 3 0 1 0 -6 0zM243 246 a3 3 0 1 0 6 0 a3 3 0 1 0 -6 0z" fill="rgba(255, 0, 0, 0.65)"></path><path d="M1062 270L1062 294" stroke-width="2" stroke="rgba(255, 0, 0, 0.65)"></path><path d="M1059 270 a3 3 0 1 0 6 0 a3 3 0 1 0 -6 0zM1059 294 a3 3 0 1 0 6 0 a3 3 0 1 0 -6 0z" fill="rgba(255, 0, 0, 0.65)"></path><path d="M498 258L474 282L426 282L414 270" stroke-width="2" stroke="rgba(255, 0, 0, 0.65)"></path><path d="M495 258 a3 3 0 1 0 6 0 a3 3 0 1 0 -6 0zM411 270 a3 3 0 1 0 6 0 a3 3 0 1 0 -6 0z" fill="rgba(255, 0, 0, 0.65)"></path><path d="M774 66L750 66" stroke-width="2" stroke="rgba(255, 0, 0, 0.65)"></path><path d="M771 66 a3 3 0 1 0 6 0 a3 3 0 1 0 -6 0zM747 66 a3 3 0 1 0 6 0 a3 3 0 1 0 -6 0z" fill="rgba(255, 0, 0, 0.65)"></path><path d="M666 42L714 42" stroke-width="2" stroke="rgba(255, 0, 0, 0.65)"></path><path d="M663 42 a3 3 0 1 0 6 0 a3 3 0 1 0 -6 0zM711 42 a3 3 0 1 0 6 0 a3 3 0 1 0 -6 0z" fill="rgba(255, 0, 0, 0.65)"></path><path d="M1050 162L1038 162L1026 150" stroke-width="2" stroke="rgba(255, 0, 0, 0.65)"></path><path d="M1047 162 a3 3 0 1 0 6 0 a3 3 0 1 0 -6 0zM1023 150 a3 3 0 1 0 6 0 a3 3 0 1 0 -6 0z" fill="rgba(255, 0, 0, 0.65)"></path><path d="M258 318L294 318" stroke-width="2" stroke="rgba(255, 0, 0, 0.65)"></path><path d="M255 318 a3 3 0 1 0 6 0 a3 3 0 1 0 -6 0zM291 318 a3 3 0 1 0 6 0 a3 3 0 1 0 -6 0z" fill="rgba(255, 0, 0, 0.65)"></path><path d="M30 6L6 6" stroke-width="2" stroke="rgba(255, 0, 0, 0.65)"></path><path d="M27 6 a3 3 0 1 0 6 0 a3 3 0 1 0 -6 0zM3 6 a3 3 0 1 0 6 0 a3 3 0 1 0 -6 0z" fill="rgba(255, 0, 0, 0.65)"></path><path d="M1050 186L1026 186" stroke-width="2" stroke="rgba(255, 0, 0, 0.65)"></path><path d="M1047 186 a3 3 0 1 0 6 0 a3 3 0 1 0 -6 0zM1023 186 a3 3 0 1 0 6 0 a3 3 0 1 0 -6 0z" fill="rgba(255, 0, 0, 0.65)"></path><path d="M714 258L702 270L690 270" stroke-width="2" stroke="rgba(255, 0, 0, 0.65)"></path><path d="M711 258 a3 3 0 1 0 6 0 a3 3 0 1 0 -6 0zM687 270 a3 3 0 1 0 6 0 a3 3 0 1 0 -6 0z" fill="rgba(255, 0, 0, 0.65)"></path><path d="M798 222L810 222L822 210" stroke-width="2" stroke="rgba(255, 0, 0, 0.65)"></path><path d="M795 222 a3 3 0 1 0 6 0 a3 3 0 1 0 -6 0zM819 210 a3 3 0 1 0 6 0 a3 3 0 1 0 -6 0z" fill="rgba(255, 0, 0, 0.65)"></path><path d="M186 198L186 258" stroke-width="2" stroke="rgba(255, 0, 0, 0.65)"></path><path d="M183 198 a3 3 0 1 0 6 0 a3 3 0 1 0 -6 0zM183 258 a3 3 0 1 0 6 0 a3 3 0 1 0 -6 0z" fill="rgba(255, 0, 0, 0.65)"></path><path d="M54 210L18 174L18 150" stroke-width="2" stroke="rgba(255, 0, 0, 0.65)"></path><path d="M51 210 a3 3 0 1 0 6 0 a3 3 0 1 0 -6 0zM15 150 a3 3 0 1 0 6 0 a3 3 0 1 0 -6 0z" fill="rgba(255, 0, 0, 0.65)"></path><path d="M126 90L102 66" stroke-width="2" stroke="rgba(255, 0, 0, 0.65)"></path><path d="M123 90 a3 3 0 1 0 6 0 a3 3 0 1 0 -6 0zM99 66 a3 3 0 1 0 6 0 a3 3 0 1 0 -6 0z" fill="rgba(255, 0, 0, 0.65)"></path><path d="M546 318L510 318" stroke-width="2" stroke="rgba(255, 0, 0, 0.65)"></path><path d="M543 318 a3 3 0 1 0 6 0 a3 3 0 1 0 -6 0zM507 318 a3 3 0 1 0 6 0 a3 3 0 1 0 -6 0z" fill="rgba(255, 0, 0, 0.65)"></path><path d="M522 222L522 198" stroke-width="2" stroke="rgba(255, 0, 0, 0.65)"></path><path d="M519 222 a3 3 0 1 0 6 0 a3 3 0 1 0 -6 0zM519 198 a3 3 0 1 0 6 0 a3 3 0 1 0 -6 0z" fill="rgba(255, 0, 0, 0.65)"></path><path d="M462 18L474 30L486 30" stroke-width="2" stroke="rgba(255, 0, 0, 0.65)"></path><path d="M459 18 a3 3 0 1 0 6 0 a3 3 0 1 0 -6 0zM483 30 a3 3 0 1 0 6 0 a3 3 0 1 0 -6 0z" fill="rgba(255, 0, 0, 0.65)"></path><path d="M474 270L498 246" stroke-width="2" stroke="rgba(255, 0, 0, 0.65)"></path><path d="M471 270 a3 3 0 1 0 6 0 a3 3 0 1 0 -6 0zM495 246 a3 3 0 1 0 6 0 a3 3 0 1 0 -6 0z" fill="rgba(255, 0, 0, 0.65)"></path><path d="M630 18L606 42L606 54" stroke-width="2" stroke="rgba(255, 0, 0, 0.65)"></path><path d="M627 18 a3 3 0 1 0 6 0 a3 3 0 1 0 -6 0zM603 54 a3 3 0 1 0 6 0 a3 3 0 1 0 -6 0z" fill="rgba(255, 0, 0, 0.65)"></path><path d="M102 102L162 102" stroke-width="2" stroke="rgba(255, 0, 0, 0.65)"></path><path d="M99 102 a3 3 0 1 0 6 0 a3 3 0 1 0 -6 0zM159 102 a3 3 0 1 0 6 0 a3 3 0 1 0 -6 0z" fill="rgba(255, 0, 0, 0.65)"></path><path d="M318 186L330 198L330 210" stroke-width="2" stroke="rgba(255, 0, 0, 0.65)"></path><path d="M315 186 a3 3 0 1 0 6 0 a3 3 0 1 0 -6 0zM327 210 a3 3 0 1 0 6 0 a3 3 0 1 0 -6 0z" fill="rgba(255, 0, 0, 0.65)"></path><path d="M738 222L726 210L714 210" stroke-width="2" stroke="rgba(255, 0, 0, 0.65)"></path><path d="M735 222 a3 3 0 1 0 6 0 a3 3 0 1 0 -6 0zM711 210 a3 3 0 1 0 6 0 a3 3 0 1 0 -6 0z" fill="rgba(255, 0, 0, 0.65)"></path><path d="M522 174L522 150" stroke-width="2" stroke="rgba(255, 0, 0, 0.65)"></path><path d="M519 174 a3 3 0 1 0 6 0 a3 3 0 1 0 -6 0zM519 150 a3 3 0 1 0 6 0 a3 3 0 1 0 -6 0z" fill="rgba(255, 0, 0, 0.65)"></path><path d="M258 138L282 138" stroke-width="2" stroke="rgba(255, 0, 0, 0.65)"></path><path d="M255 138 a3 3 0 1 0 6 0 a3 3 0 1 0 -6 0zM279 138 a3 3 0 1 0 6 0 a3 3 0 1 0 -6 0z" fill="rgba(255, 0, 0, 0.65)"></path><path d="M342 306L342 294L318 270" stroke-width="2" stroke="rgba(255, 0, 0, 0.65)"></path><path d="M339 306 a3 3 0 1 0 6 0 a3 3 0 1 0 -6 0zM315 270 a3 3 0 1 0 6 0 a3 3 0 1 0 -6 0z" fill="rgba(255, 0, 0, 0.65)"></path><path d="M786 42L786 66" stroke-width="2" stroke="rgba(255, 0, 0, 0.65)"></path><path d="M783 42 a3 3 0 1 0 6 0 a3 3 0 1 0 -6 0zM783 66 a3 3 0 1 0 6 0 a3 3 0 1 0 -6 0z" fill="rgba(255, 0, 0, 0.65)"></path><path d="M966 282L1038 282" stroke-width="2" stroke="rgba(255, 0, 0, 0.65)"></path><path d="M963 282 a3 3 0 1 0 6 0 a3 3 0 1 0 -6 0zM1035 282 a3 3 0 1 0 6 0 a3 3 0 1 0 -6 0z" fill="rgba(255, 0, 0, 0.65)"></path><path d="M666 270L654 270L642 282" stroke-width="2" stroke="rgba(255, 0, 0, 0.65)"></path><path d="M663 270 a3 3 0 1 0 6 0 a3 3 0 1 0 -6 0zM639 282 a3 3 0 1 0 6 0 a3 3 0 1 0 -6 0z" fill="rgba(255, 0, 0, 0.65)"></path><path d="M54 162L42 150L30 150" stroke-width="2" stroke="rgba(255, 0, 0, 0.65)"></path><path d="M51 162 a3 3 0 1 0 6 0 a3 3 0 1 0 -6 0zM27 150 a3 3 0 1 0 6 0 a3 3 0 1 0 -6 0z" fill="rgba(255, 0, 0, 0.65)"></path><path d="M666 78L642 54L642 42L654 30L690 30" stroke-width="2" stroke="rgba(255, 0, 0, 0.65)"></path><path d="M663 78 a3 3 0 1 0 6 0 a3 3 0 1 0 -6 0zM687 30 a3 3 0 1 0 6 0 a3 3 0 1 0 -6 0z" fill="rgba(255, 0, 0, 0.65)"></path><path d="M198 318L222 318" stroke-width="2" stroke="rgba(255, 0, 0, 0.65)"></path><path d="M195 318 a3 3 0 1 0 6 0 a3 3 0 1 0 -6 0zM219 318 a3 3 0 1 0 6 0 a3 3 0 1 0 -6 0z" fill="rgba(255, 0, 0, 0.65)"></path><path d="M234 294L210 294" stroke-width="2" stroke="rgba(255, 0, 0, 0.65)"></path><path d="M231 294 a3 3 0 1 0 6 0 a3 3 0 1 0 -6 0zM207 294 a3 3 0 1 0 6 0 a3 3 0 1 0 -6 0z" fill="rgba(255, 0, 0, 0.65)"></path><path d="M534 102L534 78" stroke-width="2" stroke="rgba(255, 0, 0, 0.65)"></path><path d="M531 102 a3 3 0 1 0 6 0 a3 3 0 1 0 -6 0zM531 78 a3 3 0 1 0 6 0 a3 3 0 1 0 -6 0z" fill="rgba(255, 0, 0, 0.65)"></path><path d="M138 234L150 246L174 246" stroke-width="2" stroke="rgba(255, 0, 0, 0.65)"></path><path d="M135 234 a3 3 0 1 0 6 0 a3 3 0 1 0 -6 0zM171 246 a3 3 0 1 0 6 0 a3 3 0 1 0 -6 0z" fill="rgba(255, 0, 0, 0.65)"></path><path d="M282 234L282 210" stroke-width="2" stroke="rgba(255, 0, 0, 0.65)"></path><path d="M279 234 a3 3 0 1 0 6 0 a3 3 0 1 0 -6 0zM279 210 a3 3 0 1 0 6 0 a3 3 0 1 0 -6 0z" fill="rgba(255, 0, 0, 0.65)"></path><path d="M930 138L930 174" stroke-width="2" stroke="rgba(255, 0, 0, 0.65)"></path><path d="M927 138 a3 3 0 1 0 6 0 a3 3 0 1 0 -6 0zM927 174 a3 3 0 1 0 6 0 a3 3 0 1 0 -6 0z" fill="rgba(255, 0, 0, 0.65)"></path><path d="M666 66L678 78L690 78L702 66L714 66" stroke-width="2" stroke="rgba(255, 0, 0, 0.65)"></path><path d="M663 66 a3 3 0 1 0 6 0 a3 3 0 1 0 -6 0zM711 66 a3 3 0 1 0 6 0 a3 3 0 1 0 -6 0z" fill="rgba(255, 0, 0, 0.65)"></path><path d="M30 54L54 54" stroke-width="2" stroke="rgba(255, 0, 0, 0.65)"></path><path d="M27 54 a3 3 0 1 0 6 0 a3 3 0 1 0 -6 0zM51 54 a3 3 0 1 0 6 0 a3 3 0 1 0 -6 0z" fill="rgba(255, 0, 0, 0.65)"></path><path d="M222 42L198 18" stroke-width="2" stroke="rgba(255, 0, 0, 0.65)"></path><path d="M219 42 a3 3 0 1 0 6 0 a3 3 0 1 0 -6 0zM195 18 a3 3 0 1 0 6 0 a3 3 0 1 0 -6 0z" fill="rgba(255, 0, 0, 0.65)"></path><path d="M786 198L786 186L798 174L822 174" stroke-width="2" stroke="rgba(255, 0, 0, 0.65)"></path><path d="M783 198 a3 3 0 1 0 6 0 a3 3 0 1 0 -6 0zM819 174 a3 3 0 1 0 6 0 a3 3 0 1 0 -6 0z" fill="rgba(255, 0, 0, 0.65)"></path><path d="M1062 318L1074 306L1086 306" stroke-width="2" stroke="rgba(255, 0, 0, 0.65)"></path><path d="M1059 318 a3 3 0 1 0 6 0 a3 3 0 1 0 -6 0zM1083 306 a3 3 0 1 0 6 0 a3 3 0 1 0 -6 0z" fill="rgba(255, 0, 0, 0.65)"></path><path d="M426 234L438 222L450 222" stroke-width="2" stroke="rgba(255, 0, 0, 0.65)"></path><path d="M423 234 a3 3 0 1 0 6 0 a3 3 0 1 0 -6 0zM447 222 a3 3 0 1 0 6 0 a3 3 0 1 0 -6 0z" fill="rgba(255, 0, 0, 0.65)"></path><path d="M42 174L42 186L54 198" stroke-width="2" stroke="rgba(255, 0, 0, 0.65)"></path><path d="M39 174 a3 3 0 1 0 6 0 a3 3 0 1 0 -6 0zM51 198 a3 3 0 1 0 6 0 a3 3 0 1 0 -6 0z" fill="rgba(255, 0, 0, 0.65)"></path><path d="M534 30L510 30" stroke-width="2" stroke="rgba(255, 0, 0, 0.65)"></path><path d="M531 30 a3 3 0 1 0 6 0 a3 3 0 1 0 -6 0zM507 30 a3 3 0 1 0 6 0 a3 3 0 1 0 -6 0z" fill="rgba(255, 0, 0, 0.65)"></path><path d="M1074 114L1074 138" stroke-width="2" stroke="rgba(255, 0, 0, 0.65)"></path><path d="M1071 114 a3 3 0 1 0 6 0 a3 3 0 1 0 -6 0zM1071 138 a3 3 0 1 0 6 0 a3 3 0 1 0 -6 0z" fill="rgba(255, 0, 0, 0.65)"></path><path d="M486 174L486 186L474 198L450 198" stroke-width="2" stroke="rgba(255, 0, 0, 0.65)"></path><path d="M483 174 a3 3 0 1 0 6 0 a3 3 0 1 0 -6 0zM447 198 a3 3 0 1 0 6 0 a3 3 0 1 0 -6 0z" fill="rgba(255, 0, 0, 0.65)"></path><path d="M702 162L726 162" stroke-width="2" stroke="rgba(255, 0, 0, 0.65)"></path><path d="M699 162 a3 3 0 1 0 6 0 a3 3 0 1 0 -6 0zM723 162 a3 3 0 1 0 6 0 a3 3 0 1 0 -6 0z" fill="rgba(255, 0, 0, 0.65)"></path><path d="M30 234L18 222L18 210" stroke-width="2" stroke="rgba(255, 0, 0, 0.65)"></path><path d="M27 234 a3 3 0 1 0 6 0 a3 3 0 1 0 -6 0zM15 210 a3 3 0 1 0 6 0 a3 3 0 1 0 -6 0z" fill="rgba(255, 0, 0, 0.65)"></path><path d="M990 306L1014 306" stroke-width="2" stroke="rgba(255, 0, 0, 0.65)"></path><path d="M987 306 a3 3 0 1 0 6 0 a3 3 0 1 0 -6 0zM1011 306 a3 3 0 1 0 6 0 a3 3 0 1 0 -6 0z" fill="rgba(255, 0, 0, 0.65)"></path><path d="M918 174L882 174" stroke-width="2" stroke="rgba(255, 0, 0, 0.65)"></path><path d="M915 174 a3 3 0 1 0 6 0 a3 3 0 1 0 -6 0zM879 174 a3 3 0 1 0 6 0 a3 3 0 1 0 -6 0z" fill="rgba(255, 0, 0, 0.65)"></path><path d="M942 30L942 6" stroke-width="2" stroke="rgba(255, 0, 0, 0.65)"></path><path d="M939 30 a3 3 0 1 0 6 0 a3 3 0 1 0 -6 0zM939 6 a3 3 0 1 0 6 0 a3 3 0 1 0 -6 0z" fill="rgba(255, 0, 0, 0.65)"></path><path d="M894 210L882 222L882 234" stroke-width="2" stroke="rgba(255, 0, 0, 0.65)"></path><path d="M891 210 a3 3 0 1 0 6 0 a3 3 0 1 0 -6 0zM879 234 a3 3 0 1 0 6 0 a3 3 0 1 0 -6 0z" fill="rgba(255, 0, 0, 0.65)"></path><path d="M942 150L942 174" stroke-width="2" stroke="rgba(255, 0, 0, 0.65)"></path><path d="M939 150 a3 3 0 1 0 6 0 a3 3 0 1 0 -6 0zM939 174 a3 3 0 1 0 6 0 a3 3 0 1 0 -6 0z" fill="rgba(255, 0, 0, 0.65)"></path><path d="M918 162L918 138" stroke-width="2" stroke="rgba(255, 0, 0, 0.65)"></path><path d="M915 162 a3 3 0 1 0 6 0 a3 3 0 1 0 -6 0zM915 138 a3 3 0 1 0 6 0 a3 3 0 1 0 -6 0z" fill="rgba(255, 0, 0, 0.65)"></path><path d="M594 282L570 282" stroke-width="2" stroke="rgba(255, 0, 0, 0.65)"></path><path d="M591 282 a3 3 0 1 0 6 0 a3 3 0 1 0 -6 0zM567 282 a3 3 0 1 0 6 0 a3 3 0 1 0 -6 0z" fill="rgba(255, 0, 0, 0.65)"></path><path d="M462 270L426 270" stroke-width="2" stroke="rgba(255, 0, 0, 0.65)"></path><path d="M459 270 a3 3 0 1 0 6 0 a3 3 0 1 0 -6 0zM423 270 a3 3 0 1 0 6 0 a3 3 0 1 0 -6 0z" fill="rgba(255, 0, 0, 0.65)"></path><path d="M978 306L954 306" stroke-width="2" stroke="rgba(255, 0, 0, 0.65)"></path><path d="M975 306 a3 3 0 1 0 6 0 a3 3 0 1 0 -6 0zM951 306 a3 3 0 1 0 6 0 a3 3 0 1 0 -6 0z" fill="rgba(255, 0, 0, 0.65)"></path><path d="M138 126L162 126" stroke-width="2" stroke="rgba(255, 0, 0, 0.65)"></path><path d="M135 126 a3 3 0 1 0 6 0 a3 3 0 1 0 -6 0zM159 126 a3 3 0 1 0 6 0 a3 3 0 1 0 -6 0z" fill="rgba(255, 0, 0, 0.65)"></path></g></g><defs><mask id="SvgjsMask1495"><rect width="1084" height="322" fill="#ffffff"></rect></mask><mask id="SvgjsMask1496"><rect width="1084" height="322" fill="white"></rect><path d="M1048.5 126 a1.5 1.5 0 1 0 3 0 a1.5 1.5 0 1 0 -3 0zM952.5 6 a1.5 1.5 0 1 0 3 0 a1.5 1.5 0 1 0 -3 0z" fill="black"></path><path d="M16.5 306 a1.5 1.5 0 1 0 3 0 a1.5 1.5 0 1 0 -3 0zM52.5 78 a1.5 1.5 0 1 0 3 0 a1.5 1.5 0 1 0 -3 0z" fill="black"></path><path d="M808.5 78 a1.5 1.5 0 1 0 3 0 a1.5 1.5 0 1 0 -3 0zM604.5 66 a1.5 1.5 0 1 0 3 0 a1.5 1.5 0 1 0 -3 0z" fill="black"></path><path d="M400.5 198 a1.5 1.5 0 1 0 3 0 a1.5 1.5 0 1 0 -3 0zM400.5 6 a1.5 1.5 0 1 0 3 0 a1.5 1.5 0 1 0 -3 0z" fill="black"></path><path d="M592.5 114 a1.5 1.5 0 1 0 3 0 a1.5 1.5 0 1 0 -3 0zM592.5 6 a1.5 1.5 0 1 0 3 0 a1.5 1.5 0 1 0 -3 0z" fill="black"></path><path d="M196.5 102 a1.5 1.5 0 1 0 3 0 a1.5 1.5 0 1 0 -3 0zM124.5 318 a1.5 1.5 0 1 0 3 0 a1.5 1.5 0 1 0 -3 0z" fill="black"></path><path d="M892.5 6 a1.5 1.5 0 1 0 3 0 a1.5 1.5 0 1 0 -3 0zM1084.5 198 a1.5 1.5 0 1 0 3 0 a1.5 1.5 0 1 0 -3 0z" fill="black"></path><path d="M628.5 138 a1.5 1.5 0 1 0 3 0 a1.5 1.5 0 1 0 -3 0zM856.5 138 a1.5 1.5 0 1 0 3 0 a1.5 1.5 0 1 0 -3 0z" fill="black"></path><path d="M928.5 54 a1.5 1.5 0 1 0 3 0 a1.5 1.5 0 1 0 -3 0zM700.5 6 a1.5 1.5 0 1 0 3 0 a1.5 1.5 0 1 0 -3 0z" fill="black"></path><path d="M472.5 102 a1.5 1.5 0 1 0 3 0 a1.5 1.5 0 1 0 -3 0zM580.5 42 a1.5 1.5 0 1 0 3 0 a1.5 1.5 0 1 0 -3 0z" fill="black"></path><path d="M4.5 114 a1.5 1.5 0 1 0 3 0 a1.5 1.5 0 1 0 -3 0zM232.5 6 a1.5 1.5 0 1 0 3 0 a1.5 1.5 0 1 0 -3 0z" fill="black"></path><path d="M1012.5 150 a1.5 1.5 0 1 0 3 0 a1.5 1.5 0 1 0 -3 0zM820.5 102 a1.5 1.5 0 1 0 3 0 a1.5 1.5 0 1 0 -3 0z" fill="black"></path><path d="M76.5 126 a1.5 1.5 0 1 0 3 0 a1.5 1.5 0 1 0 -3 0zM16.5 126 a1.5 1.5 0 1 0 3 0 a1.5 1.5 0 1 0 -3 0z" fill="black"></path><path d="M184.5 186 a1.5 1.5 0 1 0 3 0 a1.5 1.5 0 1 0 -3 0zM52.5 246 a1.5 1.5 0 1 0 3 0 a1.5 1.5 0 1 0 -3 0z" fill="black"></path><path d="M844.5 258 a1.5 1.5 0 1 0 3 0 a1.5 1.5 0 1 0 -3 0zM1072.5 234 a1.5 1.5 0 1 0 3 0 a1.5 1.5 0 1 0 -3 0z" fill="black"></path><path d="M760.5 258 a1.5 1.5 0 1 0 3 0 a1.5 1.5 0 1 0 -3 0zM844.5 150 a1.5 1.5 0 1 0 3 0 a1.5 1.5 0 1 0 -3 0z" fill="black"></path><path d="M808.5 42 a1.5 1.5 0 1 0 3 0 a1.5 1.5 0 1 0 -3 0zM784.5 18 a1.5 1.5 0 1 0 3 0 a1.5 1.5 0 1 0 -3 0z" fill="black"></path><path d="M244.5 150 a1.5 1.5 0 1 0 3 0 a1.5 1.5 0 1 0 -3 0zM472.5 318 a1.5 1.5 0 1 0 3 0 a1.5 1.5 0 1 0 -3 0z" fill="black"></path><path d="M292.5 186 a1.5 1.5 0 1 0 3 0 a1.5 1.5 0 1 0 -3 0zM64.5 66 a1.5 1.5 0 1 0 3 0 a1.5 1.5 0 1 0 -3 0z" fill="black"></path><path d="M1012.5 174 a1.5 1.5 0 1 0 3 0 a1.5 1.5 0 1 0 -3 0zM784.5 126 a1.5 1.5 0 1 0 3 0 a1.5 1.5 0 1 0 -3 0z" fill="black"></path><path d="M196.5 42 a1.5 1.5 0 1 0 3 0 a1.5 1.5 0 1 0 -3 0zM388.5 174 a1.5 1.5 0 1 0 3 0 a1.5 1.5 0 1 0 -3 0z" fill="black"></path><path d="M784.5 270 a1.5 1.5 0 1 0 3 0 a1.5 1.5 0 1 0 -3 0zM556.5 318 a1.5 1.5 0 1 0 3 0 a1.5 1.5 0 1 0 -3 0z" fill="black"></path><path d="M1060.5 210 a1.5 1.5 0 1 0 3 0 a1.5 1.5 0 1 0 -3 0zM928.5 318 a1.5 1.5 0 1 0 3 0 a1.5 1.5 0 1 0 -3 0z" fill="black"></path><path d="M496.5 114 a1.5 1.5 0 1 0 3 0 a1.5 1.5 0 1 0 -3 0zM424.5 6 a1.5 1.5 0 1 0 3 0 a1.5 1.5 0 1 0 -3 0z" fill="black"></path><path d="M328.5 126 a1.5 1.5 0 1 0 3 0 a1.5 1.5 0 1 0 -3 0zM268.5 6 a1.5 1.5 0 1 0 3 0 a1.5 1.5 0 1 0 -3 0z" fill="black"></path><path d="M64.5 138 a1.5 1.5 0 1 0 3 0 a1.5 1.5 0 1 0 -3 0zM64.5 234 a1.5 1.5 0 1 0 3 0 a1.5 1.5 0 1 0 -3 0z" fill="black"></path><path d="M340.5 186 a1.5 1.5 0 1 0 3 0 a1.5 1.5 0 1 0 -3 0zM520.5 306 a1.5 1.5 0 1 0 3 0 a1.5 1.5 0 1 0 -3 0z" fill="black"></path><path d="M880.5 306 a1.5 1.5 0 1 0 3 0 a1.5 1.5 0 1 0 -3 0zM712.5 318 a1.5 1.5 0 1 0 3 0 a1.5 1.5 0 1 0 -3 0z" fill="black"></path><path d="M748.5 54 a1.5 1.5 0 1 0 3 0 a1.5 1.5 0 1 0 -3 0zM772.5 30 a1.5 1.5 0 1 0 3 0 a1.5 1.5 0 1 0 -3 0z" fill="black"></path><path d="M316.5 126 a1.5 1.5 0 1 0 3 0 a1.5 1.5 0 1 0 -3 0zM136.5 18 a1.5 1.5 0 1 0 3 0 a1.5 1.5 0 1 0 -3 0z" fill="black"></path><path d="M808.5 66 a1.5 1.5 0 1 0 3 0 a1.5 1.5 0 1 0 -3 0zM820.5 42 a1.5 1.5 0 1 0 3 0 a1.5 1.5 0 1 0 -3 0z" fill="black"></path><path d="M628.5 246 a1.5 1.5 0 1 0 3 0 a1.5 1.5 0 1 0 -3 0zM832.5 150 a1.5 1.5 0 1 0 3 0 a1.5 1.5 0 1 0 -3 0z" fill="black"></path><path d="M928.5 210 a1.5 1.5 0 1 0 3 0 a1.5 1.5 0 1 0 -3 0zM952.5 138 a1.5 1.5 0 1 0 3 0 a1.5 1.5 0 1 0 -3 0z" fill="black"></path><path d="M868.5 186 a1.5 1.5 0 1 0 3 0 a1.5 1.5 0 1 0 -3 0zM940.5 186 a1.5 1.5 0 1 0 3 0 a1.5 1.5 0 1 0 -3 0z" fill="black"></path><path d="M16.5 270 a1.5 1.5 0 1 0 3 0 a1.5 1.5 0 1 0 -3 0zM4.5 318 a1.5 1.5 0 1 0 3 0 a1.5 1.5 0 1 0 -3 0z" fill="black"></path><path d="M40.5 114 a1.5 1.5 0 1 0 3 0 a1.5 1.5 0 1 0 -3 0zM184.5 174 a1.5 1.5 0 1 0 3 0 a1.5 1.5 0 1 0 -3 0z" fill="black"></path><path d="M184.5 30 a1.5 1.5 0 1 0 3 0 a1.5 1.5 0 1 0 -3 0zM148.5 30 a1.5 1.5 0 1 0 3 0 a1.5 1.5 0 1 0 -3 0z" fill="black"></path><path d="M556.5 150 a1.5 1.5 0 1 0 3 0 a1.5 1.5 0 1 0 -3 0zM784.5 114 a1.5 1.5 0 1 0 3 0 a1.5 1.5 0 1 0 -3 0z" fill="black"></path><path d="M148.5 318 a1.5 1.5 0 1 0 3 0 a1.5 1.5 0 1 0 -3 0zM208.5 126 a1.5 1.5 0 1 0 3 0 a1.5 1.5 0 1 0 -3 0z" fill="black"></path><path d="M508.5 138 a1.5 1.5 0 1 0 3 0 a1.5 1.5 0 1 0 -3 0zM412.5 126 a1.5 1.5 0 1 0 3 0 a1.5 1.5 0 1 0 -3 0z" fill="black"></path><path d="M880.5 282 a1.5 1.5 0 1 0 3 0 a1.5 1.5 0 1 0 -3 0zM736.5 282 a1.5 1.5 0 1 0 3 0 a1.5 1.5 0 1 0 -3 0z" fill="black"></path><path d="M940.5 282 a1.5 1.5 0 1 0 3 0 a1.5 1.5 0 1 0 -3 0zM880.5 294 a1.5 1.5 0 1 0 3 0 a1.5 1.5 0 1 0 -3 0z" fill="black"></path><path d="M760.5 186 a1.5 1.5 0 1 0 3 0 a1.5 1.5 0 1 0 -3 0zM772.5 162 a1.5 1.5 0 1 0 3 0 a1.5 1.5 0 1 0 -3 0z" fill="black"></path><path d="M868.5 222 a1.5 1.5 0 1 0 3 0 a1.5 1.5 0 1 0 -3 0zM880.5 198 a1.5 1.5 0 1 0 3 0 a1.5 1.5 0 1 0 -3 0z" fill="black"></path><path d="M616.5 282 a1.5 1.5 0 1 0 3 0 a1.5 1.5 0 1 0 -3 0zM760.5 162 a1.5 1.5 0 1 0 3 0 a1.5 1.5 0 1 0 -3 0z" fill="black"></path><path d="M532.5 126 a1.5 1.5 0 1 0 3 0 a1.5 1.5 0 1 0 -3 0zM484.5 78 a1.5 1.5 0 1 0 3 0 a1.5 1.5 0 1 0 -3 0z" fill="black"></path><path d="M328.5 78 a1.5 1.5 0 1 0 3 0 a1.5 1.5 0 1 0 -3 0zM364.5 150 a1.5 1.5 0 1 0 3 0 a1.5 1.5 0 1 0 -3 0z" fill="black"></path><path d="M784.5 174 a1.5 1.5 0 1 0 3 0 a1.5 1.5 0 1 0 -3 0zM832.5 162 a1.5 1.5 0 1 0 3 0 a1.5 1.5 0 1 0 -3 0z" fill="black"></path><path d="M340.5 270 a1.5 1.5 0 1 0 3 0 a1.5 1.5 0 1 0 -3 0zM280.5 198 a1.5 1.5 0 1 0 3 0 a1.5 1.5 0 1 0 -3 0z" fill="black"></path><path d="M928.5 66 a1.5 1.5 0 1 0 3 0 a1.5 1.5 0 1 0 -3 0zM820.5 66 a1.5 1.5 0 1 0 3 0 a1.5 1.5 0 1 0 -3 0z" fill="black"></path><path d="M976.5 162 a1.5 1.5 0 1 0 3 0 a1.5 1.5 0 1 0 -3 0zM1060.5 222 a1.5 1.5 0 1 0 3 0 a1.5 1.5 0 1 0 -3 0z" fill="black"></path><path d="M28.5 258 a1.5 1.5 0 1 0 3 0 a1.5 1.5 0 1 0 -3 0zM4.5 210 a1.5 1.5 0 1 0 3 0 a1.5 1.5 0 1 0 -3 0z" fill="black"></path><path d="M796.5 198 a1.5 1.5 0 1 0 3 0 a1.5 1.5 0 1 0 -3 0zM628.5 282 a1.5 1.5 0 1 0 3 0 a1.5 1.5 0 1 0 -3 0z" fill="black"></path><path d="M544.5 282 a1.5 1.5 0 1 0 3 0 a1.5 1.5 0 1 0 -3 0zM688.5 306 a1.5 1.5 0 1 0 3 0 a1.5 1.5 0 1 0 -3 0z" fill="black"></path><path d="M544.5 126 a1.5 1.5 0 1 0 3 0 a1.5 1.5 0 1 0 -3 0zM580.5 54 a1.5 1.5 0 1 0 3 0 a1.5 1.5 0 1 0 -3 0z" fill="black"></path><path d="M604.5 222 a1.5 1.5 0 1 0 3 0 a1.5 1.5 0 1 0 -3 0zM652.5 150 a1.5 1.5 0 1 0 3 0 a1.5 1.5 0 1 0 -3 0z" fill="black"></path><path d="M268.5 222 a1.5 1.5 0 1 0 3 0 a1.5 1.5 0 1 0 -3 0zM160.5 318 a1.5 1.5 0 1 0 3 0 a1.5 1.5 0 1 0 -3 0z" fill="black"></path><path d="M124.5 126 a1.5 1.5 0 1 0 3 0 a1.5 1.5 0 1 0 -3 0zM172.5 138 a1.5 1.5 0 1 0 3 0 a1.5 1.5 0 1 0 -3 0z" fill="black"></path><path d="M4.5 18 a1.5 1.5 0 1 0 3 0 a1.5 1.5 0 1 0 -3 0zM4.5 102 a1.5 1.5 0 1 0 3 0 a1.5 1.5 0 1 0 -3 0z" fill="black"></path><path d="M208.5 90 a1.5 1.5 0 1 0 3 0 a1.5 1.5 0 1 0 -3 0zM160.5 42 a1.5 1.5 0 1 0 3 0 a1.5 1.5 0 1 0 -3 0z" fill="black"></path><path d="M172.5 222 a1.5 1.5 0 1 0 3 0 a1.5 1.5 0 1 0 -3 0zM16.5 318 a1.5 1.5 0 1 0 3 0 a1.5 1.5 0 1 0 -3 0z" fill="black"></path><path d="M988.5 18 a1.5 1.5 0 1 0 3 0 a1.5 1.5 0 1 0 -3 0zM1084.5 162 a1.5 1.5 0 1 0 3 0 a1.5 1.5 0 1 0 -3 0z" fill="black"></path><path d="M496.5 198 a1.5 1.5 0 1 0 3 0 a1.5 1.5 0 1 0 -3 0zM580.5 66 a1.5 1.5 0 1 0 3 0 a1.5 1.5 0 1 0 -3 0z" fill="black"></path><path d="M652.5 78 a1.5 1.5 0 1 0 3 0 a1.5 1.5 0 1 0 -3 0zM628.5 54 a1.5 1.5 0 1 0 3 0 a1.5 1.5 0 1 0 -3 0z" fill="black"></path><path d="M316.5 258 a1.5 1.5 0 1 0 3 0 a1.5 1.5 0 1 0 -3 0zM400.5 318 a1.5 1.5 0 1 0 3 0 a1.5 1.5 0 1 0 -3 0z" fill="black"></path><path d="M604.5 78 a1.5 1.5 0 1 0 3 0 a1.5 1.5 0 1 0 -3 0zM664.5 114 a1.5 1.5 0 1 0 3 0 a1.5 1.5 0 1 0 -3 0z" fill="black"></path><path d="M124.5 246 a1.5 1.5 0 1 0 3 0 a1.5 1.5 0 1 0 -3 0zM40.5 318 a1.5 1.5 0 1 0 3 0 a1.5 1.5 0 1 0 -3 0z" fill="black"></path><path d="M256.5 294 a1.5 1.5 0 1 0 3 0 a1.5 1.5 0 1 0 -3 0zM172.5 318 a1.5 1.5 0 1 0 3 0 a1.5 1.5 0 1 0 -3 0z" fill="black"></path><path d="M280.5 282 a1.5 1.5 0 1 0 3 0 a1.5 1.5 0 1 0 -3 0zM196.5 294 a1.5 1.5 0 1 0 3 0 a1.5 1.5 0 1 0 -3 0z" fill="black"></path><path d="M676.5 198 a1.5 1.5 0 1 0 3 0 a1.5 1.5 0 1 0 -3 0zM640.5 246 a1.5 1.5 0 1 0 3 0 a1.5 1.5 0 1 0 -3 0z" fill="black"></path><path d="M316.5 42 a1.5 1.5 0 1 0 3 0 a1.5 1.5 0 1 0 -3 0zM256.5 6 a1.5 1.5 0 1 0 3 0 a1.5 1.5 0 1 0 -3 0z" fill="black"></path><path d="M580.5 258 a1.5 1.5 0 1 0 3 0 a1.5 1.5 0 1 0 -3 0zM628.5 258 a1.5 1.5 0 1 0 3 0 a1.5 1.5 0 1 0 -3 0z" fill="black"></path><path d="M64.5 42 a1.5 1.5 0 1 0 3 0 a1.5 1.5 0 1 0 -3 0zM16.5 42 a1.5 1.5 0 1 0 3 0 a1.5 1.5 0 1 0 -3 0z" fill="black"></path><path d="M496.5 210 a1.5 1.5 0 1 0 3 0 a1.5 1.5 0 1 0 -3 0zM352.5 186 a1.5 1.5 0 1 0 3 0 a1.5 1.5 0 1 0 -3 0z" fill="black"></path><path d="M964.5 90 a1.5 1.5 0 1 0 3 0 a1.5 1.5 0 1 0 -3 0zM736.5 66 a1.5 1.5 0 1 0 3 0 a1.5 1.5 0 1 0 -3 0z" fill="black"></path><path d="M520.5 270 a1.5 1.5 0 1 0 3 0 a1.5 1.5 0 1 0 -3 0zM508.5 294 a1.5 1.5 0 1 0 3 0 a1.5 1.5 0 1 0 -3 0z" fill="black"></path><path d="M364.5 102 a1.5 1.5 0 1 0 3 0 a1.5 1.5 0 1 0 -3 0zM376.5 138 a1.5 1.5 0 1 0 3 0 a1.5 1.5 0 1 0 -3 0z" fill="black"></path><path d="M412.5 66 a1.5 1.5 0 1 0 3 0 a1.5 1.5 0 1 0 -3 0zM412.5 6 a1.5 1.5 0 1 0 3 0 a1.5 1.5 0 1 0 -3 0z" fill="black"></path><path d="M208.5 210 a1.5 1.5 0 1 0 3 0 a1.5 1.5 0 1 0 -3 0zM208.5 246 a1.5 1.5 0 1 0 3 0 a1.5 1.5 0 1 0 -3 0z" fill="black"></path><path d="M1060.5 78 a1.5 1.5 0 1 0 3 0 a1.5 1.5 0 1 0 -3 0zM1072.5 30 a1.5 1.5 0 1 0 3 0 a1.5 1.5 0 1 0 -3 0z" fill="black"></path><path d="M484.5 294 a1.5 1.5 0 1 0 3 0 a1.5 1.5 0 1 0 -3 0zM544.5 150 a1.5 1.5 0 1 0 3 0 a1.5 1.5 0 1 0 -3 0z" fill="black"></path><path d="M340.5 66 a1.5 1.5 0 1 0 3 0 a1.5 1.5 0 1 0 -3 0zM268.5 66 a1.5 1.5 0 1 0 3 0 a1.5 1.5 0 1 0 -3 0z" fill="black"></path><path d="M820.5 6 a1.5 1.5 0 1 0 3 0 a1.5 1.5 0 1 0 -3 0zM916.5 42 a1.5 1.5 0 1 0 3 0 a1.5 1.5 0 1 0 -3 0z" fill="black"></path><path d="M1060.5 42 a1.5 1.5 0 1 0 3 0 a1.5 1.5 0 1 0 -3 0zM964.5 30 a1.5 1.5 0 1 0 3 0 a1.5 1.5 0 1 0 -3 0z" fill="black"></path><path d="M724.5 78 a1.5 1.5 0 1 0 3 0 a1.5 1.5 0 1 0 -3 0zM724.5 30 a1.5 1.5 0 1 0 3 0 a1.5 1.5 0 1 0 -3 0z" fill="black"></path><path d="M448.5 294 a1.5 1.5 0 1 0 3 0 a1.5 1.5 0 1 0 -3 0zM532.5 150 a1.5 1.5 0 1 0 3 0 a1.5 1.5 0 1 0 -3 0z" fill="black"></path><path d="M292.5 222 a1.5 1.5 0 1 0 3 0 a1.5 1.5 0 1 0 -3 0zM364.5 318 a1.5 1.5 0 1 0 3 0 a1.5 1.5 0 1 0 -3 0z" fill="black"></path><path d="M976.5 18 a1.5 1.5 0 1 0 3 0 a1.5 1.5 0 1 0 -3 0zM1084.5 6 a1.5 1.5 0 1 0 3 0 a1.5 1.5 0 1 0 -3 0z" fill="black"></path><path d="M916.5 114 a1.5 1.5 0 1 0 3 0 a1.5 1.5 0 1 0 -3 0zM688.5 114 a1.5 1.5 0 1 0 3 0 a1.5 1.5 0 1 0 -3 0z" fill="black"></path><path d="M136.5 258 a1.5 1.5 0 1 0 3 0 a1.5 1.5 0 1 0 -3 0zM160.5 282 a1.5 1.5 0 1 0 3 0 a1.5 1.5 0 1 0 -3 0z" fill="black"></path><path d="M976.5 210 a1.5 1.5 0 1 0 3 0 a1.5 1.5 0 1 0 -3 0zM1024.5 126 a1.5 1.5 0 1 0 3 0 a1.5 1.5 0 1 0 -3 0z" fill="black"></path><path d="M436.5 246 a1.5 1.5 0 1 0 3 0 a1.5 1.5 0 1 0 -3 0zM496.5 138 a1.5 1.5 0 1 0 3 0 a1.5 1.5 0 1 0 -3 0z" fill="black"></path><path d="M160.5 198 a1.5 1.5 0 1 0 3 0 a1.5 1.5 0 1 0 -3 0zM52.5 270 a1.5 1.5 0 1 0 3 0 a1.5 1.5 0 1 0 -3 0z" fill="black"></path><path d="M76.5 78 a1.5 1.5 0 1 0 3 0 a1.5 1.5 0 1 0 -3 0zM184.5 126 a1.5 1.5 0 1 0 3 0 a1.5 1.5 0 1 0 -3 0z" fill="black"></path><path d="M616.5 162 a1.5 1.5 0 1 0 3 0 a1.5 1.5 0 1 0 -3 0zM628.5 294 a1.5 1.5 0 1 0 3 0 a1.5 1.5 0 1 0 -3 0z" fill="black"></path><path d="M1048.5 174 a1.5 1.5 0 1 0 3 0 a1.5 1.5 0 1 0 -3 0zM976.5 186 a1.5 1.5 0 1 0 3 0 a1.5 1.5 0 1 0 -3 0z" fill="black"></path><path d="M532.5 234 a1.5 1.5 0 1 0 3 0 a1.5 1.5 0 1 0 -3 0zM532.5 186 a1.5 1.5 0 1 0 3 0 a1.5 1.5 0 1 0 -3 0z" fill="black"></path><path d="M616.5 246 a1.5 1.5 0 1 0 3 0 a1.5 1.5 0 1 0 -3 0zM568.5 246 a1.5 1.5 0 1 0 3 0 a1.5 1.5 0 1 0 -3 0z" fill="black"></path><path d="M256.5 270 a1.5 1.5 0 1 0 3 0 a1.5 1.5 0 1 0 -3 0zM280.5 270 a1.5 1.5 0 1 0 3 0 a1.5 1.5 0 1 0 -3 0z" fill="black"></path><path d="M832.5 198 a1.5 1.5 0 1 0 3 0 a1.5 1.5 0 1 0 -3 0zM760.5 246 a1.5 1.5 0 1 0 3 0 a1.5 1.5 0 1 0 -3 0z" fill="black"></path><path d="M544.5 270 a1.5 1.5 0 1 0 3 0 a1.5 1.5 0 1 0 -3 0zM520.5 294 a1.5 1.5 0 1 0 3 0 a1.5 1.5 0 1 0 -3 0z" fill="black"></path><path d="M88.5 294 a1.5 1.5 0 1 0 3 0 a1.5 1.5 0 1 0 -3 0zM52.5 306 a1.5 1.5 0 1 0 3 0 a1.5 1.5 0 1 0 -3 0z" fill="black"></path><path d="M844.5 294 a1.5 1.5 0 1 0 3 0 a1.5 1.5 0 1 0 -3 0zM1072.5 246 a1.5 1.5 0 1 0 3 0 a1.5 1.5 0 1 0 -3 0z" fill="black"></path><path d="M412.5 162 a1.5 1.5 0 1 0 3 0 a1.5 1.5 0 1 0 -3 0zM484.5 138 a1.5 1.5 0 1 0 3 0 a1.5 1.5 0 1 0 -3 0z" fill="black"></path><path d="M832.5 282 a1.5 1.5 0 1 0 3 0 a1.5 1.5 0 1 0 -3 0zM808.5 282 a1.5 1.5 0 1 0 3 0 a1.5 1.5 0 1 0 -3 0z" fill="black"></path><path d="M892.5 162 a1.5 1.5 0 1 0 3 0 a1.5 1.5 0 1 0 -3 0zM868.5 138 a1.5 1.5 0 1 0 3 0 a1.5 1.5 0 1 0 -3 0z" fill="black"></path><path d="M616.5 174 a1.5 1.5 0 1 0 3 0 a1.5 1.5 0 1 0 -3 0zM640.5 150 a1.5 1.5 0 1 0 3 0 a1.5 1.5 0 1 0 -3 0z" fill="black"></path><path d="M580.5 174 a1.5 1.5 0 1 0 3 0 a1.5 1.5 0 1 0 -3 0zM556.5 210 a1.5 1.5 0 1 0 3 0 a1.5 1.5 0 1 0 -3 0z" fill="black"></path><path d="M232.5 102 a1.5 1.5 0 1 0 3 0 a1.5 1.5 0 1 0 -3 0zM172.5 42 a1.5 1.5 0 1 0 3 0 a1.5 1.5 0 1 0 -3 0z" fill="black"></path><path d="M232.5 222 a1.5 1.5 0 1 0 3 0 a1.5 1.5 0 1 0 -3 0zM208.5 138 a1.5 1.5 0 1 0 3 0 a1.5 1.5 0 1 0 -3 0z" fill="black"></path><path d="M604.5 30 a1.5 1.5 0 1 0 3 0 a1.5 1.5 0 1 0 -3 0zM604.5 6 a1.5 1.5 0 1 0 3 0 a1.5 1.5 0 1 0 -3 0z" fill="black"></path><path d="M952.5 294 a1.5 1.5 0 1 0 3 0 a1.5 1.5 0 1 0 -3 0zM1036.5 306 a1.5 1.5 0 1 0 3 0 a1.5 1.5 0 1 0 -3 0z" fill="black"></path><path d="M448.5 174 a1.5 1.5 0 1 0 3 0 a1.5 1.5 0 1 0 -3 0zM484.5 150 a1.5 1.5 0 1 0 3 0 a1.5 1.5 0 1 0 -3 0z" fill="black"></path><path d="M1060.5 114 a1.5 1.5 0 1 0 3 0 a1.5 1.5 0 1 0 -3 0zM1072.5 78 a1.5 1.5 0 1 0 3 0 a1.5 1.5 0 1 0 -3 0z" fill="black"></path><path d="M568.5 150 a1.5 1.5 0 1 0 3 0 a1.5 1.5 0 1 0 -3 0zM556.5 198 a1.5 1.5 0 1 0 3 0 a1.5 1.5 0 1 0 -3 0z" fill="black"></path><path d="M112.5 162 a1.5 1.5 0 1 0 3 0 a1.5 1.5 0 1 0 -3 0zM88.5 186 a1.5 1.5 0 1 0 3 0 a1.5 1.5 0 1 0 -3 0z" fill="black"></path><path d="M148.5 78 a1.5 1.5 0 1 0 3 0 a1.5 1.5 0 1 0 -3 0zM172.5 114 a1.5 1.5 0 1 0 3 0 a1.5 1.5 0 1 0 -3 0z" fill="black"></path><path d="M844.5 30 a1.5 1.5 0 1 0 3 0 a1.5 1.5 0 1 0 -3 0zM892.5 42 a1.5 1.5 0 1 0 3 0 a1.5 1.5 0 1 0 -3 0z" fill="black"></path><path d="M760.5 78 a1.5 1.5 0 1 0 3 0 a1.5 1.5 0 1 0 -3 0zM796.5 78 a1.5 1.5 0 1 0 3 0 a1.5 1.5 0 1 0 -3 0z" fill="black"></path><path d="M328.5 150 a1.5 1.5 0 1 0 3 0 a1.5 1.5 0 1 0 -3 0zM244.5 78 a1.5 1.5 0 1 0 3 0 a1.5 1.5 0 1 0 -3 0z" fill="black"></path><path d="M700.5 78 a1.5 1.5 0 1 0 3 0 a1.5 1.5 0 1 0 -3 0zM712.5 102 a1.5 1.5 0 1 0 3 0 a1.5 1.5 0 1 0 -3 0z" fill="black"></path><path d="M604.5 138 a1.5 1.5 0 1 0 3 0 a1.5 1.5 0 1 0 -3 0zM628.5 150 a1.5 1.5 0 1 0 3 0 a1.5 1.5 0 1 0 -3 0z" fill="black"></path><path d="M364.5 54 a1.5 1.5 0 1 0 3 0 a1.5 1.5 0 1 0 -3 0zM388.5 90 a1.5 1.5 0 1 0 3 0 a1.5 1.5 0 1 0 -3 0z" fill="black"></path><path d="M292.5 78 a1.5 1.5 0 1 0 3 0 a1.5 1.5 0 1 0 -3 0zM316.5 114 a1.5 1.5 0 1 0 3 0 a1.5 1.5 0 1 0 -3 0z" fill="black"></path><path d="M76.5 102 a1.5 1.5 0 1 0 3 0 a1.5 1.5 0 1 0 -3 0zM40.5 102 a1.5 1.5 0 1 0 3 0 a1.5 1.5 0 1 0 -3 0z" fill="black"></path><path d="M640.5 174 a1.5 1.5 0 1 0 3 0 a1.5 1.5 0 1 0 -3 0zM616.5 186 a1.5 1.5 0 1 0 3 0 a1.5 1.5 0 1 0 -3 0z" fill="black"></path><path d="M676.5 246 a1.5 1.5 0 1 0 3 0 a1.5 1.5 0 1 0 -3 0zM676.5 282 a1.5 1.5 0 1 0 3 0 a1.5 1.5 0 1 0 -3 0z" fill="black"></path><path d="M64.5 6 a1.5 1.5 0 1 0 3 0 a1.5 1.5 0 1 0 -3 0zM100.5 6 a1.5 1.5 0 1 0 3 0 a1.5 1.5 0 1 0 -3 0z" fill="black"></path><path d="M1048.5 282 a1.5 1.5 0 1 0 3 0 a1.5 1.5 0 1 0 -3 0zM1048.5 258 a1.5 1.5 0 1 0 3 0 a1.5 1.5 0 1 0 -3 0z" fill="black"></path><path d="M88.5 102 a1.5 1.5 0 1 0 3 0 a1.5 1.5 0 1 0 -3 0zM88.5 66 a1.5 1.5 0 1 0 3 0 a1.5 1.5 0 1 0 -3 0z" fill="black"></path><path d="M964.5 162 a1.5 1.5 0 1 0 3 0 a1.5 1.5 0 1 0 -3 0zM964.5 138 a1.5 1.5 0 1 0 3 0 a1.5 1.5 0 1 0 -3 0z" fill="black"></path><path d="M700.5 246 a1.5 1.5 0 1 0 3 0 a1.5 1.5 0 1 0 -3 0zM688.5 282 a1.5 1.5 0 1 0 3 0 a1.5 1.5 0 1 0 -3 0z" fill="black"></path><path d="M340.5 42 a1.5 1.5 0 1 0 3 0 a1.5 1.5 0 1 0 -3 0zM388.5 6 a1.5 1.5 0 1 0 3 0 a1.5 1.5 0 1 0 -3 0z" fill="black"></path><path d="M472.5 6 a1.5 1.5 0 1 0 3 0 a1.5 1.5 0 1 0 -3 0zM580.5 6 a1.5 1.5 0 1 0 3 0 a1.5 1.5 0 1 0 -3 0z" fill="black"></path><path d="M352.5 6 a1.5 1.5 0 1 0 3 0 a1.5 1.5 0 1 0 -3 0zM328.5 30 a1.5 1.5 0 1 0 3 0 a1.5 1.5 0 1 0 -3 0z" fill="black"></path><path d="M748.5 198 a1.5 1.5 0 1 0 3 0 a1.5 1.5 0 1 0 -3 0zM760.5 222 a1.5 1.5 0 1 0 3 0 a1.5 1.5 0 1 0 -3 0z" fill="black"></path><path d="M676.5 54 a1.5 1.5 0 1 0 3 0 a1.5 1.5 0 1 0 -3 0zM712.5 54 a1.5 1.5 0 1 0 3 0 a1.5 1.5 0 1 0 -3 0z" fill="black"></path><path d="M40.5 6 a1.5 1.5 0 1 0 3 0 a1.5 1.5 0 1 0 -3 0zM76.5 30 a1.5 1.5 0 1 0 3 0 a1.5 1.5 0 1 0 -3 0z" fill="black"></path><path d="M376.5 294 a1.5 1.5 0 1 0 3 0 a1.5 1.5 0 1 0 -3 0zM352.5 270 a1.5 1.5 0 1 0 3 0 a1.5 1.5 0 1 0 -3 0z" fill="black"></path><path d="M496.5 30 a1.5 1.5 0 1 0 3 0 a1.5 1.5 0 1 0 -3 0zM436.5 102 a1.5 1.5 0 1 0 3 0 a1.5 1.5 0 1 0 -3 0z" fill="black"></path><path d="M436.5 30 a1.5 1.5 0 1 0 3 0 a1.5 1.5 0 1 0 -3 0zM460.5 6 a1.5 1.5 0 1 0 3 0 a1.5 1.5 0 1 0 -3 0z" fill="black"></path><path d="M1060.5 126 a1.5 1.5 0 1 0 3 0 a1.5 1.5 0 1 0 -3 0zM1072.5 150 a1.5 1.5 0 1 0 3 0 a1.5 1.5 0 1 0 -3 0z" fill="black"></path><path d="M100.5 42 a1.5 1.5 0 1 0 3 0 a1.5 1.5 0 1 0 -3 0zM136.5 42 a1.5 1.5 0 1 0 3 0 a1.5 1.5 0 1 0 -3 0z" fill="black"></path><path d="M472.5 162 a1.5 1.5 0 1 0 3 0 a1.5 1.5 0 1 0 -3 0zM364.5 222 a1.5 1.5 0 1 0 3 0 a1.5 1.5 0 1 0 -3 0z" fill="black"></path><path d="M256.5 126 a1.5 1.5 0 1 0 3 0 a1.5 1.5 0 1 0 -3 0zM244.5 102 a1.5 1.5 0 1 0 3 0 a1.5 1.5 0 1 0 -3 0z" fill="black"></path><path d="M436.5 42 a1.5 1.5 0 1 0 3 0 a1.5 1.5 0 1 0 -3 0zM436.5 78 a1.5 1.5 0 1 0 3 0 a1.5 1.5 0 1 0 -3 0z" fill="black"></path><path d="M652.5 114 a1.5 1.5 0 1 0 3 0 a1.5 1.5 0 1 0 -3 0zM640.5 102 a1.5 1.5 0 1 0 3 0 a1.5 1.5 0 1 0 -3 0z" fill="black"></path><path d="M904.5 234 a1.5 1.5 0 1 0 3 0 a1.5 1.5 0 1 0 -3 0zM952.5 246 a1.5 1.5 0 1 0 3 0 a1.5 1.5 0 1 0 -3 0z" fill="black"></path><path d="M592.5 174 a1.5 1.5 0 1 0 3 0 a1.5 1.5 0 1 0 -3 0zM580.5 138 a1.5 1.5 0 1 0 3 0 a1.5 1.5 0 1 0 -3 0z" fill="black"></path><path d="M160.5 270 a1.5 1.5 0 1 0 3 0 a1.5 1.5 0 1 0 -3 0zM124.5 234 a1.5 1.5 0 1 0 3 0 a1.5 1.5 0 1 0 -3 0z" fill="black"></path><path d="M460.5 210 a1.5 1.5 0 1 0 3 0 a1.5 1.5 0 1 0 -3 0zM364.5 234 a1.5 1.5 0 1 0 3 0 a1.5 1.5 0 1 0 -3 0z" fill="black"></path><path d="M1048.5 66 a1.5 1.5 0 1 0 3 0 a1.5 1.5 0 1 0 -3 0zM1048.5 114 a1.5 1.5 0 1 0 3 0 a1.5 1.5 0 1 0 -3 0z" fill="black"></path><path d="M76.5 282 a1.5 1.5 0 1 0 3 0 a1.5 1.5 0 1 0 -3 0zM112.5 270 a1.5 1.5 0 1 0 3 0 a1.5 1.5 0 1 0 -3 0z" fill="black"></path><path d="M820.5 222 a1.5 1.5 0 1 0 3 0 a1.5 1.5 0 1 0 -3 0zM772.5 234 a1.5 1.5 0 1 0 3 0 a1.5 1.5 0 1 0 -3 0z" fill="black"></path><path d="M1012.5 54 a1.5 1.5 0 1 0 3 0 a1.5 1.5 0 1 0 -3 0zM1036.5 102 a1.5 1.5 0 1 0 3 0 a1.5 1.5 0 1 0 -3 0z" fill="black"></path><path d="M844.5 18 a1.5 1.5 0 1 0 3 0 a1.5 1.5 0 1 0 -3 0zM868.5 18 a1.5 1.5 0 1 0 3 0 a1.5 1.5 0 1 0 -3 0z" fill="black"></path><path d="M256.5 306 a1.5 1.5 0 1 0 3 0 a1.5 1.5 0 1 0 -3 0zM280.5 294 a1.5 1.5 0 1 0 3 0 a1.5 1.5 0 1 0 -3 0z" fill="black"></path><path d="M676.5 6 a1.5 1.5 0 1 0 3 0 a1.5 1.5 0 1 0 -3 0zM628.5 6 a1.5 1.5 0 1 0 3 0 a1.5 1.5 0 1 0 -3 0z" fill="black"></path><path d="M940.5 306 a1.5 1.5 0 1 0 3 0 a1.5 1.5 0 1 0 -3 0zM892.5 318 a1.5 1.5 0 1 0 3 0 a1.5 1.5 0 1 0 -3 0z" fill="black"></path><path d="M424.5 198 a1.5 1.5 0 1 0 3 0 a1.5 1.5 0 1 0 -3 0zM364.5 210 a1.5 1.5 0 1 0 3 0 a1.5 1.5 0 1 0 -3 0z" fill="black"></path><path d="M232.5 210 a1.5 1.5 0 1 0 3 0 a1.5 1.5 0 1 0 -3 0zM208.5 150 a1.5 1.5 0 1 0 3 0 a1.5 1.5 0 1 0 -3 0z" fill="black"></path><path d="M148.5 138 a1.5 1.5 0 1 0 3 0 a1.5 1.5 0 1 0 -3 0zM124.5 162 a1.5 1.5 0 1 0 3 0 a1.5 1.5 0 1 0 -3 0z" fill="black"></path><path d="M868.5 42 a1.5 1.5 0 1 0 3 0 a1.5 1.5 0 1 0 -3 0zM844.5 42 a1.5 1.5 0 1 0 3 0 a1.5 1.5 0 1 0 -3 0z" fill="black"></path><path d="M580.5 270 a1.5 1.5 0 1 0 3 0 a1.5 1.5 0 1 0 -3 0zM616.5 270 a1.5 1.5 0 1 0 3 0 a1.5 1.5 0 1 0 -3 0z" fill="black"></path><path d="M424.5 294 a1.5 1.5 0 1 0 3 0 a1.5 1.5 0 1 0 -3 0zM388.5 270 a1.5 1.5 0 1 0 3 0 a1.5 1.5 0 1 0 -3 0z" fill="black"></path><path d="M424.5 186 a1.5 1.5 0 1 0 3 0 a1.5 1.5 0 1 0 -3 0zM460.5 150 a1.5 1.5 0 1 0 3 0 a1.5 1.5 0 1 0 -3 0z" fill="black"></path><path d="M856.5 222 a1.5 1.5 0 1 0 3 0 a1.5 1.5 0 1 0 -3 0zM928.5 246 a1.5 1.5 0 1 0 3 0 a1.5 1.5 0 1 0 -3 0z" fill="black"></path><path d="M508.5 18 a1.5 1.5 0 1 0 3 0 a1.5 1.5 0 1 0 -3 0zM580.5 18 a1.5 1.5 0 1 0 3 0 a1.5 1.5 0 1 0 -3 0z" fill="black"></path><path d="M304.5 258 a1.5 1.5 0 1 0 3 0 a1.5 1.5 0 1 0 -3 0zM304.5 282 a1.5 1.5 0 1 0 3 0 a1.5 1.5 0 1 0 -3 0z" fill="black"></path><path d="M556.5 30 a1.5 1.5 0 1 0 3 0 a1.5 1.5 0 1 0 -3 0zM580.5 30 a1.5 1.5 0 1 0 3 0 a1.5 1.5 0 1 0 -3 0z" fill="black"></path><path d="M988.5 114 a1.5 1.5 0 1 0 3 0 a1.5 1.5 0 1 0 -3 0zM988.5 138 a1.5 1.5 0 1 0 3 0 a1.5 1.5 0 1 0 -3 0z" fill="black"></path><path d="M244.5 258 a1.5 1.5 0 1 0 3 0 a1.5 1.5 0 1 0 -3 0zM220.5 270 a1.5 1.5 0 1 0 3 0 a1.5 1.5 0 1 0 -3 0z" fill="black"></path><path d="M820.5 198 a1.5 1.5 0 1 0 3 0 a1.5 1.5 0 1 0 -3 0zM784.5 222 a1.5 1.5 0 1 0 3 0 a1.5 1.5 0 1 0 -3 0z" fill="black"></path><path d="M448.5 150 a1.5 1.5 0 1 0 3 0 a1.5 1.5 0 1 0 -3 0zM424.5 162 a1.5 1.5 0 1 0 3 0 a1.5 1.5 0 1 0 -3 0z" fill="black"></path><path d="M532.5 270 a1.5 1.5 0 1 0 3 0 a1.5 1.5 0 1 0 -3 0zM544.5 246 a1.5 1.5 0 1 0 3 0 a1.5 1.5 0 1 0 -3 0z" fill="black"></path><path d="M904.5 78 a1.5 1.5 0 1 0 3 0 a1.5 1.5 0 1 0 -3 0zM964.5 78 a1.5 1.5 0 1 0 3 0 a1.5 1.5 0 1 0 -3 0z" fill="black"></path><path d="M1024.5 222 a1.5 1.5 0 1 0 3 0 a1.5 1.5 0 1 0 -3 0zM988.5 210 a1.5 1.5 0 1 0 3 0 a1.5 1.5 0 1 0 -3 0z" fill="black"></path><path d="M856.5 210 a1.5 1.5 0 1 0 3 0 a1.5 1.5 0 1 0 -3 0zM880.5 162 a1.5 1.5 0 1 0 3 0 a1.5 1.5 0 1 0 -3 0z" fill="black"></path><path d="M472.5 18 a1.5 1.5 0 1 0 3 0 a1.5 1.5 0 1 0 -3 0zM496.5 18 a1.5 1.5 0 1 0 3 0 a1.5 1.5 0 1 0 -3 0z" fill="black"></path><path d="M136.5 306 a1.5 1.5 0 1 0 3 0 a1.5 1.5 0 1 0 -3 0zM136.5 282 a1.5 1.5 0 1 0 3 0 a1.5 1.5 0 1 0 -3 0z" fill="black"></path><path d="M268.5 234 a1.5 1.5 0 1 0 3 0 a1.5 1.5 0 1 0 -3 0zM244.5 246 a1.5 1.5 0 1 0 3 0 a1.5 1.5 0 1 0 -3 0z" fill="black"></path><path d="M1060.5 270 a1.5 1.5 0 1 0 3 0 a1.5 1.5 0 1 0 -3 0zM1060.5 294 a1.5 1.5 0 1 0 3 0 a1.5 1.5 0 1 0 -3 0z" fill="black"></path><path d="M496.5 258 a1.5 1.5 0 1 0 3 0 a1.5 1.5 0 1 0 -3 0zM412.5 270 a1.5 1.5 0 1 0 3 0 a1.5 1.5 0 1 0 -3 0z" fill="black"></path><path d="M772.5 66 a1.5 1.5 0 1 0 3 0 a1.5 1.5 0 1 0 -3 0zM748.5 66 a1.5 1.5 0 1 0 3 0 a1.5 1.5 0 1 0 -3 0z" fill="black"></path><path d="M664.5 42 a1.5 1.5 0 1 0 3 0 a1.5 1.5 0 1 0 -3 0zM712.5 42 a1.5 1.5 0 1 0 3 0 a1.5 1.5 0 1 0 -3 0z" fill="black"></path><path d="M1048.5 162 a1.5 1.5 0 1 0 3 0 a1.5 1.5 0 1 0 -3 0zM1024.5 150 a1.5 1.5 0 1 0 3 0 a1.5 1.5 0 1 0 -3 0z" fill="black"></path><path d="M256.5 318 a1.5 1.5 0 1 0 3 0 a1.5 1.5 0 1 0 -3 0zM292.5 318 a1.5 1.5 0 1 0 3 0 a1.5 1.5 0 1 0 -3 0z" fill="black"></path><path d="M28.5 6 a1.5 1.5 0 1 0 3 0 a1.5 1.5 0 1 0 -3 0zM4.5 6 a1.5 1.5 0 1 0 3 0 a1.5 1.5 0 1 0 -3 0z" fill="black"></path><path d="M1048.5 186 a1.5 1.5 0 1 0 3 0 a1.5 1.5 0 1 0 -3 0zM1024.5 186 a1.5 1.5 0 1 0 3 0 a1.5 1.5 0 1 0 -3 0z" fill="black"></path><path d="M712.5 258 a1.5 1.5 0 1 0 3 0 a1.5 1.5 0 1 0 -3 0zM688.5 270 a1.5 1.5 0 1 0 3 0 a1.5 1.5 0 1 0 -3 0z" fill="black"></path><path d="M796.5 222 a1.5 1.5 0 1 0 3 0 a1.5 1.5 0 1 0 -3 0zM820.5 210 a1.5 1.5 0 1 0 3 0 a1.5 1.5 0 1 0 -3 0z" fill="black"></path><path d="M184.5 198 a1.5 1.5 0 1 0 3 0 a1.5 1.5 0 1 0 -3 0zM184.5 258 a1.5 1.5 0 1 0 3 0 a1.5 1.5 0 1 0 -3 0z" fill="black"></path><path d="M52.5 210 a1.5 1.5 0 1 0 3 0 a1.5 1.5 0 1 0 -3 0zM16.5 150 a1.5 1.5 0 1 0 3 0 a1.5 1.5 0 1 0 -3 0z" fill="black"></path><path d="M124.5 90 a1.5 1.5 0 1 0 3 0 a1.5 1.5 0 1 0 -3 0zM100.5 66 a1.5 1.5 0 1 0 3 0 a1.5 1.5 0 1 0 -3 0z" fill="black"></path><path d="M544.5 318 a1.5 1.5 0 1 0 3 0 a1.5 1.5 0 1 0 -3 0zM508.5 318 a1.5 1.5 0 1 0 3 0 a1.5 1.5 0 1 0 -3 0z" fill="black"></path><path d="M520.5 222 a1.5 1.5 0 1 0 3 0 a1.5 1.5 0 1 0 -3 0zM520.5 198 a1.5 1.5 0 1 0 3 0 a1.5 1.5 0 1 0 -3 0z" fill="black"></path><path d="M460.5 18 a1.5 1.5 0 1 0 3 0 a1.5 1.5 0 1 0 -3 0zM484.5 30 a1.5 1.5 0 1 0 3 0 a1.5 1.5 0 1 0 -3 0z" fill="black"></path><path d="M472.5 270 a1.5 1.5 0 1 0 3 0 a1.5 1.5 0 1 0 -3 0zM496.5 246 a1.5 1.5 0 1 0 3 0 a1.5 1.5 0 1 0 -3 0z" fill="black"></path><path d="M628.5 18 a1.5 1.5 0 1 0 3 0 a1.5 1.5 0 1 0 -3 0zM604.5 54 a1.5 1.5 0 1 0 3 0 a1.5 1.5 0 1 0 -3 0z" fill="black"></path><path d="M100.5 102 a1.5 1.5 0 1 0 3 0 a1.5 1.5 0 1 0 -3 0zM160.5 102 a1.5 1.5 0 1 0 3 0 a1.5 1.5 0 1 0 -3 0z" fill="black"></path><path d="M316.5 186 a1.5 1.5 0 1 0 3 0 a1.5 1.5 0 1 0 -3 0zM328.5 210 a1.5 1.5 0 1 0 3 0 a1.5 1.5 0 1 0 -3 0z" fill="black"></path><path d="M736.5 222 a1.5 1.5 0 1 0 3 0 a1.5 1.5 0 1 0 -3 0zM712.5 210 a1.5 1.5 0 1 0 3 0 a1.5 1.5 0 1 0 -3 0z" fill="black"></path><path d="M520.5 174 a1.5 1.5 0 1 0 3 0 a1.5 1.5 0 1 0 -3 0zM520.5 150 a1.5 1.5 0 1 0 3 0 a1.5 1.5 0 1 0 -3 0z" fill="black"></path><path d="M256.5 138 a1.5 1.5 0 1 0 3 0 a1.5 1.5 0 1 0 -3 0zM280.5 138 a1.5 1.5 0 1 0 3 0 a1.5 1.5 0 1 0 -3 0z" fill="black"></path><path d="M340.5 306 a1.5 1.5 0 1 0 3 0 a1.5 1.5 0 1 0 -3 0zM316.5 270 a1.5 1.5 0 1 0 3 0 a1.5 1.5 0 1 0 -3 0z" fill="black"></path><path d="M784.5 42 a1.5 1.5 0 1 0 3 0 a1.5 1.5 0 1 0 -3 0zM784.5 66 a1.5 1.5 0 1 0 3 0 a1.5 1.5 0 1 0 -3 0z" fill="black"></path><path d="M964.5 282 a1.5 1.5 0 1 0 3 0 a1.5 1.5 0 1 0 -3 0zM1036.5 282 a1.5 1.5 0 1 0 3 0 a1.5 1.5 0 1 0 -3 0z" fill="black"></path><path d="M664.5 270 a1.5 1.5 0 1 0 3 0 a1.5 1.5 0 1 0 -3 0zM640.5 282 a1.5 1.5 0 1 0 3 0 a1.5 1.5 0 1 0 -3 0z" fill="black"></path><path d="M52.5 162 a1.5 1.5 0 1 0 3 0 a1.5 1.5 0 1 0 -3 0zM28.5 150 a1.5 1.5 0 1 0 3 0 a1.5 1.5 0 1 0 -3 0z" fill="black"></path><path d="M664.5 78 a1.5 1.5 0 1 0 3 0 a1.5 1.5 0 1 0 -3 0zM688.5 30 a1.5 1.5 0 1 0 3 0 a1.5 1.5 0 1 0 -3 0z" fill="black"></path><path d="M196.5 318 a1.5 1.5 0 1 0 3 0 a1.5 1.5 0 1 0 -3 0zM220.5 318 a1.5 1.5 0 1 0 3 0 a1.5 1.5 0 1 0 -3 0z" fill="black"></path><path d="M232.5 294 a1.5 1.5 0 1 0 3 0 a1.5 1.5 0 1 0 -3 0zM208.5 294 a1.5 1.5 0 1 0 3 0 a1.5 1.5 0 1 0 -3 0z" fill="black"></path><path d="M532.5 102 a1.5 1.5 0 1 0 3 0 a1.5 1.5 0 1 0 -3 0zM532.5 78 a1.5 1.5 0 1 0 3 0 a1.5 1.5 0 1 0 -3 0z" fill="black"></path><path d="M136.5 234 a1.5 1.5 0 1 0 3 0 a1.5 1.5 0 1 0 -3 0zM172.5 246 a1.5 1.5 0 1 0 3 0 a1.5 1.5 0 1 0 -3 0z" fill="black"></path><path d="M280.5 234 a1.5 1.5 0 1 0 3 0 a1.5 1.5 0 1 0 -3 0zM280.5 210 a1.5 1.5 0 1 0 3 0 a1.5 1.5 0 1 0 -3 0z" fill="black"></path><path d="M928.5 138 a1.5 1.5 0 1 0 3 0 a1.5 1.5 0 1 0 -3 0zM928.5 174 a1.5 1.5 0 1 0 3 0 a1.5 1.5 0 1 0 -3 0z" fill="black"></path><path d="M664.5 66 a1.5 1.5 0 1 0 3 0 a1.5 1.5 0 1 0 -3 0zM712.5 66 a1.5 1.5 0 1 0 3 0 a1.5 1.5 0 1 0 -3 0z" fill="black"></path><path d="M28.5 54 a1.5 1.5 0 1 0 3 0 a1.5 1.5 0 1 0 -3 0zM52.5 54 a1.5 1.5 0 1 0 3 0 a1.5 1.5 0 1 0 -3 0z" fill="black"></path><path d="M220.5 42 a1.5 1.5 0 1 0 3 0 a1.5 1.5 0 1 0 -3 0zM196.5 18 a1.5 1.5 0 1 0 3 0 a1.5 1.5 0 1 0 -3 0z" fill="black"></path><path d="M784.5 198 a1.5 1.5 0 1 0 3 0 a1.5 1.5 0 1 0 -3 0zM820.5 174 a1.5 1.5 0 1 0 3 0 a1.5 1.5 0 1 0 -3 0z" fill="black"></path><path d="M1060.5 318 a1.5 1.5 0 1 0 3 0 a1.5 1.5 0 1 0 -3 0zM1084.5 306 a1.5 1.5 0 1 0 3 0 a1.5 1.5 0 1 0 -3 0z" fill="black"></path><path d="M424.5 234 a1.5 1.5 0 1 0 3 0 a1.5 1.5 0 1 0 -3 0zM448.5 222 a1.5 1.5 0 1 0 3 0 a1.5 1.5 0 1 0 -3 0z" fill="black"></path><path d="M40.5 174 a1.5 1.5 0 1 0 3 0 a1.5 1.5 0 1 0 -3 0zM52.5 198 a1.5 1.5 0 1 0 3 0 a1.5 1.5 0 1 0 -3 0z" fill="black"></path><path d="M532.5 30 a1.5 1.5 0 1 0 3 0 a1.5 1.5 0 1 0 -3 0zM508.5 30 a1.5 1.5 0 1 0 3 0 a1.5 1.5 0 1 0 -3 0z" fill="black"></path><path d="M1072.5 114 a1.5 1.5 0 1 0 3 0 a1.5 1.5 0 1 0 -3 0zM1072.5 138 a1.5 1.5 0 1 0 3 0 a1.5 1.5 0 1 0 -3 0z" fill="black"></path><path d="M484.5 174 a1.5 1.5 0 1 0 3 0 a1.5 1.5 0 1 0 -3 0zM448.5 198 a1.5 1.5 0 1 0 3 0 a1.5 1.5 0 1 0 -3 0z" fill="black"></path><path d="M700.5 162 a1.5 1.5 0 1 0 3 0 a1.5 1.5 0 1 0 -3 0zM724.5 162 a1.5 1.5 0 1 0 3 0 a1.5 1.5 0 1 0 -3 0z" fill="black"></path><path d="M28.5 234 a1.5 1.5 0 1 0 3 0 a1.5 1.5 0 1 0 -3 0zM16.5 210 a1.5 1.5 0 1 0 3 0 a1.5 1.5 0 1 0 -3 0z" fill="black"></path><path d="M988.5 306 a1.5 1.5 0 1 0 3 0 a1.5 1.5 0 1 0 -3 0zM1012.5 306 a1.5 1.5 0 1 0 3 0 a1.5 1.5 0 1 0 -3 0z" fill="black"></path><path d="M916.5 174 a1.5 1.5 0 1 0 3 0 a1.5 1.5 0 1 0 -3 0zM880.5 174 a1.5 1.5 0 1 0 3 0 a1.5 1.5 0 1 0 -3 0z" fill="black"></path><path d="M940.5 30 a1.5 1.5 0 1 0 3 0 a1.5 1.5 0 1 0 -3 0zM940.5 6 a1.5 1.5 0 1 0 3 0 a1.5 1.5 0 1 0 -3 0z" fill="black"></path><path d="M892.5 210 a1.5 1.5 0 1 0 3 0 a1.5 1.5 0 1 0 -3 0zM880.5 234 a1.5 1.5 0 1 0 3 0 a1.5 1.5 0 1 0 -3 0z" fill="black"></path><path d="M940.5 150 a1.5 1.5 0 1 0 3 0 a1.5 1.5 0 1 0 -3 0zM940.5 174 a1.5 1.5 0 1 0 3 0 a1.5 1.5 0 1 0 -3 0z" fill="black"></path><path d="M916.5 162 a1.5 1.5 0 1 0 3 0 a1.5 1.5 0 1 0 -3 0zM916.5 138 a1.5 1.5 0 1 0 3 0 a1.5 1.5 0 1 0 -3 0z" fill="black"></path><path d="M592.5 282 a1.5 1.5 0 1 0 3 0 a1.5 1.5 0 1 0 -3 0zM568.5 282 a1.5 1.5 0 1 0 3 0 a1.5 1.5 0 1 0 -3 0z" fill="black"></path><path d="M460.5 270 a1.5 1.5 0 1 0 3 0 a1.5 1.5 0 1 0 -3 0zM424.5 270 a1.5 1.5 0 1 0 3 0 a1.5 1.5 0 1 0 -3 0z" fill="black"></path><path d="M976.5 306 a1.5 1.5 0 1 0 3 0 a1.5 1.5 0 1 0 -3 0zM952.5 306 a1.5 1.5 0 1 0 3 0 a1.5 1.5 0 1 0 -3 0z" fill="black"></path><path d="M136.5 126 a1.5 1.5 0 1 0 3 0 a1.5 1.5 0 1 0 -3 0zM160.5 126 a1.5 1.5 0 1 0 3 0 a1.5 1.5 0 1 0 -3 0z" fill="black"></path></mask></defs></svg>