<svg xmlns="http://www.w3.org/2000/svg" version="1.1" xmlns:xlink="http://www.w3.org/1999/xlink" xmlns:svgjs="http://svgjs.dev/svgjs" width="1440" height="560" preserveAspectRatio="none" viewBox="0 0 1440 560"><g mask="url(&quot;#SvgjsMask2132&quot;)" fill="none"><rect width="1440" height="560" x="0" y="0" fill="url(&quot;#SvgjsLinearGradient2133&quot;)"></rect><path d="M87.97 101.99L158.12 142.49L158.12 223.49L87.97 263.99L17.82 223.49L17.82 142.49zM298.42 -19.51L368.57 20.99L368.57 101.99L298.42 142.49L228.27 101.99L228.27 20.99zM298.42 223.49L368.57 263.99L368.57 344.99L298.42 385.49L228.27 344.99L228.27 263.99zM368.57 587.99L438.72 628.49L438.72 709.49L368.57 749.99L298.42 709.49L298.42 628.49zM438.72 -19.51L508.87 20.99L508.87 101.99L438.72 142.49L368.57 101.99L368.57 20.99zM579.02 -19.51L649.17 20.99L649.17 101.99L579.02 142.49L508.87 101.99L508.87 20.99zM579.02 466.49L649.17 506.99L649.17 587.99L579.02 628.49L508.87 587.99L508.87 506.99zM929.77 344.99L999.92 385.49L999.92 466.49L929.77 506.99L859.62 466.49L859.62 385.49zM859.62 466.49L929.77 506.99L929.77 587.99L859.62 628.49L789.47 587.99L789.47 506.99zM1210.37 344.99L1280.52 385.49L1280.52 466.49L1210.37 506.99L1140.22 466.49L1140.22 385.49zM1210.37 587.99L1280.52 628.49L1280.52 709.49L1210.37 749.99L1140.22 709.49L1140.22 628.49zM1280.52 223.49L1350.67 263.99L1350.67 344.99L1280.52 385.49L1210.37 344.99L1210.37 263.99zM1420.82 466.49L1490.97 506.99L1490.97 587.99L1420.82 628.49L1350.67 587.99L1350.67 506.99z" stroke="url(&quot;#SvgjsLinearGradient2134&quot;)" stroke-width="2"></path><path d="M79.87 101.99 a8.1 8.1 0 1 0 16.2 0 a8.1 8.1 0 1 0 -16.2 0zM150.02 142.49 a8.1 8.1 0 1 0 16.2 0 a8.1 8.1 0 1 0 -16.2 0zM150.02 223.49 a8.1 8.1 0 1 0 16.2 0 a8.1 8.1 0 1 0 -16.2 0zM79.87 263.99 a8.1 8.1 0 1 0 16.2 0 a8.1 8.1 0 1 0 -16.2 0zM9.72 223.49 a8.1 8.1 0 1 0 16.2 0 a8.1 8.1 0 1 0 -16.2 0zM9.72 142.49 a8.1 8.1 0 1 0 16.2 0 a8.1 8.1 0 1 0 -16.2 0zM290.32 -19.51 a8.1 8.1 0 1 0 16.2 0 a8.1 8.1 0 1 0 -16.2 0zM360.47 20.99 a8.1 8.1 0 1 0 16.2 0 a8.1 8.1 0 1 0 -16.2 0zM360.47 101.99 a8.1 8.1 0 1 0 16.2 0 a8.1 8.1 0 1 0 -16.2 0zM290.32 142.49 a8.1 8.1 0 1 0 16.2 0 a8.1 8.1 0 1 0 -16.2 0zM220.17 101.99 a8.1 8.1 0 1 0 16.2 0 a8.1 8.1 0 1 0 -16.2 0zM220.17 20.99 a8.1 8.1 0 1 0 16.2 0 a8.1 8.1 0 1 0 -16.2 0zM290.32 223.49 a8.1 8.1 0 1 0 16.2 0 a8.1 8.1 0 1 0 -16.2 0zM360.47 263.99 a8.1 8.1 0 1 0 16.2 0 a8.1 8.1 0 1 0 -16.2 0zM360.47 344.99 a8.1 8.1 0 1 0 16.2 0 a8.1 8.1 0 1 0 -16.2 0zM290.32 385.49 a8.1 8.1 0 1 0 16.2 0 a8.1 8.1 0 1 0 -16.2 0zM220.17 344.99 a8.1 8.1 0 1 0 16.2 0 a8.1 8.1 0 1 0 -16.2 0zM220.17 263.99 a8.1 8.1 0 1 0 16.2 0 a8.1 8.1 0 1 0 -16.2 0zM360.47 587.99 a8.1 8.1 0 1 0 16.2 0 a8.1 8.1 0 1 0 -16.2 0zM430.62 628.49 a8.1 8.1 0 1 0 16.2 0 a8.1 8.1 0 1 0 -16.2 0zM430.62 709.49 a8.1 8.1 0 1 0 16.2 0 a8.1 8.1 0 1 0 -16.2 0zM360.47 749.99 a8.1 8.1 0 1 0 16.2 0 a8.1 8.1 0 1 0 -16.2 0zM290.32 709.49 a8.1 8.1 0 1 0 16.2 0 a8.1 8.1 0 1 0 -16.2 0zM290.32 628.49 a8.1 8.1 0 1 0 16.2 0 a8.1 8.1 0 1 0 -16.2 0zM430.62 -19.51 a8.1 8.1 0 1 0 16.2 0 a8.1 8.1 0 1 0 -16.2 0zM500.77 20.99 a8.1 8.1 0 1 0 16.2 0 a8.1 8.1 0 1 0 -16.2 0zM500.77 101.99 a8.1 8.1 0 1 0 16.2 0 a8.1 8.1 0 1 0 -16.2 0zM430.62 142.49 a8.1 8.1 0 1 0 16.2 0 a8.1 8.1 0 1 0 -16.2 0zM570.92 -19.51 a8.1 8.1 0 1 0 16.2 0 a8.1 8.1 0 1 0 -16.2 0zM641.07 20.99 a8.1 8.1 0 1 0 16.2 0 a8.1 8.1 0 1 0 -16.2 0zM641.07 101.99 a8.1 8.1 0 1 0 16.2 0 a8.1 8.1 0 1 0 -16.2 0zM570.92 142.49 a8.1 8.1 0 1 0 16.2 0 a8.1 8.1 0 1 0 -16.2 0zM570.92 466.49 a8.1 8.1 0 1 0 16.2 0 a8.1 8.1 0 1 0 -16.2 0zM641.07 506.99 a8.1 8.1 0 1 0 16.2 0 a8.1 8.1 0 1 0 -16.2 0zM641.07 587.99 a8.1 8.1 0 1 0 16.2 0 a8.1 8.1 0 1 0 -16.2 0zM570.92 628.49 a8.1 8.1 0 1 0 16.2 0 a8.1 8.1 0 1 0 -16.2 0zM500.77 587.99 a8.1 8.1 0 1 0 16.2 0 a8.1 8.1 0 1 0 -16.2 0zM500.77 506.99 a8.1 8.1 0 1 0 16.2 0 a8.1 8.1 0 1 0 -16.2 0zM921.67 344.99 a8.1 8.1 0 1 0 16.2 0 a8.1 8.1 0 1 0 -16.2 0zM991.82 385.49 a8.1 8.1 0 1 0 16.2 0 a8.1 8.1 0 1 0 -16.2 0zM991.82 466.49 a8.1 8.1 0 1 0 16.2 0 a8.1 8.1 0 1 0 -16.2 0zM921.67 506.99 a8.1 8.1 0 1 0 16.2 0 a8.1 8.1 0 1 0 -16.2 0zM851.52 466.49 a8.1 8.1 0 1 0 16.2 0 a8.1 8.1 0 1 0 -16.2 0zM851.52 385.49 a8.1 8.1 0 1 0 16.2 0 a8.1 8.1 0 1 0 -16.2 0zM921.67 587.99 a8.1 8.1 0 1 0 16.2 0 a8.1 8.1 0 1 0 -16.2 0zM851.52 628.49 a8.1 8.1 0 1 0 16.2 0 a8.1 8.1 0 1 0 -16.2 0zM781.37 587.99 a8.1 8.1 0 1 0 16.2 0 a8.1 8.1 0 1 0 -16.2 0zM781.37 506.99 a8.1 8.1 0 1 0 16.2 0 a8.1 8.1 0 1 0 -16.2 0zM1202.27 344.99 a8.1 8.1 0 1 0 16.2 0 a8.1 8.1 0 1 0 -16.2 0zM1272.42 385.49 a8.1 8.1 0 1 0 16.2 0 a8.1 8.1 0 1 0 -16.2 0zM1272.42 466.49 a8.1 8.1 0 1 0 16.2 0 a8.1 8.1 0 1 0 -16.2 0zM1202.27 506.99 a8.1 8.1 0 1 0 16.2 0 a8.1 8.1 0 1 0 -16.2 0zM1132.12 466.49 a8.1 8.1 0 1 0 16.2 0 a8.1 8.1 0 1 0 -16.2 0zM1132.12 385.49 a8.1 8.1 0 1 0 16.2 0 a8.1 8.1 0 1 0 -16.2 0zM1202.27 587.99 a8.1 8.1 0 1 0 16.2 0 a8.1 8.1 0 1 0 -16.2 0zM1272.42 628.49 a8.1 8.1 0 1 0 16.2 0 a8.1 8.1 0 1 0 -16.2 0zM1272.42 709.49 a8.1 8.1 0 1 0 16.2 0 a8.1 8.1 0 1 0 -16.2 0zM1202.27 749.99 a8.1 8.1 0 1 0 16.2 0 a8.1 8.1 0 1 0 -16.2 0zM1132.12 709.49 a8.1 8.1 0 1 0 16.2 0 a8.1 8.1 0 1 0 -16.2 0zM1132.12 628.49 a8.1 8.1 0 1 0 16.2 0 a8.1 8.1 0 1 0 -16.2 0zM1272.42 223.49 a8.1 8.1 0 1 0 16.2 0 a8.1 8.1 0 1 0 -16.2 0zM1342.57 263.99 a8.1 8.1 0 1 0 16.2 0 a8.1 8.1 0 1 0 -16.2 0zM1342.57 344.99 a8.1 8.1 0 1 0 16.2 0 a8.1 8.1 0 1 0 -16.2 0zM1202.27 263.99 a8.1 8.1 0 1 0 16.2 0 a8.1 8.1 0 1 0 -16.2 0zM1412.72 466.49 a8.1 8.1 0 1 0 16.2 0 a8.1 8.1 0 1 0 -16.2 0zM1482.87 506.99 a8.1 8.1 0 1 0 16.2 0 a8.1 8.1 0 1 0 -16.2 0zM1482.87 587.99 a8.1 8.1 0 1 0 16.2 0 a8.1 8.1 0 1 0 -16.2 0zM1412.72 628.49 a8.1 8.1 0 1 0 16.2 0 a8.1 8.1 0 1 0 -16.2 0zM1342.57 587.99 a8.1 8.1 0 1 0 16.2 0 a8.1 8.1 0 1 0 -16.2 0zM1342.57 506.99 a8.1 8.1 0 1 0 16.2 0 a8.1 8.1 0 1 0 -16.2 0z" fill="url(&quot;#SvgjsLinearGradient2134&quot;)"></path><path d="M42.52 -22.84L85.82 2.16L85.82 52.16L42.52 77.16L-0.78 52.16L-0.78 2.16zM42.52 127.16L85.82 152.16L85.82 202.16L42.52 227.16L-0.78 202.16L-0.78 152.16zM85.82 202.16L129.13 227.16L129.13 277.16L85.82 302.16L42.52 277.16L42.52 227.16zM172.43 502.16L215.73 527.16L215.73 577.16L172.43 602.16L129.13 577.16L129.13 527.16zM215.73 -22.84L259.03 2.16L259.03 52.16L215.73 77.16L172.43 52.16L172.43 2.16zM259.03 52.16L302.33 77.16L302.33 127.16L259.03 152.16L215.73 127.16L215.73 77.16zM259.03 202.16L302.33 227.16L302.33 277.16L259.03 302.16L215.73 277.16L215.73 227.16zM259.03 352.16L302.33 377.16L302.33 427.16L259.03 452.16L215.73 427.16L215.73 377.16zM259.03 502.16L302.33 527.16L302.33 577.16L259.03 602.16L215.73 577.16L215.73 527.16zM345.64 502.16L388.94 527.16L388.94 577.16L345.64 602.16L302.33 577.16L302.33 527.16zM432.24 52.16L475.55 77.16L475.55 127.16L432.24 152.16L388.94 127.16L388.94 77.16zM388.94 277.16L432.24 302.16L432.24 352.16L388.94 377.16L345.64 352.16L345.64 302.16zM388.94 427.16L432.24 452.16L432.24 502.16L388.94 527.16L345.64 502.16L345.64 452.16zM518.85 52.16L562.15 77.16L562.15 127.16L518.85 152.16L475.55 127.16L475.55 77.16zM475.55 277.16L518.85 302.16L518.85 352.16L475.55 377.16L432.24 352.16L432.24 302.16zM475.55 427.16L518.85 452.16L518.85 502.16L475.55 527.16L432.24 502.16L432.24 452.16zM518.85 502.16L562.15 527.16L562.15 577.16L518.85 602.16L475.55 577.16L475.55 527.16zM562.15 -22.84L605.45 2.16L605.45 52.16L562.15 77.16L518.85 52.16L518.85 2.16zM605.45 52.16L648.75 77.16L648.75 127.16L605.45 152.16L562.15 127.16L562.15 77.16zM562.15 127.16L605.45 152.16L605.45 202.16L562.15 227.16L518.85 202.16L518.85 152.16zM692.06 202.16L735.36 227.16L735.36 277.16L692.06 302.16L648.75 277.16L648.75 227.16zM648.75 277.16L692.06 302.16L692.06 352.16L648.75 377.16L605.45 352.16L605.45 302.16zM778.66 52.16L821.97 77.16L821.97 127.16L778.66 152.16L735.36 127.16L735.36 77.16zM778.66 502.16L821.97 527.16L821.97 577.16L778.66 602.16L735.36 577.16L735.36 527.16zM908.57 -22.84L951.87 2.16L951.87 52.16L908.57 77.16L865.27 52.16L865.27 2.16zM951.87 352.16L995.18 377.16L995.18 427.16L951.87 452.16L908.57 427.16L908.57 377.16zM908.57 427.16L951.87 452.16L951.87 502.16L908.57 527.16L865.27 502.16L865.27 452.16zM1038.48 202.16L1081.78 227.16L1081.78 277.16L1038.48 302.16L995.18 277.16L995.18 227.16zM1038.48 502.16L1081.78 527.16L1081.78 577.16L1038.48 602.16L995.18 577.16L995.18 527.16zM1125.08 352.16L1168.38 377.16L1168.38 427.16L1125.08 452.16L1081.78 427.16L1081.78 377.16zM1125.08 502.16L1168.38 527.16L1168.38 577.16L1125.08 602.16L1081.78 577.16L1081.78 527.16zM1168.38 127.16L1211.69 152.16L1211.69 202.16L1168.38 227.16L1125.08 202.16L1125.08 152.16zM1168.38 277.16L1211.69 302.16L1211.69 352.16L1168.38 377.16L1125.08 352.16L1125.08 302.16zM1298.29 52.16L1341.6 77.16L1341.6 127.16L1298.29 152.16L1254.99 127.16L1254.99 77.16zM1254.99 127.16L1298.29 152.16L1298.29 202.16L1254.99 227.16L1211.69 202.16L1211.69 152.16zM1298.29 202.16L1341.6 227.16L1341.6 277.16L1298.29 302.16L1254.99 277.16L1254.99 227.16zM1254.99 277.16L1298.29 302.16L1298.29 352.16L1254.99 377.16L1211.69 352.16L1211.69 302.16zM1254.99 427.16L1298.29 452.16L1298.29 502.16L1254.99 527.16L1211.69 502.16L1211.69 452.16zM1384.9 202.16L1428.2 227.16L1428.2 277.16L1384.9 302.16L1341.6 277.16L1341.6 227.16zM1341.6 277.16L1384.9 302.16L1384.9 352.16L1341.6 377.16L1298.29 352.16L1298.29 302.16zM1428.2 127.16L1471.5 152.16L1471.5 202.16L1428.2 227.16L1384.9 202.16L1384.9 152.16zM1428.2 277.16L1471.5 302.16L1471.5 352.16L1428.2 377.16L1384.9 352.16L1384.9 302.16z" stroke="url(&quot;#SvgjsLinearGradient2135&quot;)" stroke-width="2"></path></g><defs><mask id="SvgjsMask2132"><rect width="1440" height="560" fill="#ffffff"></rect></mask><linearGradient x1="50%" y1="100%" x2="50%" y2="0%" gradientUnits="userSpaceOnUse" id="SvgjsLinearGradient2133"><stop stop-color="rgba(255, 160, 57, 0.42)" offset="0"></stop><stop stop-color="rgba(255, 187, 144, 0.51)" offset="1"></stop></linearGradient><linearGradient x1="1219.9679999999998" y1="780.024" x2="220.03199999999998" y2="-220.02399999999997" gradientUnits="userSpaceOnUse" id="SvgjsLinearGradient2134"><stop stop-color="rgba(158, 0, 129, 1)" offset="0"></stop><stop stop-color="rgba(255, 0, 0, 1)" offset="1"></stop></linearGradient><linearGradient x1="720" y1="0" x2="720" y2="560" gradientUnits="userSpaceOnUse" id="SvgjsLinearGradient2135"><stop stop-color="rgba(188, 10, 10, 1)" offset="0"></stop><stop stop-color="rgba(146, 158, 0, 1)" offset="1"></stop></linearGradient></defs></svg>